<svg width="60" height="61" viewBox="0 0 60 61" fill="none" xmlns="http://www.w3.org/2000/svg">
<circle opacity="0.3" cx="30" cy="30.5" r="30" fill="white"/>
<path d="M29.997 26.8316C27.9772 26.8316 26.3289 28.48 26.3289 30.4998C26.3289 32.5196 27.9772 34.168 29.997 34.168C32.0169 34.168 33.6652 32.5196 33.6652 30.4998C33.6652 28.48 32.0169 26.8316 29.997 26.8316ZM40.9988 30.4998C40.9988 28.9808 41.0125 27.4756 40.9272 25.9593C40.8419 24.1982 40.4402 22.6351 39.1523 21.3473C37.8617 20.0567 36.3014 19.6577 34.5403 19.5724C33.0213 19.4871 31.516 19.5008 29.9998 19.5008C28.4808 19.5008 26.9756 19.4871 25.4593 19.5724C23.6982 19.6577 22.1351 20.0594 20.8473 21.3473C19.5567 22.6379 19.1577 24.1982 19.0724 25.9593C18.9871 27.4783 19.0008 28.9835 19.0008 30.4998C19.0008 32.016 18.9871 33.524 19.0724 35.0403C19.1577 36.8014 19.5594 38.3645 20.8473 39.6523C22.1379 40.9429 23.6982 41.3419 25.4593 41.4272C26.9783 41.5125 28.4835 41.4988 29.9998 41.4988C31.5188 41.4988 33.024 41.5125 34.5403 41.4272C36.3014 41.3419 37.8645 40.9402 39.1523 39.6523C40.4429 38.3617 40.8419 36.8014 40.9272 35.0403C41.0153 33.524 40.9988 32.0188 40.9988 30.4998ZM29.997 36.1438C26.8737 36.1438 24.3531 33.6231 24.3531 30.4998C24.3531 27.3765 26.8737 24.8558 29.997 24.8558C33.1203 24.8558 35.641 27.3765 35.641 30.4998C35.641 33.6231 33.1203 36.1438 29.997 36.1438ZM35.8722 25.9428C35.1429 25.9428 34.554 25.3539 34.554 24.6247C34.554 23.8955 35.1429 23.3066 35.8722 23.3066C36.6014 23.3066 37.1903 23.8955 37.1903 24.6247C37.1905 24.7978 37.1565 24.9693 37.0904 25.1294C37.0242 25.2894 36.9271 25.4348 36.8047 25.5572C36.6822 25.6797 36.5369 25.7767 36.3768 25.8429C36.2168 25.9091 36.0453 25.943 35.8722 25.9428Z" fill="white"/>
</svg>
