<svg width="60" height="61" viewBox="0 0 60 61" fill="none" xmlns="http://www.w3.org/2000/svg">
<circle opacity="0.3" cx="30" cy="30.5" r="30" fill="white"/>
<path d="M30 19.5C23.796 19.5 19 24.043 19 30.17C19 33.371 20.309 36.154 22.454 38.057C22.63 38.2 22.74 38.442 22.751 38.684L22.806 40.642C22.85 41.269 23.477 41.676 24.049 41.423L26.227 40.466C26.414 40.4 26.623 40.367 26.81 40.4C27.8 40.697 28.9 40.84 30 40.84C36.204 40.84 41 36.297 41 30.17C41 24.043 36.204 19.5 30 19.5ZM36.6 27.706L33.377 32.843C32.86 33.646 31.76 33.855 30.99 33.25L28.416 31.347C28.3018 31.2613 28.1628 31.215 28.02 31.215C27.8772 31.215 27.7382 31.2613 27.624 31.347L24.148 33.987C23.686 34.35 23.081 33.8 23.4 33.294L26.623 28.157C27.14 27.354 28.24 27.145 29.01 27.717L31.584 29.653C31.6982 29.7387 31.8372 29.785 31.98 29.785C32.1228 29.785 32.2618 29.7387 32.376 29.653L35.852 27.013C36.314 26.65 36.919 27.2 36.6 27.706Z" fill="white"/>
</svg>
