<svg width="60" height="61" viewBox="0 0 60 61" fill="none" xmlns="http://www.w3.org/2000/svg">
<circle opacity="0.3" cx="30" cy="30.5" r="30" fill="white"/>
<path d="M41 23.6169C40.3874 24.5281 39.6358 25.3049 38.7452 25.9473C38.754 26.1196 38.7584 26.3143 38.7584 26.5314C38.7584 27.738 38.5825 28.946 38.2306 30.1555C37.8788 31.365 37.3414 32.5227 36.6184 33.6286C35.8954 34.7345 35.0342 35.7142 34.0347 36.5678C33.0353 37.4213 31.8339 38.1019 30.4306 38.6095C29.0273 39.1171 27.5233 39.3709 25.9187 39.3709C23.4144 39.3709 21.1081 38.6948 19 37.3427C19.3742 37.3843 19.733 37.4052 20.0766 37.4052C22.1687 37.4052 24.0373 36.7607 25.6824 35.4719C24.707 35.454 23.8334 35.1538 23.0616 34.5711C22.2899 33.9884 21.7588 33.2439 21.4683 32.3374C21.7554 32.3921 22.0387 32.4195 22.3184 32.4195C22.7208 32.4195 23.1169 32.367 23.5064 32.262C22.4654 32.0535 21.6018 31.535 20.9156 30.7065C20.2294 29.878 19.8863 28.9218 19.8863 27.8378V27.7819C20.5253 28.1357 21.2069 28.3239 21.9311 28.3465C21.3144 27.9354 20.8254 27.3993 20.4642 26.7382C20.103 26.077 19.9224 25.3616 19.9224 24.5918C19.9224 23.78 20.1258 23.024 20.5327 22.3239C21.6648 23.7131 23.0366 24.8234 24.648 25.6549C26.2594 26.4863 27.9882 26.948 29.8343 27.0401C29.7556 26.712 29.7162 26.3695 29.716 26.0128C29.716 24.7672 30.1568 23.7037 31.0384 22.8222C31.9199 21.9407 32.9835 21.5 34.229 21.5C35.5331 21.5 36.6315 21.9748 37.5243 22.9245C38.5443 22.7225 39.4994 22.357 40.3896 21.8281C40.0466 22.9074 39.3858 23.74 38.4071 24.3259C39.3066 24.219 40.171 23.9827 41 23.6169Z" fill="white"/>
</svg>
