<svg width="60" height="61" viewBox="0 0 60 61" fill="none" xmlns="http://www.w3.org/2000/svg">
<circle opacity="0.3" cx="30" cy="30.5" r="30" fill="white"/>
<path d="M40.5408 24.9087C40.4156 24.4423 40.1701 24.0169 39.8288 23.6752C39.4875 23.3335 39.0625 23.0874 38.5962 22.9616C36.8799 22.5 30 22.5 30 22.5C30 22.5 23.1201 22.5 21.4038 22.9592C20.9373 23.0846 20.5121 23.3305 20.1707 23.6723C19.8294 24.0141 19.584 24.4396 19.4592 24.9062C19 26.625 19 30.2098 19 30.2098C19 30.2098 19 33.7946 19.4592 35.5109C19.7121 36.4587 20.4585 37.2051 21.4038 37.458C23.1201 37.9196 30 37.9196 30 37.9196C30 37.9196 36.8799 37.9196 38.5962 37.458C39.544 37.2051 40.2879 36.4587 40.5408 35.5109C41 33.7946 41 30.2098 41 30.2098C41 30.2098 41 26.625 40.5408 24.9087ZM27.8147 33.5V26.9196L33.5112 30.1853L27.8147 33.5Z" fill="white"/>
</svg>
