<svg width="201" height="50" viewBox="0 0 201 50" fill="none" xmlns="http://www.w3.org/2000/svg">
<path fill-rule="evenodd" clip-rule="evenodd" d="M21.865 0.0196305C18.8805 0.248125 16.9695 0.596161 14.7097 1.32261C8.5897 3.29005 3.90082 7.35598 1.62437 12.6696C-1.09219 19.0104 -0.387211 27.2327 3.63252 36.0921C4.97243 39.0455 6.89848 42.3618 8.6713 44.7682C9.28287 45.5982 10.9585 47.2996 11.9486 48.0957C14.6882 50.2984 16.4918 50.5968 17.1514 48.9566C17.3371 48.4946 17.3434 48.3898 17.3631 45.4355C17.3855 42.0568 17.4689 41.2475 17.8855 40.3696C18.6723 38.7111 20.1566 38.2114 23.3093 38.5437C24.9275 38.7143 27.6877 38.7179 29.1823 38.5514C36.4036 37.7473 42.1673 33.97 44.9641 28.2087C45.8423 26.3996 46.5598 24.0509 46.888 21.9104C47.1934 19.9184 47.1402 17.3641 46.7534 15.4451C45.1329 7.40287 37.2818 1.39536 26.8025 0.178716C25.7345 0.05475 22.6884 -0.0433552 21.865 0.0196305ZM29.9527 4.92905C31.2093 5.1945 32.0068 5.8452 32.4762 6.98784L32.6605 7.4365L32.7023 16.4461L32.7443 25.4557L32.9446 25.9562C33.1091 26.3664 33.293 26.6 33.9634 27.2495C35.0152 28.2684 35.1643 28.553 35.1648 29.5436C35.1652 30.4955 34.9541 31.0661 34.3636 31.7102C33.8941 32.2221 33.2302 32.5875 32.3677 32.8082C31.6475 32.9925 30.2443 32.9929 29.5223 32.8089C28.1366 32.4557 27.0202 31.6066 26.4814 30.4966L26.2007 29.9177L25.8321 30.3791C24.0368 32.6255 20.3941 33.5229 16.7296 32.6214C12.7197 31.635 10.083 28.612 9.51318 24.3479C9.36003 23.2018 9.4613 20.9848 9.71596 19.9082C10.8696 15.0322 14.5565 12.3318 19.8146 12.5118C21.7571 12.5783 23.1761 12.9814 24.3016 13.7863L24.9195 14.2282L24.9212 11.3328C24.9221 9.74046 24.9607 8.17478 25.0071 7.85361C25.2273 6.32821 26.2287 5.27159 27.7698 4.93848C28.473 4.78641 29.2616 4.78307 29.9527 4.92905ZM20.1404 18.6109C19.185 18.8736 18.2371 19.663 17.8405 20.5266C17.0309 22.2896 17.3499 24.7252 18.545 25.9041C19.4886 26.8354 20.9762 27.2016 22.5036 26.8789C23.9711 26.5689 24.9443 25.5675 25.2539 24.0489C25.3932 23.3668 25.3723 21.8084 25.2161 21.2207C24.8454 19.8248 24.0062 18.9573 22.6989 18.6179C22.1045 18.4636 20.6904 18.4596 20.1404 18.6109Z" fill="#FF8E66"/>
<path d="M69.15 40.9571V41.7196H59.2375V40.9571H69.15ZM64.7375 41.4196V43.9696H63.7875V41.4196H64.7375ZM67.8625 35.8571V39.6696H60.525V35.8571H67.8625ZM61.4375 36.6071V38.9071H66.9375V36.6071H61.4375ZM68.05 45.2571V46.0321H60.5125V45.2571H68.05ZM61.45 42.8946V45.5196H60.5125V42.8946H61.45ZM73.9879 41.8571V43.6321H73.0504V41.8571H73.9879ZM78.5754 35.3321V46.2696H77.6379V35.3321H78.5754ZM80.3129 39.9946V40.7946H78.2879V39.9946H80.3129ZM70.0504 43.3571C71.4254 43.3571 72.6711 43.3362 73.7879 43.2946C74.9045 43.253 75.9629 43.1612 76.9629 43.0196L77.0379 43.7071C75.9961 43.8987 74.9295 44.0237 73.8379 44.0821C72.7461 44.1321 71.5336 44.1571 70.2004 44.1571L70.0504 43.3571ZM76.7879 36.6696V37.4321H70.2379V36.6696H76.7879ZM73.5254 38.0946C74.0254 38.0946 74.467 38.178 74.8504 38.3446C75.242 38.5112 75.5461 38.7487 75.7629 39.0571C75.9795 39.3655 76.0879 39.7196 76.0879 40.1196C76.0879 40.5196 75.9795 40.8737 75.7629 41.1821C75.5461 41.4821 75.242 41.7155 74.8504 41.8821C74.467 42.0487 74.0211 42.1321 73.5129 42.1321C73.0129 42.1321 72.567 42.0487 72.1754 41.8821C71.792 41.7155 71.492 41.4821 71.2754 41.1821C71.0586 40.8737 70.9504 40.5196 70.9504 40.1196C70.9504 39.7196 71.0586 39.3655 71.2754 39.0571C71.492 38.7487 71.792 38.5112 72.1754 38.3446C72.567 38.178 73.017 38.0946 73.5254 38.0946ZM73.5129 38.8196C73.0129 38.8196 72.6086 38.9405 72.3004 39.1821C71.992 39.4155 71.8379 39.728 71.8379 40.1196C71.8379 40.503 71.992 40.8112 72.3004 41.0446C72.6086 41.278 73.0129 41.3946 73.5129 41.3946C74.0211 41.3946 74.4295 41.278 74.7379 41.0446C75.0461 40.8112 75.2004 40.503 75.2004 40.1196C75.2004 39.728 75.0461 39.4155 74.7379 39.1821C74.4295 38.9405 74.0211 38.8196 73.5129 38.8196ZM73.9879 35.3446V37.1571H73.0504V35.3446H73.9879ZM84.1631 36.0071V37.4946C84.1631 38.0362 84.059 38.5737 83.8506 39.1071C83.6506 39.6321 83.3549 40.1071 82.9631 40.5321C82.5799 40.9571 82.1299 41.2821 81.6131 41.5071L81.1131 40.7821C81.5715 40.5821 81.9756 40.303 82.3256 39.9446C82.6756 39.5862 82.9424 39.1946 83.1256 38.7696C83.3174 38.3362 83.4131 37.9112 83.4131 37.4946V36.0071H84.1631ZM84.3131 36.0071V37.4946C84.3131 37.903 84.4049 38.303 84.5881 38.6946C84.7715 39.0862 85.0299 39.4405 85.3631 39.7571C85.7049 40.0737 86.1006 40.3196 86.5506 40.4946L86.0631 41.2071C85.2881 40.9071 84.6799 40.4155 84.2381 39.7321C83.7965 39.0487 83.5756 38.303 83.5756 37.4946V36.0071H84.3131ZM90.3006 35.3446V42.0946H89.4006V35.3446H90.3006ZM89.7131 38.2946V39.0696H87.6131V38.2946H89.7131ZM87.9381 35.5571V41.7446H87.0506V35.5571H87.9381ZM86.7131 42.3446C87.4631 42.3446 88.109 42.4237 88.6506 42.5821C89.2006 42.7321 89.6215 42.953 89.9131 43.2446C90.2049 43.5362 90.3506 43.8862 90.3506 44.2946C90.3506 44.703 90.2049 45.053 89.9131 45.3446C89.6215 45.6362 89.2006 45.8571 88.6506 46.0071C88.109 46.1655 87.4631 46.2446 86.7131 46.2446C85.9631 46.2446 85.3131 46.1655 84.7631 46.0071C84.2215 45.8571 83.8049 45.6362 83.5131 45.3446C83.2215 45.053 83.0756 44.703 83.0756 44.2946C83.0756 43.8862 83.2215 43.5362 83.5131 43.2446C83.8049 42.953 84.2215 42.7321 84.7631 42.5821C85.3131 42.4237 85.9631 42.3446 86.7131 42.3446ZM86.7131 43.0821C85.8715 43.0821 85.209 43.1905 84.7256 43.4071C84.2424 43.6155 84.0006 43.9112 84.0006 44.2946C84.0006 44.678 84.2424 44.978 84.7256 45.1946C85.209 45.4112 85.8715 45.5196 86.7131 45.5196C87.5549 45.5196 88.2131 45.4112 88.6881 45.1946C89.1715 44.978 89.4131 44.678 89.4131 44.2946C89.4131 43.9112 89.1715 43.6155 88.6881 43.4071C88.2131 43.1905 87.5549 43.0821 86.7131 43.0821ZM100.476 35.3321V41.7821H99.5384V35.3321H100.476ZM102.113 38.1571V38.9446H100.076V38.1571H102.113ZM100.476 42.2946V44.4696H94.3759V45.6571H93.4634V43.8446H99.5634V42.9571H93.4384V42.2946H100.476ZM100.901 45.4696V46.1446H93.4634V45.4696H100.901ZM95.8634 39.8321V41.2071H94.9384V39.8321H95.8634ZM91.9759 40.8196C93.3425 40.8196 94.5843 40.803 95.7009 40.7696C96.8175 40.728 97.8759 40.6362 98.8759 40.4946L98.9384 41.0946C97.905 41.2696 96.83 41.3862 95.7134 41.4446C94.5968 41.4946 93.3884 41.5196 92.0884 41.5196L91.9759 40.8196ZM98.5384 36.1696V36.8571H92.2509V36.1696H98.5384ZM95.3884 37.2196C96.1718 37.2196 96.7884 37.3487 97.2384 37.6071C97.6968 37.8571 97.9259 38.2071 97.9259 38.6571C97.9259 39.1071 97.6968 39.4612 97.2384 39.7196C96.7884 39.9696 96.1718 40.0946 95.3884 40.0946C94.6134 40.0946 93.9968 39.9696 93.5384 39.7196C93.0884 39.4612 92.8634 39.1071 92.8634 38.6571C92.8634 38.2071 93.0884 37.8571 93.5384 37.6071C93.9968 37.3487 94.6134 37.2196 95.3884 37.2196ZM95.3884 37.8446C94.8884 37.8446 94.4884 37.9196 94.1884 38.0696C93.8968 38.2112 93.7509 38.4071 93.7509 38.6571C93.7509 38.9071 93.8968 39.1071 94.1884 39.2571C94.4884 39.3987 94.8884 39.4696 95.3884 39.4696C95.8968 39.4696 96.2968 39.3987 96.5884 39.2571C96.8884 39.1071 97.0384 38.9071 97.0384 38.6571C97.0384 38.4071 96.8884 38.2112 96.5884 38.0696C96.2968 37.9196 95.8968 37.8446 95.3884 37.8446ZM95.8634 35.2196V36.5321H94.9384V35.2196H95.8634ZM115.745 44.0446V44.8321H105.832V44.0446H115.745ZM111.207 41.3696V44.3071H110.282V41.3696H111.207ZM111.082 36.0571V36.9196C111.082 37.6612 110.865 38.353 110.432 38.9946C110.007 39.628 109.453 40.1612 108.77 40.5946C108.086 41.028 107.378 41.3237 106.645 41.4821L106.245 40.6946C106.878 40.578 107.503 40.3362 108.12 39.9696C108.745 39.5946 109.257 39.1405 109.657 38.6071C110.057 38.0655 110.257 37.503 110.257 36.9196V36.0571H111.082ZM111.232 36.0571V36.9196C111.232 37.503 111.432 38.0655 111.832 38.6071C112.24 39.1405 112.753 39.5946 113.37 39.9696C113.995 40.3362 114.624 40.578 115.257 40.6946L114.845 41.4821C114.111 41.3237 113.403 41.028 112.72 40.5946C112.045 40.1612 111.49 39.628 111.057 38.9946C110.632 38.353 110.42 37.6612 110.42 36.9196V36.0571H111.232ZM125.107 36.4821V37.2446H122.595V36.4821H125.107ZM125.107 38.4696V39.2196H122.595V38.4696H125.107ZM125.732 35.3321V41.0696H124.795V35.3321H125.732ZM125.732 41.6196V44.1571H119.657V45.8571H118.732V43.4571H124.807V42.3696H118.72V41.6196H125.732ZM126.145 45.3821V46.1196H118.732V45.3821H126.145ZM120.257 35.6071V36.7696C120.257 37.4196 120.128 38.0321 119.87 38.6071C119.62 39.1821 119.266 39.6862 118.807 40.1196C118.357 40.553 117.841 40.878 117.257 41.0946L116.77 40.3696C117.295 40.178 117.766 39.8987 118.182 39.5321C118.599 39.1655 118.924 38.7446 119.157 38.2696C119.391 37.7862 119.507 37.2862 119.507 36.7696V35.6071H120.257ZM120.42 35.6071V36.7696C120.42 37.253 120.536 37.7196 120.77 38.1696C121.003 38.6196 121.324 39.0196 121.732 39.3696C122.141 39.7112 122.603 39.9737 123.12 40.1571L122.632 40.8821C122.057 40.6655 121.545 40.353 121.095 39.9446C120.645 39.5362 120.295 39.0612 120.045 38.5196C119.795 37.9696 119.67 37.3862 119.67 36.7696V35.6071H120.42ZM136.633 35.3446V42.0821H135.683V35.3446H136.633ZM129.12 40.6071C130.187 40.6071 131.112 40.5821 131.895 40.5321C132.678 40.4821 133.487 40.3905 134.32 40.2571L134.433 41.0321C133.574 41.1655 132.745 41.2571 131.945 41.3071C131.145 41.3571 130.203 41.3821 129.12 41.3821H128.245V40.6071H129.12ZM133.17 36.0321V39.0196H129.158V41.0446H128.245V38.2821H132.258V36.7946H128.22V36.0321H133.17ZM133.045 42.3071C134.187 42.3071 135.083 42.4821 135.733 42.8321C136.383 43.1737 136.708 43.653 136.708 44.2696C136.708 44.8946 136.383 45.378 135.733 45.7196C135.083 46.0696 134.187 46.2446 133.045 46.2446C131.895 46.2446 130.995 46.0696 130.345 45.7196C129.695 45.378 129.37 44.8946 129.37 44.2696C129.37 43.6446 129.695 43.1612 130.345 42.8196C130.995 42.478 131.895 42.3071 133.045 42.3071ZM133.045 43.0571C132.478 43.0571 131.987 43.1071 131.57 43.2071C131.162 43.2987 130.849 43.4362 130.633 43.6196C130.416 43.803 130.308 44.0196 130.308 44.2696C130.308 44.653 130.549 44.9571 131.033 45.1821C131.516 45.3987 132.187 45.5071 133.045 45.5071C133.895 45.5071 134.562 45.3987 135.045 45.1821C135.528 44.9571 135.77 44.653 135.77 44.2696C135.77 44.0196 135.658 43.803 135.433 43.6196C135.216 43.4362 134.903 43.2987 134.495 43.2071C134.087 43.1071 133.603 43.0571 133.045 43.0571ZM139.32 46.7196H138.658L139.033 44.4071H140.008L139.32 46.7196ZM153.594 35.1946V41.0696H152.044V35.1946H153.594ZM155.107 37.5321V38.7946H153.169V37.5321H155.107ZM150.594 35.9446C150.594 37.403 150.153 38.5737 149.269 39.4571C148.394 40.3405 147.098 40.9446 145.382 41.2696L144.769 40.0446C146.169 39.803 147.198 39.403 147.857 38.8446C148.523 38.2862 148.857 37.6362 148.857 36.8946V35.9446H150.594ZM149.832 35.9446V37.1821H145.294V35.9446H149.832ZM153.644 41.5196V42.6571H147.832V45.6946H146.294V41.5196H153.644ZM153.894 45.1446V46.2821H146.294V45.1446H153.894ZM153.532 43.3446V44.4321H147.357V43.3446H153.532ZM164.994 35.1821V46.4196H163.432V35.1821H164.994ZM158.982 35.9821C159.54 35.9821 160.04 36.1446 160.482 36.4696C160.932 36.7946 161.282 37.2612 161.532 37.8696C161.782 38.4696 161.907 39.1696 161.907 39.9696C161.907 40.7696 161.782 41.4737 161.532 42.0821C161.282 42.6905 160.932 43.1571 160.482 43.4821C160.04 43.8071 159.54 43.9696 158.982 43.9696C158.415 43.9696 157.907 43.8071 157.457 43.4821C157.015 43.1571 156.665 42.6946 156.407 42.0946C156.157 41.4862 156.032 40.778 156.032 39.9696C156.032 39.1696 156.157 38.4696 156.407 37.8696C156.665 37.2612 157.015 36.7946 157.457 36.4696C157.907 36.1446 158.415 35.9821 158.982 35.9821ZM158.982 37.3821C158.69 37.3821 158.436 37.4862 158.219 37.6946C158.003 37.8946 157.832 38.1862 157.707 38.5696C157.59 38.953 157.532 39.4196 157.532 39.9696C157.532 40.5196 157.59 40.9905 157.707 41.3821C157.832 41.7737 158.003 42.0696 158.219 42.2696C158.436 42.4696 158.69 42.5696 158.982 42.5696C159.265 42.5696 159.515 42.4696 159.732 42.2696C159.949 42.0696 160.115 41.7737 160.232 41.3821C160.357 40.9905 160.42 40.5196 160.42 39.9696C160.42 39.428 160.357 38.9655 160.232 38.5821C160.115 38.1905 159.949 37.8946 159.732 37.6946C159.515 37.4862 159.265 37.3821 158.982 37.3821ZM178.326 35.1946V40.7946H176.776V35.1946H178.326ZM179.838 37.4446V38.7196H177.901V37.4446H179.838ZM175.301 35.6196C175.301 37.0862 174.851 38.278 173.951 39.1946C173.051 40.1112 171.746 40.7446 170.038 41.0946L169.476 39.8321C170.851 39.5737 171.88 39.153 172.563 38.5696C173.246 37.978 173.588 37.2987 173.588 36.5321V35.6196H175.301ZM174.563 35.6196V36.8571H170.026V35.6196H174.563ZM178.326 41.2446V44.3071H172.513V45.6946H170.976V43.1571H176.801V42.4446H170.963V41.2446H178.326ZM178.663 45.0821V46.2946H170.976V45.0821H178.663ZM181.552 42.6321C182.318 42.6321 182.996 42.6155 183.589 42.5821C184.189 42.5487 184.809 42.4821 185.452 42.3821L185.564 43.6321C184.905 43.7405 184.271 43.8155 183.664 43.8571C183.055 43.8905 182.352 43.9071 181.552 43.9071H180.764V42.6321H181.552ZM184.977 36.2946V40.5946H182.264V43.0946H180.764V39.3696H183.489V37.5446H180.752V36.2946H184.977ZM190.052 35.1946V46.3946H188.577V35.1946H190.052ZM188.939 39.4571V40.6946H187.052V39.4571H188.939ZM187.514 35.4071V45.8571H186.077V35.4071H187.514ZM193.477 42.8321C193.477 42.3321 193.534 41.9112 193.652 41.5696C193.768 41.2196 193.909 40.9405 194.077 40.7321C194.252 40.5237 194.471 40.3196 194.739 40.1196L194.814 40.0571L195.052 39.8821C195.309 39.6737 195.514 39.4612 195.664 39.2446C195.814 39.028 195.889 38.7987 195.889 38.5571C195.889 38.0905 195.743 37.7321 195.452 37.4821C195.168 37.2321 194.789 37.1071 194.314 37.1071C193.98 37.1071 193.693 37.2112 193.452 37.4196C193.218 37.628 193.046 37.9446 192.939 38.3696L191.414 38.0071C191.539 37.5237 191.746 37.0946 192.039 36.7196C192.339 36.3446 192.689 36.0571 193.089 35.8571C193.489 35.6571 193.896 35.5571 194.314 35.5571C194.846 35.5571 195.352 35.6862 195.827 35.9446C196.309 36.1946 196.702 36.5487 197.002 37.0071C197.302 37.4655 197.452 37.9821 197.452 38.5571C197.452 39.0571 197.318 39.5196 197.052 39.9446C196.784 40.3612 196.452 40.7405 196.052 41.0821L195.739 41.3196L195.614 41.4196C195.439 41.5446 195.314 41.6612 195.239 41.7696C195.164 41.878 195.109 42.0071 195.077 42.1571C195.052 42.3071 195.039 42.5321 195.039 42.8321H193.477ZM194.277 43.9696C194.527 43.9696 194.721 44.0487 194.864 44.2071C195.014 44.3655 195.089 44.5612 195.089 44.7946C195.089 45.028 195.014 45.2196 194.864 45.3696C194.721 45.528 194.527 45.6071 194.277 45.6071C194.018 45.6071 193.814 45.528 193.664 45.3696C193.521 45.2196 193.452 45.028 193.452 44.7946C193.452 44.553 193.521 44.3571 193.664 44.2071C193.814 44.0487 194.018 43.9696 194.277 43.9696Z" fill="#FF8E66"/>
<path d="M66.3214 21.3838C67.4107 21.3838 68.4196 21.1159 69.3482 20.5802C70.2768 20.0266 71.0178 19.2856 71.5714 18.357C72.125 17.4284 72.4018 16.4195 72.4018 15.3302C72.4018 14.2409 72.125 13.232 71.5714 12.3034C71.0178 11.3748 70.2768 10.6427 69.3482 10.107C68.4196 9.55342 67.4107 9.27663 66.3214 9.27663H63.6696V21.3838H66.3214ZM66.4018 5.17842C68.2232 5.17842 69.9107 5.63378 71.4643 6.54449C73.0178 7.4552 74.25 8.68735 75.1607 10.2409C76.0714 11.7945 76.5268 13.4909 76.5268 15.3302C76.5268 17.1695 76.0714 18.8659 75.1607 20.4195C74.25 21.9731 73.0178 23.2052 71.4643 24.1159C69.9107 25.0266 68.2232 25.482 66.4018 25.482H59.5714V5.17842H66.4018ZM92.703 9.19628H82.3369V13.0266H91.8191V17.0713H82.3369V21.4373H92.703V25.482H78.3191V5.17842H92.703V9.19628ZM105.214 25.9373C104.072 26.1159 102.964 26.0891 101.893 25.857C100.839 25.6427 99.768 25.2409 98.6787 24.6516C97.7144 24.0981 96.9287 23.4463 96.3216 22.6963C95.7144 21.9463 95.3037 21.2766 95.0894 20.6873L98.8394 19.2945C98.9287 19.5445 99.1162 19.8302 99.4019 20.1516C99.6877 20.4731 100.081 20.7766 100.581 21.0623C101.384 21.4909 102.089 21.7677 102.697 21.8927C103.304 21.9998 104.009 21.9909 104.813 21.8659C105.045 21.8123 105.304 21.7409 105.589 21.6516C105.893 21.5623 106.188 21.4552 106.473 21.3302C106.759 21.1873 106.991 21.0356 107.17 20.8748C107.348 20.6963 107.482 20.5177 107.572 20.3391C107.714 20.0891 107.768 19.8034 107.732 19.482C107.697 19.1606 107.572 18.8838 107.357 18.6516C107.161 18.4552 106.759 18.2498 106.152 18.0356C105.563 17.8213 104.572 17.5356 103.179 17.1784L101.706 16.8034C100.598 16.5177 99.6787 16.1338 98.9466 15.6516C98.5716 15.4016 98.2323 15.1427 97.9287 14.8748C97.643 14.5891 97.4466 14.3748 97.3394 14.232C96.768 13.4998 96.393 12.5802 96.2144 11.4731C96.0537 10.3659 96.143 9.40163 96.4823 8.5802C96.9109 7.4552 97.6162 6.56235 98.5984 5.90163C99.5984 5.22306 100.661 4.81235 101.786 4.66949C102.804 4.54449 103.902 4.57128 105.081 4.74985C106.259 4.92842 107.384 5.32128 108.456 5.92842C109.331 6.39271 110.036 6.91949 110.572 7.50878L107.518 10.1873C107.322 9.97306 106.991 9.74985 106.527 9.5177C105.831 9.12485 105.125 8.87485 104.411 8.7677C103.714 8.6427 103.009 8.61592 102.295 8.68735C101.777 8.75878 101.339 8.91056 100.982 9.1427C100.625 9.35699 100.375 9.68735 100.232 10.1338C100.161 10.3481 100.134 10.5891 100.152 10.857C100.188 11.1248 100.304 11.3927 100.5 11.6606C100.75 11.982 101 12.2052 101.25 12.3302C101.411 12.4195 101.598 12.4998 101.813 12.5713C102.027 12.6427 102.313 12.7231 102.67 12.8123C102.67 12.8302 102.688 12.8391 102.723 12.8391L104.116 13.2141C105.831 13.6784 107.134 14.1159 108.027 14.5266C108.938 14.9373 109.652 15.3659 110.17 15.8123C110.634 16.2231 111.009 16.7409 111.295 17.3659C111.598 17.9909 111.75 18.6873 111.75 19.4552C111.768 20.2231 111.607 20.9998 111.268 21.7856C111 22.4106 110.607 23.0088 110.089 23.5802C109.589 24.1516 108.964 24.6248 108.214 24.9998C107.679 25.232 107.152 25.4284 106.634 25.5891C106.116 25.7677 105.643 25.8838 105.214 25.9373ZM123.66 21.6248C124.91 21.6248 126.008 21.3481 126.954 20.7945C127.901 20.2409 128.624 19.4909 129.124 18.5445C129.642 17.5802 129.901 16.5088 129.901 15.3302C129.901 14.1695 129.642 13.1159 129.124 12.1695C128.624 11.2052 127.901 10.4463 126.954 9.8927C126.008 9.33913 124.91 9.06235 123.66 9.06235C122.41 9.06235 121.311 9.33913 120.365 9.8927C119.419 10.4463 118.686 11.2052 118.169 12.1695C117.669 13.1159 117.419 14.1695 117.419 15.3302C117.419 16.5088 117.669 17.5802 118.169 18.5445C118.686 19.4909 119.419 20.2409 120.365 20.7945C121.311 21.3481 122.41 21.6248 123.66 21.6248ZM123.66 4.96413C125.642 4.96413 127.41 5.42842 128.963 6.35699C130.535 7.28556 131.758 8.54449 132.633 10.1338C133.508 11.7052 133.945 13.4373 133.945 15.3302C133.945 17.2231 133.508 18.9641 132.633 20.5534C131.758 22.1248 130.535 23.3748 128.963 24.3034C127.41 25.232 125.642 25.6963 123.66 25.6963C121.677 25.6963 119.901 25.232 118.329 24.3034C116.776 23.3748 115.561 22.1248 114.686 20.5534C113.811 18.9641 113.374 17.2231 113.374 15.3302C113.374 13.4373 113.811 11.7052 114.686 10.1338C115.561 8.54449 116.776 7.28556 118.329 6.35699C119.901 5.42842 121.677 4.96413 123.66 4.96413ZM164.328 25.482H160.043L158.007 20.5266H149.194L147.159 25.482H142.873L151.337 5.17842H155.864L164.328 25.482ZM156.319 16.5088L153.721 10.0534L150.909 16.5088H156.319ZM175.794 15.1963C176.312 15.1963 176.785 15.0623 177.214 14.7945C177.66 14.5266 178.008 14.1695 178.258 13.7231C178.526 13.2766 178.661 12.7945 178.661 12.2766C178.661 11.7588 178.526 11.2856 178.258 10.857C178.008 10.4106 177.66 10.0623 177.214 9.81235C176.785 9.54449 176.312 9.41056 175.794 9.41056H170.758V15.1963H175.794ZM175.66 5.17842C176.946 5.17842 178.124 5.49985 179.196 6.14271C180.286 6.76771 181.143 7.62485 181.768 8.71413C182.411 9.80342 182.732 10.9909 182.732 12.2766C182.732 13.5445 182.411 14.7231 181.768 15.8123C181.143 16.9016 180.286 17.7677 179.196 18.4106C178.124 19.0534 176.946 19.3748 175.66 19.3748H170.758V25.482H166.714V5.17842H175.66ZM193.948 15.1963C194.466 15.1963 194.939 15.0623 195.368 14.7945C195.814 14.5266 196.162 14.1695 196.412 13.7231C196.68 13.2766 196.814 12.7945 196.814 12.2766C196.814 11.7588 196.68 11.2856 196.412 10.857C196.162 10.4106 195.814 10.0623 195.368 9.81235C194.939 9.54449 194.466 9.41056 193.948 9.41056H188.912V15.1963H193.948ZM193.814 5.17842C195.1 5.17842 196.279 5.49985 197.35 6.14271C198.439 6.76771 199.296 7.62485 199.921 8.71413C200.564 9.80342 200.886 10.9909 200.886 12.2766C200.886 13.5445 200.564 14.7231 199.921 15.8123C199.296 16.9016 198.439 17.7677 197.35 18.4106C196.279 19.0534 195.1 19.3748 193.814 19.3748H188.912V25.482H184.868V5.17842H193.814Z" fill="#FF8E66"/>
</svg>
