<svg width="354" height="48" viewBox="0 0 354 48" fill="none" xmlns="http://www.w3.org/2000/svg">
<path d="M24.6793 18.64C24.6793 18.8267 24.586 18.92 24.3993 18.92H23.5793C23.3926 18.92 23.2993 18.8267 23.2993 18.64V0.759999C23.2993 0.573333 23.3926 0.479999 23.5793 0.479999H24.3993C24.586 0.479999 24.6793 0.573333 24.6793 0.759999V8.04H27.4393C27.5193 8.04 27.586 8.06667 27.6393 8.12C27.706 8.16 27.7393 8.22 27.7393 8.3V8.98C27.7393 9.04667 27.706 9.10667 27.6393 9.16C27.586 9.21333 27.5193 9.24 27.4393 9.24H24.6793V18.64ZM12.8993 11.62C12.8993 11.82 12.9326 11.9533 12.9993 12.02C13.066 12.0867 13.1926 12.1267 13.3793 12.14C14.6593 12.18 15.9926 12.1267 17.3793 11.98C18.766 11.82 20.086 11.62 21.3393 11.38C21.566 11.3267 21.6993 11.4067 21.7393 11.62L21.8393 12.18C21.8793 12.3667 21.7926 12.4867 21.5793 12.54C21.086 12.66 20.4793 12.7733 19.7593 12.88C19.0526 12.9867 18.306 13.08 17.5193 13.16C16.7326 13.24 15.946 13.3 15.1593 13.34C14.386 13.38 13.6993 13.3933 13.0993 13.38C12.4993 13.3667 12.086 13.2267 11.8593 12.96C11.6326 12.6933 11.5193 12.28 11.5193 11.72V1.88C11.5193 1.69333 11.6126 1.6 11.7993 1.6H12.6193C12.806 1.6 12.8993 1.69333 12.8993 1.88V11.62ZM39.5079 8.1C39.5079 8.84667 39.4146 9.6 39.2279 10.36C39.0546 11.12 38.7746 11.8067 38.3879 12.42C38.0012 13.0333 37.5012 13.54 36.8879 13.94C36.2879 14.3267 35.5612 14.52 34.7079 14.52C33.8279 14.52 33.0812 14.3267 32.4679 13.94C31.8679 13.5533 31.3812 13.0533 31.0079 12.44C30.6479 11.8133 30.3879 11.12 30.2279 10.36C30.0679 9.6 29.9879 8.84667 29.9879 8.1C29.9879 7.31333 30.0679 6.54 30.2279 5.78C30.3879 5.00667 30.6479 4.31333 31.0079 3.7C31.3812 3.08667 31.8679 2.59333 32.4679 2.22C33.0812 1.84667 33.8279 1.66 34.7079 1.66C35.5612 1.66 36.2879 1.84667 36.8879 2.22C37.5012 2.59333 38.0012 3.08667 38.3879 3.7C38.7746 4.3 39.0546 4.98667 39.2279 5.76C39.4146 6.52 39.5079 7.3 39.5079 8.1ZM38.0879 8.08C38.0879 7.46667 38.0212 6.84667 37.8879 6.22C37.7679 5.59333 37.5746 5.03333 37.3079 4.54C37.0412 4.03333 36.6946 3.62667 36.2679 3.32C35.8412 3 35.3212 2.84 34.7079 2.84C34.0679 2.84 33.5346 3 33.1079 3.32C32.6946 3.62667 32.3612 4.03333 32.1079 4.54C31.8546 5.03333 31.6746 5.59333 31.5679 6.22C31.4612 6.84667 31.4079 7.46667 31.4079 8.08C31.4079 8.66667 31.4546 9.27333 31.5479 9.9C31.6546 10.5133 31.8346 11.08 32.0879 11.6C32.3412 12.1067 32.6812 12.5267 33.1079 12.86C33.5346 13.18 34.0679 13.34 34.7079 13.34C35.3212 13.34 35.8412 13.18 36.2679 12.86C36.6946 12.5267 37.0412 12.1067 37.3079 11.6C37.5746 11.08 37.7679 10.5133 37.8879 9.9C38.0212 9.27333 38.0879 8.66667 38.0879 8.08ZM44.1879 18.64C44.1879 18.8267 44.0946 18.92 43.9079 18.92H43.0879C42.9012 18.92 42.8079 18.8267 42.8079 18.64V0.759999C42.8079 0.573333 42.9012 0.479999 43.0879 0.479999H43.9079C44.0946 0.479999 44.1879 0.573333 44.1879 0.759999V18.64ZM62.562 6.08C62.3353 6.68 62.0553 7.26 61.722 7.82C61.402 8.38 61.0286 8.92667 60.602 9.46C60.8553 9.78 61.1486 10.1067 61.482 10.44C61.8153 10.7733 62.1553 11.0867 62.502 11.38C62.8486 11.6733 63.1953 11.94 63.542 12.18C63.902 12.42 64.242 12.62 64.562 12.78C64.7086 12.86 64.7353 12.98 64.642 13.14L64.262 13.8C64.1686 13.96 64.0353 13.9867 63.862 13.88C63.542 13.6933 63.202 13.4733 62.842 13.22C62.482 12.9533 62.122 12.6667 61.762 12.36C61.4153 12.0533 61.0686 11.7333 60.722 11.4C60.3886 11.0667 60.0753 10.7333 59.782 10.4C59.0486 11.1867 58.2286 11.9067 57.322 12.56C56.4153 13.2133 55.4486 13.7867 54.422 14.28C54.2353 14.3733 54.1086 14.3533 54.042 14.22L53.662 13.56C53.622 13.4933 53.6153 13.4267 53.642 13.36C53.682 13.28 53.7353 13.2267 53.802 13.2C55.4153 12.4267 56.8286 11.46 58.042 10.3C59.2686 9.14 60.2686 7.76 61.042 6.16C61.1353 5.97333 61.1486 5.84 61.082 5.76C61.0153 5.68 60.8886 5.64 60.702 5.64H54.642C54.482 5.64 54.402 5.55333 54.402 5.38V4.68C54.402 4.52 54.4953 4.44 54.682 4.44H61.242C61.9353 4.44 62.382 4.56667 62.582 4.82C62.7953 5.06 62.7886 5.48 62.562 6.08ZM67.902 18.64C67.902 18.8267 67.8086 18.92 67.622 18.92H66.802C66.6153 18.92 66.522 18.8267 66.522 18.64V0.759999C66.522 0.573333 66.6153 0.479999 66.802 0.479999H67.622C67.8086 0.479999 67.902 0.573333 67.902 0.759999V8.04H70.662C70.742 8.04 70.8086 8.06667 70.862 8.12C70.9286 8.16 70.962 8.22 70.962 8.3V8.98C70.962 9.04667 70.9286 9.10667 70.862 9.16C70.8086 9.21333 70.742 9.24 70.662 9.24H67.902V18.64ZM61.222 1.4C61.422 1.4 61.522 1.49333 61.522 1.68V2.32C61.522 2.52 61.422 2.62 61.222 2.62H56.282C56.082 2.62 55.982 2.52 55.982 2.32V1.68C55.982 1.49333 56.082 1.4 56.282 1.4H61.222ZM82.7305 8.1C82.7305 8.84667 82.6372 9.6 82.4505 10.36C82.2772 11.12 81.9972 11.8067 81.6105 12.42C81.2239 13.0333 80.7239 13.54 80.1105 13.94C79.5105 14.3267 78.7839 14.52 77.9305 14.52C77.0505 14.52 76.3039 14.3267 75.6905 13.94C75.0905 13.5533 74.6039 13.0533 74.2305 12.44C73.8705 11.8133 73.6105 11.12 73.4505 10.36C73.2905 9.6 73.2105 8.84667 73.2105 8.1C73.2105 7.31333 73.2905 6.54 73.4505 5.78C73.6105 5.00667 73.8705 4.31333 74.2305 3.7C74.6039 3.08667 75.0905 2.59333 75.6905 2.22C76.3039 1.84667 77.0505 1.66 77.9305 1.66C78.7839 1.66 79.5105 1.84667 80.1105 2.22C80.7239 2.59333 81.2239 3.08667 81.6105 3.7C81.9972 4.3 82.2772 4.98667 82.4505 5.76C82.6372 6.52 82.7305 7.3 82.7305 8.1ZM81.3105 8.08C81.3105 7.46667 81.2439 6.84667 81.1105 6.22C80.9905 5.59333 80.7972 5.03333 80.5305 4.54C80.2639 4.03333 79.9172 3.62667 79.4905 3.32C79.0639 3 78.5439 2.84 77.9305 2.84C77.2905 2.84 76.7572 3 76.3305 3.32C75.9172 3.62667 75.5839 4.03333 75.3305 4.54C75.0772 5.03333 74.8972 5.59333 74.7905 6.22C74.6839 6.84667 74.6305 7.46667 74.6305 8.08C74.6305 8.66667 74.6772 9.27333 74.7705 9.9C74.8772 10.5133 75.0572 11.08 75.3105 11.6C75.5639 12.1067 75.9039 12.5267 76.3305 12.86C76.7572 13.18 77.2905 13.34 77.9305 13.34C78.5439 13.34 79.0639 13.18 79.4905 12.86C79.9172 12.5267 80.2639 12.1067 80.5305 11.6C80.7972 11.08 80.9905 10.5133 81.1105 9.9C81.2439 9.27333 81.3105 8.66667 81.3105 8.08ZM87.4105 18.64C87.4105 18.8267 87.3172 18.92 87.1305 18.92H86.3105C86.1239 18.92 86.0305 18.8267 86.0305 18.64V0.759999C86.0305 0.573333 86.1239 0.479999 86.3105 0.479999H87.1305C87.3172 0.479999 87.4105 0.573333 87.4105 0.759999V18.64ZM97.8446 2.74C97.8446 2.18 97.9513 1.80667 98.1646 1.62C98.3779 1.42 98.7779 1.32 99.3646 1.32H104.865C105.185 1.32 105.438 1.34 105.625 1.38C105.825 1.42 105.978 1.49333 106.085 1.6C106.205 1.70667 106.285 1.85333 106.325 2.04C106.365 2.22667 106.385 2.46 106.385 2.74V8.44C106.385 9 106.278 9.38 106.065 9.58C105.851 9.76667 105.451 9.86 104.865 9.86H99.3646C99.0446 9.86 98.7846 9.84 98.5846 9.8C98.3979 9.76 98.2446 9.68667 98.1246 9.58C98.0179 9.46 97.9446 9.31333 97.9046 9.14C97.8646 8.95333 97.8446 8.72 97.8446 8.44V2.74ZM99.7046 2.52C99.5179 2.52 99.3913 2.56 99.3246 2.64C99.2579 2.70667 99.2246 2.84 99.2246 3.04V8.14C99.2246 8.34 99.2579 8.48 99.3246 8.56C99.3913 8.62667 99.5179 8.66 99.7046 8.66H104.525C104.711 8.66 104.838 8.62667 104.905 8.56C104.971 8.48 105.005 8.34 105.005 8.14V3.04C105.005 2.84 104.971 2.70667 104.905 2.64C104.838 2.56 104.711 2.52 104.525 2.52H99.7046ZM111.985 16.8C111.985 17.1467 111.905 17.4667 111.745 17.76C111.598 18.0533 111.385 18.3067 111.105 18.52C110.825 18.7333 110.491 18.9 110.105 19.02C109.718 19.1533 109.285 19.22 108.805 19.22C108.325 19.22 107.891 19.1533 107.505 19.02C107.118 18.9 106.785 18.7267 106.505 18.5C106.225 18.2867 106.011 18.0333 105.865 17.74C105.718 17.4467 105.645 17.1333 105.645 16.8C105.645 16.4667 105.718 16.1533 105.865 15.86C106.011 15.5667 106.225 15.3133 106.505 15.1C106.785 14.8867 107.118 14.72 107.505 14.6C107.891 14.4667 108.325 14.4 108.805 14.4C109.285 14.4 109.718 14.4667 110.105 14.6C110.491 14.72 110.825 14.8933 111.105 15.12C111.385 15.3333 111.598 15.5867 111.745 15.88C111.905 16.16 111.985 16.4667 111.985 16.8ZM111.125 9.58C111.125 9.78 111.031 9.88 110.845 9.88H110.025C109.838 9.88 109.745 9.78 109.745 9.58V0.759999C109.745 0.573333 109.838 0.479999 110.025 0.479999H110.845C111.031 0.479999 111.125 0.573333 111.125 0.759999V5.4H113.885C113.965 5.4 114.031 5.42667 114.085 5.48C114.151 5.52 114.185 5.58 114.185 5.66V6.34C114.185 6.40667 114.151 6.46667 114.085 6.52C114.031 6.57333 113.965 6.6 113.885 6.6H111.125V9.58ZM105.425 18.24C105.438 18.3733 105.351 18.4667 105.165 18.52C105.098 18.5467 104.998 18.5667 104.865 18.58C104.731 18.6067 104.591 18.6267 104.445 18.64C104.298 18.6533 104.158 18.6667 104.025 18.68C103.891 18.6933 103.785 18.7 103.705 18.7C103.518 18.7133 103.298 18.72 103.045 18.72C102.791 18.7333 102.525 18.74 102.245 18.74C101.965 18.7533 101.685 18.76 101.405 18.76C101.138 18.76 100.898 18.76 100.685 18.76C100.058 18.76 99.6446 18.64 99.4446 18.4C99.2579 18.1733 99.1646 17.7867 99.1646 17.24V12.3C99.1646 12.1133 99.2579 12.02 99.4446 12.02H100.265C100.451 12.02 100.545 12.1133 100.545 12.3V17.14C100.545 17.3267 100.571 17.44 100.625 17.48C100.691 17.5333 100.818 17.56 101.005 17.56C101.178 17.56 101.391 17.56 101.645 17.56C101.898 17.56 102.151 17.5533 102.405 17.54C102.671 17.54 102.925 17.5333 103.165 17.52C103.405 17.52 103.605 17.5133 103.765 17.5C103.951 17.4867 104.171 17.46 104.425 17.42C104.678 17.3933 104.871 17.36 105.005 17.32C105.191 17.28 105.298 17.3467 105.325 17.52L105.425 18.24ZM112.545 13.64C112.545 13.7733 112.471 13.84 112.325 13.84H105.045C105.005 13.84 104.958 13.8267 104.905 13.8C104.865 13.76 104.845 13.7067 104.845 13.64V12.88C104.845 12.8133 104.865 12.7667 104.905 12.74C104.958 12.7 105.005 12.68 105.045 12.68H112.325C112.471 12.68 112.545 12.74 112.545 12.86V13.64ZM110.665 16.84C110.665 16.4533 110.505 16.1267 110.185 15.86C109.865 15.58 109.405 15.44 108.805 15.44C108.205 15.44 107.738 15.5733 107.405 15.84C107.085 16.1067 106.925 16.44 106.925 16.84C106.925 17.2267 107.085 17.5467 107.405 17.8C107.738 18.0533 108.205 18.18 108.805 18.18C109.405 18.18 109.865 18.0533 110.185 17.8C110.505 17.5467 110.665 17.2267 110.665 16.84ZM111.065 11.6C111.065 11.7467 110.985 11.82 110.825 11.82H106.625C106.585 11.82 106.538 11.8067 106.485 11.78C106.445 11.74 106.425 11.6867 106.425 11.62V10.88C106.425 10.7333 106.491 10.66 106.625 10.66H110.825C110.985 10.66 111.065 10.7333 111.065 10.88V11.6ZM125.953 8.1C125.953 8.84667 125.86 9.6 125.673 10.36C125.5 11.12 125.22 11.8067 124.833 12.42C124.447 13.0333 123.947 13.54 123.333 13.94C122.733 14.3267 122.007 14.52 121.153 14.52C120.273 14.52 119.527 14.3267 118.913 13.94C118.313 13.5533 117.827 13.0533 117.453 12.44C117.093 11.8133 116.833 11.12 116.673 10.36C116.513 9.6 116.433 8.84667 116.433 8.1C116.433 7.31333 116.513 6.54 116.673 5.78C116.833 5.00667 117.093 4.31333 117.453 3.7C117.827 3.08667 118.313 2.59333 118.913 2.22C119.527 1.84667 120.273 1.66 121.153 1.66C122.007 1.66 122.733 1.84667 123.333 2.22C123.947 2.59333 124.447 3.08667 124.833 3.7C125.22 4.3 125.5 4.98667 125.673 5.76C125.86 6.52 125.953 7.3 125.953 8.1ZM124.533 8.08C124.533 7.46667 124.467 6.84667 124.333 6.22C124.213 5.59333 124.02 5.03333 123.753 4.54C123.487 4.03333 123.14 3.62667 122.713 3.32C122.287 3 121.767 2.84 121.153 2.84C120.513 2.84 119.98 3 119.553 3.32C119.14 3.62667 118.807 4.03333 118.553 4.54C118.3 5.03333 118.12 5.59333 118.013 6.22C117.907 6.84667 117.853 7.46667 117.853 8.08C117.853 8.66667 117.9 9.27333 117.993 9.9C118.1 10.5133 118.28 11.08 118.533 11.6C118.787 12.1067 119.127 12.5267 119.553 12.86C119.98 13.18 120.513 13.34 121.153 13.34C121.767 13.34 122.287 13.18 122.713 12.86C123.14 12.5267 123.487 12.1067 123.753 11.6C124.02 11.08 124.213 10.5133 124.333 9.9C124.467 9.27333 124.533 8.66667 124.533 8.08ZM130.633 18.64C130.633 18.8267 130.54 18.92 130.353 18.92H129.533C129.347 18.92 129.253 18.8267 129.253 18.64V0.759999C129.253 0.573333 129.347 0.479999 129.533 0.479999H130.353C130.54 0.479999 130.633 0.573333 130.633 0.759999V18.64ZM148.742 18.64C148.742 18.8267 148.648 18.92 148.462 18.92H147.642C147.455 18.92 147.362 18.8267 147.362 18.64V0.759999C147.362 0.573333 147.455 0.479999 147.642 0.479999H148.462C148.648 0.479999 148.742 0.573333 148.742 0.759999V8.04H151.502C151.582 8.04 151.648 8.06667 151.702 8.12C151.768 8.16 151.802 8.22 151.802 8.3V8.98C151.802 9.04667 151.768 9.10667 151.702 9.16C151.648 9.21333 151.582 9.24 151.502 9.24H148.742V18.64ZM136.962 11.62C136.962 11.82 136.995 11.9533 137.062 12.02C137.128 12.0867 137.255 12.1267 137.442 12.14C138.722 12.18 140.055 12.1267 141.442 11.98C142.828 11.82 144.148 11.62 145.402 11.38C145.628 11.3267 145.762 11.4067 145.802 11.62L145.902 12.18C145.942 12.3667 145.855 12.4867 145.642 12.54C145.148 12.66 144.542 12.7733 143.822 12.88C143.115 12.9867 142.368 13.08 141.582 13.16C140.795 13.24 140.008 13.3 139.222 13.34C138.448 13.38 137.762 13.3933 137.162 13.38C136.562 13.3667 136.148 13.2267 135.922 12.96C135.695 12.6933 135.582 12.28 135.582 11.72V1.88C135.582 1.69333 135.675 1.6 135.862 1.6H136.682C136.868 1.6 136.962 1.69333 136.962 1.88V11.62ZM168.25 18.64C168.25 18.8267 168.157 18.92 167.97 18.92H167.15C166.964 18.92 166.87 18.8267 166.87 18.64V8.2H162.49C162.317 8.2 162.23 8.12 162.23 7.96V7.24C162.23 7.08 162.317 7 162.49 7H166.87V0.759999C166.87 0.573333 166.964 0.479999 167.15 0.479999H167.97C168.157 0.479999 168.25 0.573333 168.25 0.759999V18.64ZM159.41 1.78C159.41 2.66 159.37 3.50667 159.29 4.32C159.224 5.12 159.11 5.89333 158.95 6.64C159.084 7.17333 159.29 7.74 159.57 8.34C159.85 8.92667 160.177 9.51333 160.55 10.1C160.937 10.6867 161.364 11.26 161.83 11.82C162.31 12.3667 162.817 12.86 163.35 13.3C163.417 13.3533 163.45 13.42 163.45 13.5C163.464 13.58 163.45 13.6467 163.41 13.7L162.91 14.32C162.79 14.4667 162.65 14.4667 162.49 14.32C162.117 14 161.73 13.62 161.33 13.18C160.944 12.7267 160.564 12.2533 160.19 11.76C159.83 11.2667 159.49 10.76 159.17 10.24C158.85 9.72 158.577 9.22 158.35 8.74C157.924 9.95333 157.364 11.0733 156.67 12.1C155.977 13.1133 155.15 14.06 154.19 14.94C154.057 15.0467 153.944 15.0533 153.85 14.96L153.25 14.34C153.21 14.3 153.19 14.2467 153.19 14.18C153.204 14.1133 153.244 14.0467 153.31 13.98C154.124 13.2067 154.83 12.3933 155.43 11.54C156.03 10.6867 156.517 9.76667 156.89 8.78C157.277 7.79333 157.557 6.72 157.73 5.56C157.917 4.4 158.01 3.12667 158.01 1.74C158.01 1.64667 158.03 1.58 158.07 1.54C158.124 1.48667 158.184 1.46 158.25 1.46L159.19 1.5C159.337 1.5 159.41 1.59333 159.41 1.78ZM183.004 14.56C182.244 14.56 181.558 14.4 180.944 14.08C180.344 13.7467 179.831 13.2933 179.404 12.72C178.991 12.1333 178.671 11.4333 178.444 10.62C178.218 9.80667 178.104 8.91333 178.104 7.94C178.104 6.94 178.218 6.03333 178.444 5.22C178.671 4.40667 178.991 3.71333 179.404 3.14C179.831 2.56667 180.344 2.12667 180.944 1.82C181.558 1.5 182.244 1.34 183.004 1.34C183.711 1.34 184.351 1.47333 184.924 1.74C185.498 2.00667 185.991 2.38667 186.404 2.88C186.831 3.36 187.171 3.94667 187.424 4.64C187.678 5.33333 187.838 6.10667 187.904 6.96H190.884V0.419999C190.884 0.246665 190.971 0.159999 191.144 0.159999H192.924C193.098 0.159999 193.184 0.246665 193.184 0.419999V18.88C193.184 19.0533 193.098 19.14 192.924 19.14H191.144C190.971 19.14 190.884 19.0533 190.884 18.88V8.88H187.904C187.838 9.74667 187.678 10.5333 187.424 11.24C187.171 11.9333 186.831 12.5267 186.404 13.02C185.991 13.5133 185.498 13.8933 184.924 14.16C184.351 14.4267 183.711 14.56 183.004 14.56ZM185.684 7.94C185.684 7.32667 185.624 6.74667 185.504 6.2C185.384 5.64 185.211 5.15333 184.984 4.74C184.758 4.32667 184.478 4 184.144 3.76C183.811 3.50667 183.431 3.38 183.004 3.38C182.591 3.38 182.218 3.50667 181.884 3.76C181.564 4 181.291 4.32667 181.064 4.74C180.838 5.15333 180.664 5.64 180.544 6.2C180.424 6.74667 180.364 7.32667 180.364 7.94C180.364 8.54 180.424 9.12 180.544 9.68C180.664 10.2267 180.838 10.7133 181.064 11.14C181.291 11.5533 181.564 11.8867 181.884 12.14C182.218 12.3933 182.591 12.52 183.004 12.52C183.431 12.52 183.811 12.3933 184.144 12.14C184.478 11.8867 184.758 11.5533 184.984 11.14C185.211 10.7133 185.384 10.2267 185.504 9.68C185.624 9.12 185.684 8.54 185.684 7.94ZM210.453 0.419999C210.453 0.246665 210.546 0.159999 210.733 0.159999H212.453C212.626 0.159999 212.713 0.246665 212.713 0.419999V11.04C212.713 11.2267 212.626 11.32 212.453 11.32H210.713C210.54 11.32 210.453 11.2267 210.453 11.04V6.8H208.653V10.9C208.653 11.0867 208.566 11.18 208.393 11.18H206.753C206.566 11.18 206.473 11.0867 206.473 10.9V0.74C206.473 0.566666 206.566 0.479999 206.753 0.479999H208.393C208.566 0.479999 208.653 0.566666 208.653 0.74V4.88H210.453V0.419999ZM212.713 18.82C212.713 18.8867 212.68 18.9467 212.613 19C212.56 19.0667 212.5 19.1 212.433 19.1H210.713C210.633 19.1 210.56 19.0667 210.493 19C210.44 18.9467 210.413 18.8867 210.413 18.82V14.48C210.413 14.3333 210.386 14.24 210.333 14.2C210.28 14.16 210.186 14.14 210.053 14.14H200.093C200.026 14.14 199.96 14.12 199.893 14.08C199.84 14.0267 199.813 13.9667 199.813 13.9V12.48C199.813 12.4 199.84 12.34 199.893 12.3C199.96 12.26 200.026 12.24 200.093 12.24H211.393C211.9 12.24 212.246 12.3467 212.433 12.56C212.62 12.76 212.713 13.1133 212.713 13.62V18.82ZM197.553 10.66C197.446 10.7267 197.333 10.7667 197.213 10.78C197.093 10.78 196.986 10.7267 196.893 10.62L196.153 9.76C195.953 9.53333 195.98 9.32667 196.233 9.14C197.006 8.58 197.646 8 198.153 7.4C198.66 6.8 199.06 6.17333 199.353 5.52C199.66 4.86667 199.873 4.18 199.993 3.46C200.113 2.74 200.173 1.98667 200.173 1.2C200.173 1.10667 200.2 1.02667 200.253 0.959999C200.32 0.893332 200.386 0.859999 200.453 0.859999L202.133 0.939999C202.306 0.939999 202.393 1.04667 202.393 1.26C202.393 2.34 202.293 3.34667 202.093 4.28C202.36 5.05333 202.806 5.8 203.433 6.52C204.06 7.24 204.753 7.85333 205.513 8.36C205.62 8.42667 205.666 8.5 205.653 8.58C205.653 8.64667 205.62 8.72667 205.553 8.82L204.793 9.84C204.633 10.04 204.44 10.0667 204.213 9.92C203.653 9.57333 203.093 9.12667 202.533 8.58C201.973 8.03333 201.513 7.44 201.153 6.8C200.74 7.58667 200.233 8.3 199.633 8.94C199.046 9.56667 198.353 10.14 197.553 10.66ZM220.802 7.56C220.175 7.56 219.655 7.73333 219.242 8.08C218.828 8.42667 218.622 8.84667 218.622 9.34C218.622 9.84667 218.828 10.28 219.242 10.64C219.655 11 220.175 11.18 220.802 11.18C221.442 11.18 221.962 11 222.362 10.64C222.775 10.28 222.982 9.84667 222.982 9.34C222.982 8.84667 222.775 8.42667 222.362 8.08C221.962 7.73333 221.442 7.56 220.802 7.56ZM220.802 5.78C221.402 5.78 221.968 5.87333 222.502 6.06C223.035 6.24667 223.495 6.5 223.882 6.82C224.282 7.14 224.595 7.52 224.822 7.96C225.048 8.38667 225.162 8.84667 225.162 9.34C225.162 9.84667 225.048 10.32 224.822 10.76C224.595 11.1867 224.282 11.56 223.882 11.88C223.495 12.2 223.035 12.4533 222.502 12.64C221.968 12.8267 221.395 12.92 220.782 12.92C220.182 12.92 219.622 12.8267 219.102 12.64C218.582 12.4533 218.122 12.2 217.722 11.88C217.335 11.56 217.028 11.1867 216.802 10.76C216.575 10.32 216.462 9.84667 216.462 9.34C216.462 8.84667 216.575 8.38667 216.802 7.96C217.028 7.52 217.335 7.14 217.722 6.82C218.122 6.5 218.582 6.24667 219.102 6.06C219.635 5.87333 220.202 5.78 220.802 5.78ZM226.242 4.76C226.242 4.85333 226.208 4.93333 226.142 5C226.088 5.05333 226.022 5.08 225.942 5.08H215.342C215.262 5.08 215.188 5.04667 215.122 4.98C215.055 4.91333 215.022 4.83333 215.022 4.74V3.56C215.022 3.49333 215.055 3.42667 215.122 3.36C215.202 3.29333 215.282 3.26 215.362 3.26H225.942C226.022 3.26 226.088 3.29333 226.142 3.36C226.208 3.41333 226.242 3.48 226.242 3.56V4.76ZM223.662 2.08C223.662 2.16 223.628 2.23333 223.562 2.3C223.508 2.36667 223.428 2.4 223.322 2.4H218.102C218.048 2.4 217.982 2.37333 217.902 2.32C217.835 2.26667 217.802 2.19333 217.802 2.1V0.92C217.802 0.813333 217.835 0.733333 217.902 0.679999C217.982 0.626666 218.048 0.599999 218.102 0.599999H223.322C223.415 0.599999 223.495 0.633332 223.562 0.699999C223.628 0.766665 223.662 0.846666 223.662 0.939999V2.08ZM230.622 18.6C230.622 18.68 230.588 18.74 230.522 18.78C230.455 18.82 230.388 18.84 230.322 18.84H219.762C219.162 18.84 218.755 18.7333 218.542 18.52C218.328 18.3067 218.222 17.94 218.222 17.42V14.32C218.222 14.2533 218.255 14.1867 218.322 14.12C218.388 14.0533 218.455 14.02 218.522 14.02H220.222C220.315 14.02 220.388 14.0533 220.442 14.12C220.508 14.1867 220.542 14.2533 220.542 14.32V16.6C220.542 16.7333 220.568 16.82 220.622 16.86C220.675 16.9 220.768 16.92 220.902 16.92H230.322C230.388 16.92 230.455 16.9467 230.522 17C230.588 17.0533 230.622 17.1133 230.622 17.18V18.6ZM232.842 8.54C232.842 8.60667 232.808 8.66667 232.742 8.72C232.688 8.76 232.622 8.78 232.542 8.78H229.842V14.54C229.842 14.7133 229.755 14.8 229.582 14.8H227.802C227.628 14.8 227.542 14.7133 227.542 14.54V0.419999C227.542 0.246665 227.628 0.159999 227.802 0.159999H229.582C229.755 0.159999 229.842 0.246665 229.842 0.419999V6.86H232.542C232.622 6.86 232.688 6.88667 232.742 6.94C232.808 6.99333 232.842 7.05333 232.842 7.12V8.54ZM254.276 8.8C254.276 9.30667 254.162 9.66667 253.936 9.88C253.722 10.08 253.362 10.18 252.856 10.18H249.136V13.98H256.676C256.742 13.98 256.809 14.0133 256.876 14.08C256.942 14.1467 256.976 14.22 256.976 14.3V15.6C256.976 15.6667 256.942 15.7333 256.876 15.8C256.809 15.8667 256.742 15.9 256.676 15.9H239.256C239.176 15.9 239.109 15.8667 239.056 15.8C239.002 15.7333 238.976 15.6667 238.976 15.6V14.3C238.976 14.0867 239.069 13.98 239.256 13.98H246.836V10.18H243.136C242.536 10.18 242.129 10.08 241.916 9.88C241.716 9.66667 241.616 9.3 241.616 8.78V2.82C241.616 2.31333 241.722 1.96 241.936 1.76C242.162 1.54667 242.529 1.44 243.036 1.44H252.756C253.356 1.44 253.756 1.54 253.956 1.74C254.169 1.94 254.276 2.30667 254.276 2.84V8.8ZM251.976 3.62C251.976 3.51333 251.956 3.44667 251.916 3.42C251.889 3.38 251.822 3.36 251.716 3.36H244.196C244.089 3.36 244.016 3.37333 243.976 3.4C243.949 3.42667 243.936 3.49333 243.936 3.6V8C243.936 8.13333 243.949 8.21333 243.976 8.24C244.016 8.26667 244.089 8.28 244.196 8.28H251.716C251.822 8.28 251.889 8.26667 251.916 8.24C251.956 8.21333 251.976 8.13333 251.976 8V3.62ZM273.704 10.6C273.704 10.7733 273.618 10.86 273.444 10.86H271.664C271.491 10.86 271.404 10.7667 271.404 10.58V0.419999C271.404 0.246665 271.491 0.159999 271.664 0.159999H273.444C273.618 0.159999 273.704 0.246665 273.704 0.419999V10.6ZM273.704 17.44C273.704 17.9467 273.591 18.3067 273.364 18.52C273.151 18.7333 272.791 18.84 272.284 18.84H263.784C263.171 18.84 262.724 18.7333 262.444 18.52C262.178 18.3067 262.044 17.94 262.044 17.42V13.3C262.044 12.7933 262.151 12.4267 262.364 12.2C262.591 11.9733 262.958 11.86 263.464 11.86H272.184C272.784 11.86 273.184 11.9733 273.384 12.2C273.598 12.4133 273.704 12.7867 273.704 13.32V17.44ZM271.424 13.96C271.424 13.8533 271.404 13.7867 271.364 13.76C271.338 13.72 271.271 13.7 271.164 13.7H264.584C264.478 13.7 264.404 13.7133 264.364 13.74C264.338 13.7667 264.324 13.8333 264.324 13.94V16.74C264.324 16.86 264.338 16.9333 264.364 16.96C264.404 16.9867 264.478 17 264.584 17H271.164C271.271 17 271.338 16.9867 271.364 16.96C271.404 16.9333 271.424 16.86 271.424 16.74V13.96ZM268.544 5.46C268.544 6.12667 268.424 6.74667 268.184 7.32C267.958 7.88 267.624 8.36667 267.184 8.78C266.758 9.19333 266.244 9.51333 265.644 9.74C265.058 9.96667 264.404 10.08 263.684 10.08C262.978 10.08 262.331 9.96667 261.744 9.74C261.158 9.51333 260.651 9.19333 260.224 8.78C259.811 8.36667 259.491 7.88 259.264 7.32C259.038 6.74667 258.924 6.12667 258.924 5.46C258.924 4.82 259.038 4.22 259.264 3.66C259.491 3.1 259.811 2.61333 260.224 2.2C260.651 1.77333 261.158 1.44 261.744 1.2C262.331 0.959999 262.978 0.839999 263.684 0.839999C264.404 0.839999 265.058 0.959999 265.644 1.2C266.244 1.44 266.758 1.77333 267.184 2.2C267.624 2.61333 267.958 3.1 268.184 3.66C268.424 4.22 268.544 4.82 268.544 5.46ZM266.264 5.5C266.264 4.71333 266.031 4.08667 265.564 3.62C265.098 3.14 264.471 2.9 263.684 2.9C262.924 2.9 262.311 3.14 261.844 3.62C261.378 4.08667 261.144 4.71333 261.144 5.5C261.144 6.3 261.378 6.94 261.844 7.42C262.311 7.9 262.924 8.14 263.684 8.14C264.471 8.14 265.098 7.9 265.564 7.42C266.031 6.94 266.264 6.3 266.264 5.5ZM285.633 7.74C284.7 7.74 283.84 7.66 283.053 7.5C282.28 7.32667 281.613 7.08667 281.053 6.78C280.493 6.47333 280.053 6.09333 279.733 5.64C279.426 5.18667 279.273 4.67333 279.273 4.1C279.273 3.52667 279.426 3.01333 279.733 2.56C280.053 2.09333 280.493 1.70667 281.053 1.4C281.613 1.09333 282.28 0.859999 283.053 0.699999C283.84 0.526665 284.7 0.439999 285.633 0.439999C286.566 0.439999 287.42 0.526665 288.193 0.699999C288.966 0.859999 289.633 1.09333 290.193 1.4C290.753 1.70667 291.186 2.09333 291.493 2.56C291.813 3.01333 291.973 3.52667 291.973 4.1C291.973 4.67333 291.813 5.18667 291.493 5.64C291.186 6.09333 290.753 6.47333 290.193 6.78C289.633 7.08667 288.966 7.32667 288.193 7.5C287.42 7.66 286.566 7.74 285.633 7.74ZM285.633 2.28C285.046 2.28 284.513 2.32667 284.033 2.42C283.553 2.5 283.133 2.62 282.773 2.78C282.426 2.94 282.153 3.13333 281.953 3.36C281.766 3.58667 281.673 3.83333 281.673 4.1C281.673 4.36667 281.766 4.61333 281.953 4.84C282.153 5.05333 282.426 5.24 282.773 5.4C283.133 5.56 283.553 5.68667 284.033 5.78C284.513 5.86 285.046 5.9 285.633 5.9C286.206 5.9 286.733 5.86 287.213 5.78C287.693 5.68667 288.106 5.56 288.453 5.4C288.813 5.24 289.086 5.05333 289.273 4.84C289.473 4.61333 289.573 4.36667 289.573 4.1C289.573 3.83333 289.473 3.58667 289.273 3.36C289.086 3.13333 288.813 2.94 288.453 2.78C288.106 2.62 287.693 2.5 287.213 2.42C286.733 2.32667 286.206 2.28 285.633 2.28ZM276.873 11.26C276.793 11.26 276.726 11.2267 276.673 11.16C276.62 11.0933 276.593 11.02 276.593 10.94V9.64C276.593 9.56 276.62 9.49333 276.673 9.44C276.726 9.37333 276.793 9.34 276.873 9.34H294.293C294.36 9.34 294.426 9.37333 294.493 9.44C294.56 9.50667 294.593 9.57333 294.593 9.64V10.94C294.593 11.0067 294.56 11.08 294.493 11.16C294.426 11.2267 294.36 11.26 294.293 11.26H276.873ZM292.413 18.34C292.413 18.42 292.38 18.48 292.313 18.52C292.26 18.56 292.193 18.58 292.113 18.58H280.973C280.373 18.58 279.966 18.4733 279.753 18.26C279.553 18.0467 279.453 17.6733 279.453 17.14V12.8C279.453 12.7333 279.48 12.6733 279.533 12.62C279.6 12.5533 279.666 12.52 279.733 12.52H281.453C281.533 12.52 281.6 12.5533 281.653 12.62C281.72 12.6733 281.753 12.7333 281.753 12.8V16.34C281.753 16.4733 281.78 16.56 281.833 16.6C281.886 16.64 281.986 16.66 282.133 16.66H292.113C292.18 16.66 292.246 16.6867 292.313 16.74C292.38 16.78 292.413 16.8333 292.413 16.9V18.34ZM319.007 15.48C319.007 15.5467 318.974 15.6133 318.907 15.68C318.84 15.7467 318.774 15.78 318.707 15.78H301.287C301.207 15.78 301.14 15.7467 301.087 15.68C301.034 15.6133 301.007 15.5467 301.007 15.48V14.16C301.007 14.08 301.034 14.0133 301.087 13.96C301.14 13.8933 301.207 13.86 301.287 13.86H313.347C313.56 12.66 313.72 11.2333 313.827 9.58C313.947 7.91333 314.007 6.13333 314.007 4.24C314.007 4.01333 313.98 3.85333 313.927 3.76C313.874 3.65333 313.734 3.6 313.507 3.6H303.827C303.76 3.6 303.7 3.57333 303.647 3.52C303.594 3.45333 303.567 3.38667 303.567 3.32V2C303.567 1.93333 303.594 1.87333 303.647 1.82C303.7 1.75333 303.76 1.72 303.827 1.72H314.967C315.554 1.72 315.927 1.87333 316.087 2.18C316.26 2.47333 316.347 2.86667 316.347 3.36C316.347 5.14667 316.294 6.91333 316.187 8.66C316.094 10.4067 315.9 12.14 315.607 13.86H318.707C318.774 13.86 318.84 13.8933 318.907 13.96C318.974 14.0267 319.007 14.0933 319.007 14.16V15.48ZM330.136 9.12C330.136 9.62667 330.029 9.98 329.816 10.18C329.616 10.38 329.262 10.48 328.756 10.48H322.756C322.289 10.48 321.942 10.38 321.716 10.18C321.489 9.98 321.376 9.62667 321.376 9.12V2.52C321.376 2.01333 321.476 1.66667 321.676 1.48C321.889 1.28 322.249 1.18 322.756 1.18H328.756C329.262 1.18 329.616 1.28 329.816 1.48C330.029 1.68 330.136 2.03333 330.136 2.54V9.12ZM327.856 3.32C327.856 3.21333 327.836 3.14667 327.796 3.12C327.769 3.08 327.702 3.06 327.596 3.06H323.916C323.809 3.06 323.736 3.07333 323.696 3.1C323.669 3.12667 323.656 3.19333 323.656 3.3V8.34C323.656 8.46 323.669 8.53333 323.696 8.56C323.736 8.58667 323.809 8.6 323.916 8.6H327.596C327.702 8.6 327.769 8.58667 327.796 8.56C327.836 8.53333 327.856 8.46 327.856 8.34V3.32ZM335.856 18.56C335.856 18.64 335.822 18.7 335.756 18.74C335.702 18.78 335.642 18.8 335.576 18.8H324.996C324.396 18.8 323.989 18.6933 323.776 18.48C323.576 18.2667 323.476 17.9 323.476 17.38V12.98C323.476 12.9133 323.502 12.8533 323.556 12.8C323.622 12.7333 323.689 12.7 323.756 12.7H325.476C325.556 12.7 325.622 12.7333 325.676 12.8C325.742 12.8533 325.776 12.9133 325.776 12.98V16.56C325.776 16.6933 325.802 16.78 325.856 16.82C325.909 16.86 326.002 16.88 326.136 16.88H335.576C335.642 16.88 335.702 16.9067 335.756 16.96C335.822 17.0133 335.856 17.0733 335.856 17.14V18.56ZM338.076 7.84C338.076 7.90667 338.042 7.96667 337.976 8.02C337.922 8.07333 337.862 8.1 337.796 8.1H335.076V13.38C335.076 13.5533 334.989 13.64 334.816 13.64H333.036C332.862 13.64 332.776 13.5533 332.776 13.38V0.419999C332.776 0.246665 332.862 0.159999 333.036 0.159999H334.816C334.989 0.159999 335.076 0.246665 335.076 0.419999V6.18H337.796C337.862 6.18 337.922 6.20667 337.976 6.26C338.042 6.3 338.076 6.35333 338.076 6.42V7.84ZM343.564 13.08C343.551 13.1067 343.544 13.1267 343.544 13.14C343.544 13.1533 343.537 13.1667 343.524 13.18C343.497 13.2067 343.397 13.22 343.224 13.22H341.744C341.691 13.22 341.664 13.2067 341.664 13.18C341.624 13.14 341.604 13.0267 341.604 12.84L341.324 2.28C341.311 2 341.324 1.83333 341.364 1.78C341.404 1.72667 341.517 1.7 341.704 1.7H343.484C343.671 1.7 343.777 1.72667 343.804 1.78C343.844 1.83333 343.857 2 343.844 2.28L343.564 12.84V13.08ZM342.584 17.24C342.184 17.24 341.851 17.1067 341.584 16.84C341.317 16.56 341.184 16.2267 341.184 15.84C341.184 15.4533 341.317 15.12 341.584 14.84C341.851 14.56 342.184 14.42 342.584 14.42C342.984 14.42 343.317 14.56 343.584 14.84C343.864 15.12 344.004 15.4533 344.004 15.84C344.004 16.2267 343.864 16.56 343.584 16.84C343.317 17.1067 342.984 17.24 342.584 17.24ZM2.955 34.3C2.955 34.1133 3.04167 34.02 3.215 34.02C4.095 34.0067 5.015 34 5.975 34C6.935 33.9867 7.86833 33.98 8.775 33.98C9.695 33.9667 10.5617 33.9533 11.375 33.94C12.1883 33.9133 12.895 33.88 13.495 33.84C13.5217 33.4533 13.535 33.08 13.535 32.72C13.5483 32.3467 13.555 32 13.555 31.68C13.555 31.4933 13.5083 31.38 13.415 31.34C13.335 31.2867 13.2017 31.26 13.015 31.26H3.175C3.10833 31.26 3.04167 31.24 2.975 31.2C2.90833 31.1467 2.875 31.0867 2.875 31.02V29.58C2.875 29.5 2.90833 29.44 2.975 29.4C3.04167 29.36 3.10833 29.34 3.175 29.34H14.515C14.9417 29.34 15.2683 29.4533 15.495 29.68C15.7217 29.9067 15.835 30.2667 15.835 30.76C15.835 32.56 15.775 34.2067 15.655 35.7C15.535 37.1933 15.375 38.4333 15.175 39.42C15.1483 39.5267 15.1017 39.62 15.035 39.7C14.9683 39.78 14.8817 39.8133 14.775 39.8L13.215 39.66C13.1083 39.6467 13.035 39.6 12.995 39.52C12.955 39.44 12.9483 39.3467 12.975 39.24C13.0683 38.7733 13.1483 38.2333 13.215 37.62C13.2817 37.0067 13.3417 36.3733 13.395 35.72C12.6617 35.76 11.875 35.7933 11.035 35.82C10.2083 35.8467 9.355 35.8667 8.475 35.88C7.595 35.8933 6.70833 35.9067 5.815 35.92C4.935 35.92 4.06833 35.92 3.215 35.92C3.14833 35.92 3.08833 35.8933 3.035 35.84C2.98167 35.7733 2.955 35.7 2.955 35.62V34.3ZM18.255 43.46C18.255 43.5267 18.2217 43.5933 18.155 43.66C18.0883 43.7267 18.0217 43.76 17.955 43.76H0.535C0.455 43.76 0.388333 43.7267 0.335 43.66C0.281667 43.5933 0.255 43.5267 0.255 43.46V42.14C0.255 42.06 0.281667 41.9933 0.335 41.94C0.388333 41.8733 0.455 41.84 0.535 41.84H7.455V37.74C7.455 37.5533 7.555 37.46 7.755 37.46H9.475C9.66167 37.46 9.755 37.5533 9.755 37.74V41.84H17.955C18.0217 41.84 18.0883 41.8733 18.155 41.94C18.2217 42.0067 18.255 42.0733 18.255 42.14V43.46ZM36.7636 41.84C36.8303 41.84 36.8969 41.8733 36.9636 41.94C37.0303 42.0067 37.0636 42.0733 37.0636 42.14V43.46C37.0636 43.5267 37.0303 43.5933 36.9636 43.66C36.8969 43.7267 36.8303 43.76 36.7636 43.76H19.3436C19.2636 43.76 19.1969 43.7267 19.1436 43.66C19.0903 43.5933 19.0636 43.5267 19.0636 43.46V42.14C19.0636 42.06 19.0903 41.9933 19.1436 41.94C19.1969 41.8733 19.2636 41.84 19.3436 41.84H36.7636ZM34.5236 37.8C34.5236 37.9067 34.4969 37.9867 34.4436 38.04C34.4036 38.08 34.3503 38.1 34.2836 38.1H23.2036C22.6703 38.1 22.2836 37.9667 22.0436 37.7C21.8036 37.4333 21.6836 37.0667 21.6836 36.6V30.8C21.6836 30.2933 21.7969 29.9533 22.0236 29.78C22.2503 29.5933 22.6169 29.5 23.1236 29.5H34.1036C34.2903 29.5 34.3836 29.5867 34.3836 29.76V31.16C34.3836 31.3333 34.2903 31.42 34.1036 31.42H24.3436C24.1036 31.42 23.9836 31.5333 23.9836 31.76V35.84C23.9836 35.96 24.0036 36.0533 24.0436 36.12C24.0969 36.1733 24.1969 36.2 24.3436 36.2H34.2036C34.3103 36.2 34.3903 36.2133 34.4436 36.24C34.4969 36.2667 34.5236 36.3333 34.5236 36.44V37.8ZM48.0522 31.16C47.9589 32.3733 47.7122 33.5467 47.3122 34.68C46.9122 35.8 46.3589 36.86 45.6522 37.86C44.9589 38.86 44.1189 39.7933 43.1322 40.66C42.1455 41.5267 41.0322 42.3 39.7922 42.98C39.6855 43.0333 39.5722 43.06 39.4522 43.06C39.3455 43.0467 39.2589 42.9867 39.1922 42.88L38.3922 41.76C38.3255 41.6533 38.3055 41.5467 38.3322 41.44C38.3589 41.3333 38.4189 41.2467 38.5122 41.18C40.4989 40.1267 42.1055 38.8267 43.3322 37.28C44.5589 35.7333 45.3055 34.0533 45.5722 32.24C45.6122 31.9733 45.5922 31.8 45.5122 31.72C45.4455 31.6267 45.2922 31.58 45.0522 31.58H39.4122C39.2389 31.58 39.1522 31.4867 39.1522 31.3V29.9C39.1522 29.74 39.2389 29.66 39.4122 29.66H46.6322C47.2322 29.66 47.6255 29.7867 47.8122 30.04C48.0122 30.28 48.0922 30.6533 48.0522 31.16ZM56.1522 37.1C56.1522 37.18 56.1189 37.2467 56.0522 37.3C55.9989 37.3533 55.9322 37.38 55.8522 37.38H53.1522V46.88C53.1522 47.0533 53.0655 47.14 52.8922 47.14H51.1122C50.9389 47.14 50.8522 47.0533 50.8522 46.88V28.42C50.8522 28.2467 50.9389 28.16 51.1122 28.16H52.8922C53.0655 28.16 53.1522 28.2467 53.1522 28.42V35.46H55.8522C55.9322 35.46 55.9989 35.4867 56.0522 35.54C56.1189 35.58 56.1522 35.6333 56.1522 35.7V37.1ZM72.6063 36.32C72.6063 36.8267 72.4996 37.18 72.2863 37.38C72.0863 37.58 71.7329 37.68 71.2263 37.68H65.2263C64.7596 37.68 64.4129 37.58 64.1863 37.38C63.9596 37.18 63.8463 36.8267 63.8463 36.32V30.42C63.8463 29.9133 63.9463 29.5667 64.1463 29.38C64.3596 29.18 64.7196 29.08 65.2263 29.08H71.2263C71.7329 29.08 72.0863 29.18 72.2863 29.38C72.4996 29.58 72.6063 29.9333 72.6063 30.44V36.32ZM76.5263 42.54C76.2596 42.78 75.9529 43.0267 75.6063 43.28C75.2729 43.52 74.8996 43.76 74.4863 44C74.7929 44.1067 75.1263 44.2133 75.4863 44.32C75.8596 44.4133 76.2329 44.5067 76.6063 44.6C76.9929 44.6933 77.3729 44.7867 77.7463 44.88C78.1196 44.96 78.4596 45.0333 78.7663 45.1C79.0463 45.1667 79.1463 45.3133 79.0663 45.54L78.6263 46.68C78.5596 46.8533 78.3996 46.92 78.1463 46.88C77.7196 46.8 77.2529 46.6933 76.7463 46.56C76.2529 46.44 75.7463 46.3 75.2263 46.14C74.7063 45.98 74.1863 45.8133 73.6662 45.64C73.1596 45.4667 72.6863 45.2933 72.2463 45.12C71.3263 45.5333 70.3596 45.9067 69.3463 46.24C68.3329 46.5733 67.2863 46.8467 66.2063 47.06C65.9529 47.1133 65.7796 47.0333 65.6863 46.82L65.2463 45.7C65.2063 45.5933 65.2129 45.5 65.2663 45.42C65.3329 45.34 65.4129 45.28 65.5063 45.24C67.3329 44.8533 68.9463 44.4 70.3463 43.88C71.7463 43.3467 72.8663 42.78 73.7063 42.18C73.9063 42.0467 74.0063 41.9467 74.0063 41.88C74.0196 41.8 73.8663 41.76 73.5463 41.76H66.6063C66.4329 41.76 66.3463 41.6733 66.3463 41.5V40.14C66.3463 39.9933 66.4329 39.92 66.6063 39.92H75.5063C76.2263 39.92 76.7263 40.0133 77.0063 40.2C77.2863 40.3867 77.4263 40.62 77.4263 40.9C77.4263 41.1267 77.3529 41.3867 77.2063 41.68C77.0596 41.96 76.8329 42.2467 76.5263 42.54ZM80.5463 34.38C80.5463 34.4467 80.5129 34.5067 80.4463 34.56C80.3929 34.6133 80.3329 34.64 80.2663 34.64H77.5463V38.64C77.5463 38.8133 77.4596 38.9 77.2863 38.9H75.5063C75.3329 38.9 75.2463 38.8067 75.2463 38.62V28.42C75.2463 28.2467 75.3329 28.16 75.5063 28.16H77.2863C77.4596 28.16 77.5463 28.2467 77.5463 28.42V32.72H80.2663C80.3329 32.72 80.3929 32.7467 80.4463 32.8C80.5129 32.84 80.5463 32.8933 80.5463 32.96V34.38ZM70.3463 31.22C70.3463 31.1 70.3263 31.0267 70.2863 31C70.2596 30.96 70.1929 30.94 70.0863 30.94H66.3663C66.2596 30.94 66.1863 30.9533 66.1463 30.98C66.1196 31.0067 66.1063 31.08 66.1063 31.2V35.54C66.1063 35.66 66.1196 35.7333 66.1463 35.76C66.1863 35.7867 66.2596 35.8 66.3663 35.8H70.0863C70.1929 35.8 70.2596 35.7867 70.2863 35.76C70.3263 35.7333 70.3463 35.66 70.3463 35.54V31.22ZM96.8348 46.44C96.8348 46.52 96.8015 46.58 96.7348 46.62C96.6682 46.66 96.6015 46.68 96.5348 46.68H85.5348C84.9215 46.68 84.5082 46.5733 84.2948 46.36C84.0948 46.1467 83.9948 45.78 83.9948 45.26V40.92C83.9948 40.8533 84.0215 40.7933 84.0748 40.74C84.1415 40.6733 84.2082 40.64 84.2748 40.64H85.9948C86.0748 40.64 86.1415 40.6733 86.1948 40.74C86.2615 40.7933 86.2948 40.8533 86.2948 40.92V44.44C86.2948 44.5733 86.3215 44.66 86.3748 44.7C86.4282 44.74 86.5282 44.76 86.6748 44.76H96.5348C96.6015 44.76 96.6682 44.7867 96.7348 44.84C96.8015 44.88 96.8348 44.9333 96.8348 45V46.44ZM96.5948 35C96.5948 35.0933 96.5615 35.16 96.4948 35.2C96.4415 35.24 96.3815 35.26 96.3148 35.26H85.5948C84.9815 35.26 84.5682 35.1533 84.3548 34.94C84.1548 34.7133 84.0548 34.34 84.0548 33.82V28.8C84.0548 28.7333 84.0815 28.6733 84.1348 28.62C84.2015 28.5533 84.2682 28.52 84.3348 28.52H86.0748C86.1548 28.52 86.2215 28.5533 86.2748 28.62C86.3415 28.6733 86.3748 28.7333 86.3748 28.8V33.02C86.3748 33.1533 86.4015 33.24 86.4548 33.28C86.5082 33.32 86.6082 33.34 86.7548 33.34H96.3148C96.3815 33.34 96.4415 33.3667 96.4948 33.42C96.5615 33.46 96.5948 33.5133 96.5948 33.58V35ZM99.0748 38.92C99.0748 38.9867 99.0415 39.06 98.9748 39.14C98.9082 39.2067 98.8415 39.24 98.7748 39.24H81.3748C81.2948 39.24 81.2282 39.2067 81.1748 39.14C81.1215 39.0733 81.0948 39 81.0948 38.92V37.6C81.0948 37.4133 81.1882 37.32 81.3748 37.32H98.7748C98.8415 37.32 98.9082 37.3533 98.9748 37.42C99.0415 37.4733 99.0748 37.5333 99.0748 37.6V38.92ZM120.189 28.42C120.189 28.3533 120.216 28.2933 120.269 28.24C120.336 28.1867 120.409 28.16 120.489 28.16H122.189C122.376 28.16 122.469 28.2467 122.469 28.42V46.88C122.469 47.0533 122.376 47.14 122.189 47.14H120.469C120.402 47.14 120.336 47.1133 120.269 47.06C120.216 47.0067 120.189 46.9467 120.189 46.88V37.42H118.289V46.12C118.289 46.2 118.256 46.2667 118.189 46.32C118.136 46.3733 118.076 46.4 118.009 46.4H116.389C116.309 46.4 116.236 46.3733 116.169 46.32C116.116 46.2667 116.089 46.2 116.089 46.12V28.78C116.089 28.7133 116.116 28.6533 116.169 28.6C116.236 28.5467 116.309 28.52 116.389 28.52H118.009C118.076 28.52 118.136 28.5467 118.189 28.6C118.256 28.6533 118.289 28.7133 118.289 28.78V35.5H120.189V28.42ZM115.429 40.6C115.442 40.6933 115.416 40.7667 115.349 40.82C115.282 40.86 115.202 40.8933 115.109 40.92C114.642 41.0533 114.122 41.1733 113.549 41.28C112.989 41.3733 112.402 41.4467 111.789 41.5C111.189 41.5533 110.589 41.5933 109.989 41.62C109.402 41.6333 108.849 41.6267 108.329 41.6C107.849 41.5733 107.482 41.4333 107.229 41.18C106.976 40.9133 106.849 40.5533 106.849 40.1V29.8C106.849 29.7333 106.876 29.6733 106.929 29.62C106.996 29.5533 107.069 29.52 107.149 29.52H108.809C108.889 29.52 108.962 29.5533 109.029 29.62C109.096 29.6733 109.129 29.7333 109.129 29.8V39.34C109.129 39.54 109.249 39.6467 109.489 39.66C109.822 39.7 110.202 39.7133 110.629 39.7C111.069 39.6867 111.522 39.6533 111.989 39.6C112.469 39.5467 112.949 39.48 113.429 39.4C113.922 39.32 114.389 39.2267 114.829 39.12C114.896 39.1067 114.976 39.1133 115.069 39.14C115.162 39.1667 115.216 39.2333 115.229 39.34L115.429 40.6ZM145.883 37.64C145.883 37.7467 145.856 37.8267 145.803 37.88C145.763 37.92 145.71 37.94 145.643 37.94H140.443C139.936 37.94 139.57 37.82 139.343 37.58C139.116 37.34 139.003 36.9867 139.003 36.52V30.74C139.003 30.2333 139.116 29.8933 139.343 29.72C139.583 29.5333 139.95 29.44 140.443 29.44H145.443C145.643 29.44 145.743 29.5267 145.743 29.7V31.04C145.743 31.2267 145.643 31.32 145.443 31.32H141.603C141.35 31.32 141.223 31.4333 141.223 31.66V35.72C141.223 35.8667 141.25 35.96 141.303 36C141.37 36.04 141.47 36.06 141.603 36.06H145.543C145.65 36.06 145.73 36.08 145.783 36.12C145.85 36.1467 145.883 36.2133 145.883 36.32V37.64ZM138.563 37.28C138.576 37.4 138.55 37.4933 138.483 37.56C138.43 37.6267 138.37 37.6667 138.303 37.68C137.996 37.7467 137.623 37.8 137.183 37.84C136.743 37.88 136.296 37.9133 135.843 37.94C135.39 37.9533 134.95 37.9667 134.523 37.98C134.11 37.98 133.77 37.9667 133.503 37.94C133.103 37.9133 132.763 37.7867 132.483 37.56C132.203 37.3333 132.063 37.0067 132.063 36.58V30.74C132.063 30.2733 132.176 29.94 132.403 29.74C132.643 29.54 133.016 29.44 133.523 29.44H137.983C138.17 29.44 138.263 29.5267 138.263 29.7V31.04C138.263 31.2267 138.17 31.32 137.983 31.32H134.663C134.41 31.32 134.283 31.4333 134.283 31.66V35.6C134.283 35.7467 134.303 35.8533 134.343 35.92C134.396 35.9733 134.53 36.0133 134.743 36.04C134.863 36.0667 135.056 36.08 135.323 36.08C135.603 36.0667 135.903 36.0533 136.223 36.04C136.556 36.0133 136.883 35.9867 137.203 35.96C137.536 35.9333 137.816 35.9 138.043 35.86C138.136 35.8467 138.216 35.8533 138.283 35.88C138.35 35.9067 138.39 35.9733 138.403 36.08L138.563 37.28ZM147.923 43.6C147.923 43.6667 147.89 43.7333 147.823 43.8C147.756 43.8667 147.69 43.9 147.623 43.9H130.203C130.123 43.9 130.056 43.8667 130.003 43.8C129.95 43.7333 129.923 43.6667 129.923 43.6V42.3C129.923 42.0867 130.016 41.98 130.203 41.98H137.783V38.8C137.783 38.6133 137.876 38.52 138.063 38.52H139.803C139.99 38.52 140.083 38.6133 140.083 38.8V41.98H147.623C147.69 41.98 147.756 42.0133 147.823 42.08C147.89 42.1467 147.923 42.22 147.923 42.3V43.6ZM158.772 41.26C158.798 41.3533 158.778 41.4333 158.712 41.5C158.658 41.5533 158.578 41.5933 158.472 41.62C158.058 41.7267 157.538 41.8267 156.912 41.92C156.298 42.0133 155.652 42.1 154.972 42.18C154.305 42.2467 153.638 42.2933 152.972 42.32C152.305 42.3467 151.718 42.3467 151.212 42.32C150.598 42.2667 150.185 42.14 149.972 41.94C149.758 41.74 149.652 41.3867 149.652 40.88V36.28C149.652 35.8 149.772 35.46 150.012 35.26C150.252 35.0467 150.605 34.94 151.072 34.94H154.672C154.778 34.94 154.852 34.9267 154.892 34.9C154.932 34.86 154.952 34.7733 154.952 34.64V31.9C154.952 31.7933 154.938 31.72 154.912 31.68C154.885 31.64 154.805 31.62 154.672 31.62H150.012C149.945 31.62 149.878 31.5933 149.812 31.54C149.758 31.4867 149.732 31.4267 149.732 31.36V30.04C149.732 29.9733 149.758 29.9133 149.812 29.86C149.878 29.8067 149.945 29.78 150.012 29.78H155.792C156.365 29.78 156.732 29.8867 156.892 30.1C157.065 30.3133 157.152 30.6667 157.152 31.16V35.46C157.152 35.9667 157.045 36.3133 156.832 36.5C156.632 36.6733 156.272 36.76 155.752 36.76H152.172C151.972 36.76 151.872 36.8533 151.872 37.04V40.04C151.872 40.1867 151.898 40.28 151.952 40.32C152.005 40.36 152.105 40.3867 152.252 40.4C152.732 40.4267 153.205 40.4333 153.672 40.42C154.138 40.3933 154.612 40.36 155.092 40.32C155.572 40.2667 156.065 40.2 156.572 40.12C157.092 40.04 157.638 39.9467 158.212 39.84C158.398 39.8 158.512 39.8867 158.552 40.1L158.772 41.26ZM163.432 28.42C163.432 28.2467 163.525 28.16 163.712 28.16H165.432C165.605 28.16 165.692 28.2467 165.692 28.42V46.88C165.692 47.0533 165.605 47.14 165.432 47.14H163.692C163.518 47.14 163.432 47.0533 163.432 46.88V37.42H161.712V46.12C161.712 46.3067 161.625 46.4 161.452 46.4H159.812C159.625 46.4 159.532 46.3067 159.532 46.12V28.78C159.532 28.6067 159.625 28.52 159.812 28.52H161.452C161.625 28.52 161.712 28.6067 161.712 28.78V35.5H163.432V28.42ZM167.64 41.78C167.64 41.5933 167.733 41.5 167.92 41.5C169.413 41.54 170.913 41.54 172.42 41.5V38.36C171.86 38.2667 171.347 38.0933 170.88 37.84C170.413 37.5867 170.007 37.2733 169.66 36.9C169.313 36.5133 169.04 36.0733 168.84 35.58C168.653 35.0867 168.56 34.5467 168.56 33.96C168.56 33.3067 168.687 32.7 168.94 32.14C169.193 31.58 169.533 31.1 169.96 30.7C170.4 30.3 170.913 29.9867 171.5 29.76C172.1 29.5333 172.74 29.42 173.42 29.42C174.1 29.42 174.733 29.5333 175.32 29.76C175.92 29.9867 176.44 30.3 176.88 30.7C177.32 31.1 177.667 31.58 177.92 32.14C178.173 32.7 178.3 33.3067 178.3 33.96C178.3 34.52 178.207 35.04 178.02 35.52C177.847 36 177.593 36.4267 177.26 36.8C176.94 37.1733 176.553 37.4933 176.1 37.76C175.66 38.0133 175.173 38.2 174.64 38.32V41.4C175.44 41.36 176.227 41.3 177 41.22C177.787 41.1267 178.573 41.02 179.36 40.9C179.427 40.8867 179.5 40.8933 179.58 40.92C179.66 40.9333 179.707 40.9933 179.72 41.1L179.84 42.38C179.853 42.4867 179.833 42.5667 179.78 42.62C179.727 42.6733 179.667 42.7067 179.6 42.72C177.733 43.0267 175.8 43.2267 173.8 43.32C171.8 43.4133 169.84 43.4467 167.92 43.42C167.733 43.42 167.64 43.3133 167.64 43.1V41.78ZM185.82 37.68C185.82 37.7467 185.787 37.8067 185.72 37.86C185.667 37.9133 185.607 37.94 185.54 37.94H182.92V46.88C182.92 47.0533 182.833 47.14 182.66 47.14H180.88C180.707 47.14 180.62 47.0533 180.62 46.88V28.42C180.62 28.2467 180.707 28.16 180.88 28.16H182.66C182.833 28.16 182.92 28.2467 182.92 28.42V36.02H185.54C185.607 36.02 185.667 36.0467 185.72 36.1C185.787 36.1533 185.82 36.2133 185.82 36.28V37.68ZM173.42 31.32C173.047 31.32 172.7 31.3867 172.38 31.52C172.06 31.64 171.78 31.8133 171.54 32.04C171.3 32.2667 171.113 32.5467 170.98 32.88C170.847 33.2 170.78 33.56 170.78 33.96C170.78 34.36 170.847 34.7267 170.98 35.06C171.113 35.3933 171.3 35.6733 171.54 35.9C171.78 36.1267 172.06 36.3067 172.38 36.44C172.7 36.56 173.047 36.62 173.42 36.62C173.793 36.62 174.14 36.56 174.46 36.44C174.78 36.3067 175.06 36.1267 175.3 35.9C175.54 35.6733 175.727 35.3933 175.86 35.06C175.993 34.7267 176.06 34.36 176.06 33.96C176.06 33.56 175.993 33.2 175.86 32.88C175.727 32.5467 175.54 32.2667 175.3 32.04C175.06 31.8133 174.78 31.64 174.46 31.52C174.14 31.3867 173.793 31.32 173.42 31.32ZM202.469 46.88C202.469 47.0533 202.375 47.14 202.189 47.14H200.429C200.362 47.14 200.295 47.1133 200.229 47.06C200.175 47.02 200.149 46.96 200.149 46.88V28.42C200.149 28.3533 200.175 28.2933 200.229 28.24C200.295 28.1867 200.362 28.16 200.429 28.16H202.189C202.375 28.16 202.469 28.2467 202.469 28.42V46.88ZM192.669 31.22C191.909 31.22 191.282 31.4667 190.789 31.96C190.295 32.4533 190.049 33.12 190.049 33.96C190.049 34.8133 190.295 35.4867 190.789 35.98C191.282 36.4733 191.909 36.72 192.669 36.72C193.455 36.72 194.095 36.4733 194.589 35.98C195.082 35.4867 195.329 34.8133 195.329 33.96C195.329 33.12 195.082 32.4533 194.589 31.96C194.095 31.4667 193.455 31.22 192.669 31.22ZM192.669 29.32C193.349 29.32 193.982 29.4333 194.569 29.66C195.169 29.8733 195.689 30.1867 196.129 30.6C196.569 31 196.915 31.4867 197.169 32.06C197.422 32.6333 197.549 33.2667 197.549 33.96C197.549 34.6667 197.422 35.3067 197.169 35.88C196.915 36.44 196.569 36.92 196.129 37.32C195.689 37.7067 195.169 38.0067 194.569 38.22C193.982 38.4333 193.342 38.54 192.649 38.54C191.969 38.54 191.335 38.4333 190.749 38.22C190.162 38.0067 189.649 37.7067 189.209 37.32C188.782 36.92 188.442 36.44 188.189 35.88C187.935 35.3067 187.809 34.6667 187.809 33.96C187.809 33.2667 187.935 32.6333 188.189 32.06C188.442 31.4867 188.782 31 189.209 30.6C189.649 30.1867 190.162 29.8733 190.749 29.66C191.349 29.4333 191.989 29.32 192.669 29.32ZM186.629 41.42C186.629 41.34 186.655 41.2733 186.709 41.22C186.762 41.1533 186.835 41.12 186.929 41.12C187.875 41.1467 188.875 41.1467 189.929 41.12C190.982 41.0933 192.029 41.0533 193.069 41C194.122 40.9467 195.142 40.88 196.129 40.8C197.115 40.7067 198.022 40.6067 198.849 40.5C198.915 40.4867 198.989 40.4933 199.069 40.52C199.162 40.5333 199.215 40.5933 199.229 40.7L199.349 42C199.362 42.1067 199.335 42.1933 199.269 42.26C199.215 42.3133 199.155 42.3467 199.089 42.36C198.342 42.4667 197.469 42.5667 196.469 42.66C195.469 42.7533 194.415 42.8333 193.309 42.9C192.215 42.9667 191.115 43.02 190.009 43.06C188.902 43.0867 187.875 43.0933 186.929 43.08C186.835 43.08 186.762 43.0533 186.709 43C186.655 42.9333 186.629 42.86 186.629 42.78V41.42Z" fill="white"/>
<path d="M225.803 34.14C225.803 34.6467 225.669 35.0067 225.403 35.22C225.149 35.4333 224.769 35.54 224.263 35.54H215.223C214.609 35.54 214.196 35.44 213.983 35.24C213.783 35.0267 213.683 34.66 213.683 34.14V30.1C213.683 29.5933 213.809 29.2333 214.063 29.02C214.329 28.7933 214.716 28.68 215.223 28.68H224.263C224.876 28.68 225.283 28.7867 225.483 29C225.696 29.2 225.803 29.5667 225.803 30.1V34.14ZM223.543 30.82C223.543 30.7133 223.523 30.6467 223.483 30.62C223.443 30.58 223.369 30.56 223.263 30.56H216.243C216.123 30.56 216.043 30.5733 216.003 30.6C215.976 30.6267 215.963 30.6933 215.963 30.8V33.4C215.963 33.52 215.976 33.5933 216.003 33.62C216.043 33.6467 216.123 33.66 216.243 33.66H223.263C223.383 33.66 223.456 33.6467 223.483 33.62C223.523 33.5933 223.543 33.52 223.543 33.4V30.82ZM228.763 38.9C228.763 38.9667 228.729 39.04 228.663 39.12C228.596 39.1867 228.529 39.22 228.463 39.22H221.063V42.84C221.063 43.0267 220.969 43.12 220.783 43.12H219.043C218.856 43.12 218.763 43.0267 218.763 42.84V39.22H211.043C210.963 39.22 210.896 39.1867 210.843 39.12C210.789 39.04 210.763 38.9667 210.763 38.9V37.6C210.763 37.52 210.789 37.4533 210.843 37.4C210.896 37.3333 210.963 37.3 211.043 37.3H228.463C228.529 37.3 228.596 37.3333 228.663 37.4C228.729 37.4667 228.763 37.5333 228.763 37.6V38.9ZM226.583 46.44C226.583 46.52 226.549 46.58 226.483 46.62C226.429 46.66 226.363 46.68 226.283 46.68H214.963C214.363 46.68 213.956 46.5667 213.743 46.34C213.543 46.1267 213.443 45.76 213.443 45.24V41.02C213.443 40.9533 213.469 40.8933 213.523 40.84C213.589 40.7733 213.656 40.74 213.723 40.74H215.443C215.523 40.74 215.589 40.7733 215.643 40.84C215.709 40.8933 215.743 40.9533 215.743 41.02V44.44C215.743 44.5733 215.769 44.66 215.823 44.7C215.876 44.74 215.969 44.76 216.103 44.76H226.283C226.349 44.76 226.416 44.7867 226.483 44.84C226.549 44.88 226.583 44.9333 226.583 45V46.44ZM235.731 33.52C236.345 33.52 236.918 33.6067 237.451 33.78C237.985 33.94 238.451 34.1667 238.851 34.46C239.251 34.7533 239.565 35.1133 239.791 35.54C240.018 35.9533 240.131 36.4067 240.131 36.9C240.131 37.3267 240.045 37.7267 239.871 38.1C239.711 38.46 239.478 38.78 239.171 39.06C238.878 39.34 238.525 39.58 238.111 39.78C237.698 39.9667 237.251 40.1 236.771 40.18V41.86C238.331 41.78 239.871 41.62 241.391 41.38C241.458 41.3667 241.531 41.3733 241.611 41.4C241.691 41.4133 241.738 41.4733 241.751 41.58L241.871 42.82C241.885 42.9267 241.865 43.0067 241.811 43.06C241.758 43.1133 241.698 43.1467 241.631 43.16C239.765 43.4667 237.831 43.6667 235.831 43.76C233.831 43.8533 231.871 43.8867 229.951 43.86C229.871 43.86 229.805 43.8333 229.751 43.78C229.698 43.7133 229.671 43.64 229.671 43.56V42.26C229.671 42.06 229.765 41.96 229.951 41.96C231.471 42 233.005 42 234.551 41.96V40.16C234.085 40.0667 233.651 39.9267 233.251 39.74C232.865 39.54 232.525 39.3 232.231 39.02C231.951 38.74 231.731 38.4267 231.571 38.08C231.411 37.72 231.331 37.3267 231.331 36.9C231.331 36.4067 231.445 35.9533 231.671 35.54C231.911 35.1133 232.231 34.7533 232.631 34.46C233.031 34.1667 233.498 33.94 234.031 33.78C234.565 33.6067 235.131 33.52 235.731 33.52ZM247.851 37.68C247.851 37.7467 247.818 37.8067 247.751 37.86C247.698 37.9133 247.638 37.94 247.571 37.94H244.951V46.88C244.951 47.0533 244.865 47.14 244.691 47.14H242.911C242.738 47.14 242.651 47.0533 242.651 46.88V28.42C242.651 28.2467 242.738 28.16 242.911 28.16H244.691C244.865 28.16 244.951 28.2467 244.951 28.42V36.02H247.571C247.638 36.02 247.698 36.0467 247.751 36.1C247.818 36.1533 247.851 36.2133 247.851 36.28V37.68ZM241.171 32.54C241.171 32.62 241.138 32.6933 241.071 32.76C241.018 32.8133 240.951 32.84 240.871 32.84H230.311C230.245 32.84 230.171 32.8067 230.091 32.74C230.025 32.6733 229.991 32.6 229.991 32.52V31.4C229.991 31.3333 230.031 31.2667 230.111 31.2C230.191 31.1333 230.265 31.1 230.331 31.1H240.871C240.951 31.1 241.018 31.1333 241.071 31.2C241.138 31.2533 241.171 31.32 241.171 31.4V32.54ZM235.731 35.3C235.091 35.3 234.558 35.4533 234.131 35.76C233.705 36.0533 233.491 36.4333 233.491 36.9C233.491 37.3667 233.698 37.7533 234.111 38.06C234.538 38.3667 235.078 38.52 235.731 38.52C236.385 38.52 236.918 38.3667 237.331 38.06C237.758 37.7533 237.971 37.3667 237.971 36.9C237.971 36.4333 237.758 36.0533 237.331 35.76C236.918 35.4533 236.385 35.3 235.731 35.3ZM238.631 29.94C238.631 30.0333 238.598 30.1133 238.531 30.18C238.478 30.2467 238.405 30.28 238.311 30.28H232.951C232.898 30.28 232.831 30.2533 232.751 30.2C232.685 30.1467 232.651 30.0667 232.651 29.96V28.8C232.651 28.7067 232.685 28.6333 232.751 28.58C232.831 28.5267 232.898 28.5 232.951 28.5H238.311C238.391 28.5 238.465 28.5333 238.531 28.6C238.598 28.6667 238.631 28.74 238.631 28.82V29.94ZM265.5 43.36C265.5 43.92 265.32 44.4333 264.96 44.9C264.613 45.3667 264.14 45.7667 263.54 46.1C262.94 46.4333 262.247 46.6867 261.46 46.86C260.673 47.0467 259.853 47.14 259 47.14C258.08 47.14 257.227 47.0467 256.44 46.86C255.667 46.6867 254.987 46.4333 254.4 46.1C253.827 45.78 253.373 45.3867 253.04 44.92C252.72 44.4533 252.56 43.9333 252.56 43.36C252.56 42.8 252.72 42.2933 253.04 41.84C253.373 41.3733 253.827 40.9733 254.4 40.64C254.987 40.3067 255.667 40.0533 256.44 39.88C257.227 39.6933 258.08 39.6 259 39.6C259.853 39.6 260.673 39.6933 261.46 39.88C262.247 40.0533 262.94 40.3067 263.54 40.64C264.14 40.96 264.613 41.3533 264.96 41.82C265.32 42.2733 265.5 42.7867 265.5 43.36ZM263.08 28.42C263.08 28.2467 263.173 28.16 263.36 28.16H265.08C265.253 28.16 265.34 28.2467 265.34 28.42V39.12C265.34 39.3067 265.253 39.4 265.08 39.4H263.34C263.167 39.4 263.08 39.3067 263.08 39.12V34.94H261.28V38.58C261.28 38.7533 261.193 38.84 261.02 38.84H259.38C259.193 38.84 259.1 38.7533 259.1 38.58V28.74C259.1 28.5667 259.193 28.48 259.38 28.48H261.02C261.193 28.48 261.28 28.5667 261.28 28.74V33.02H263.08V28.42ZM250.18 38.54C250.073 38.6067 249.96 38.6467 249.84 38.66C249.72 38.66 249.613 38.6067 249.52 38.5L248.78 37.64C248.58 37.4267 248.607 37.2133 248.86 37C249.633 36.4533 250.273 35.88 250.78 35.28C251.287 34.68 251.687 34.0533 251.98 33.4C252.287 32.7467 252.5 32.06 252.62 31.34C252.74 30.62 252.8 29.8667 252.8 29.08C252.8 28.9733 252.827 28.8933 252.88 28.84C252.947 28.7733 253.013 28.74 253.08 28.74L254.76 28.82C254.933 28.82 255.02 28.9267 255.02 29.14C255.02 30.22 254.92 31.2267 254.72 32.16C254.987 32.9333 255.433 33.68 256.06 34.4C256.687 35.12 257.38 35.7333 258.14 36.24C258.247 36.3067 258.293 36.38 258.28 36.46C258.28 36.5267 258.247 36.6067 258.18 36.7L257.42 37.72C257.26 37.92 257.067 37.9467 256.84 37.8C256.28 37.4533 255.72 37.0067 255.16 36.46C254.6 35.9133 254.14 35.32 253.78 34.68C253.367 35.4667 252.86 36.18 252.26 36.82C251.673 37.4467 250.98 38.02 250.18 38.54ZM263.14 43.42C263.14 43.0867 263.013 42.8 262.76 42.56C262.52 42.3067 262.2 42.1 261.8 41.94C261.413 41.7667 260.973 41.64 260.48 41.56C259.987 41.4667 259.493 41.42 259 41.42C258.467 41.42 257.953 41.4667 257.46 41.56C256.98 41.64 256.547 41.7667 256.16 41.94C255.787 42.1 255.487 42.3067 255.26 42.56C255.033 42.8 254.92 43.0867 254.92 43.42C254.92 43.74 255.033 44.02 255.26 44.26C255.487 44.4867 255.787 44.68 256.16 44.84C256.547 45 256.987 45.12 257.48 45.2C257.973 45.28 258.48 45.32 259 45.32C259.493 45.32 259.987 45.28 260.48 45.2C260.973 45.12 261.413 45 261.8 44.84C262.2 44.68 262.52 44.4867 262.76 44.26C263.013 44.02 263.14 43.74 263.14 43.42ZM283.009 47.16C283.009 47.2267 282.975 47.2933 282.909 47.36C282.855 47.4267 282.802 47.46 282.749 47.46H271.489C270.969 47.46 270.615 47.36 270.429 47.16C270.242 46.9733 270.149 46.6667 270.149 46.24V44.52C270.149 44.0933 270.235 43.7867 270.409 43.6C270.595 43.4 270.949 43.3 271.469 43.3H280.049C280.169 43.3 280.242 43.2933 280.269 43.28C280.295 43.2533 280.309 43.18 280.309 43.06V42.72C280.309 42.5733 280.295 42.4867 280.269 42.46C280.242 42.4333 280.162 42.42 280.029 42.42H270.389C270.322 42.42 270.255 42.3933 270.189 42.34C270.135 42.2867 270.109 42.2267 270.109 42.16V40.98C270.109 40.9133 270.135 40.8533 270.189 40.8C270.255 40.7467 270.322 40.72 270.389 40.72H281.189C281.735 40.72 282.095 40.8067 282.269 40.98C282.455 41.14 282.549 41.4467 282.549 41.9V43.68C282.549 44.1467 282.455 44.46 282.269 44.62C282.095 44.78 281.735 44.86 281.189 44.86H272.649C272.542 44.86 272.475 44.88 272.449 44.92C272.422 44.9467 272.409 45.0133 272.409 45.12V45.52C272.409 45.64 272.422 45.7067 272.449 45.72C272.475 45.7467 272.549 45.76 272.669 45.76H282.729C282.795 45.76 282.855 45.78 282.909 45.82C282.975 45.8733 283.009 45.94 283.009 46.02V47.16ZM267.509 38.44C267.509 38.36 267.535 38.2933 267.589 38.24C267.642 38.1733 267.709 38.14 267.789 38.14C268.549 38.1667 269.335 38.1867 270.149 38.2C270.962 38.2 271.782 38.1867 272.609 38.16V37.26C271.609 37.14 270.815 36.8733 270.229 36.46C269.642 36.0333 269.349 35.5067 269.349 34.88C269.349 34.52 269.455 34.1933 269.669 33.9C269.882 33.5933 270.175 33.3333 270.549 33.12C270.935 32.9067 271.389 32.74 271.909 32.62C272.442 32.5 273.029 32.44 273.669 32.44C274.309 32.44 274.889 32.5 275.409 32.62C275.942 32.74 276.395 32.9067 276.769 33.12C277.155 33.3333 277.455 33.5933 277.669 33.9C277.882 34.1933 277.989 34.52 277.989 34.88C277.989 35.48 277.702 35.9867 277.129 36.4C276.569 36.8133 275.815 37.0867 274.869 37.22V38.08C275.629 38.0533 276.362 38.0133 277.069 37.96C277.789 37.9067 278.482 37.84 279.149 37.76C279.215 37.7467 279.282 37.7533 279.349 37.78C279.429 37.8067 279.475 37.8667 279.489 37.96L279.589 39.02C279.602 39.1133 279.582 39.1933 279.529 39.26C279.475 39.3267 279.415 39.3667 279.349 39.38C278.429 39.4867 277.455 39.5733 276.429 39.64C275.415 39.7067 274.402 39.76 273.389 39.8C272.389 39.84 271.409 39.8667 270.449 39.88C269.489 39.8933 268.602 39.8867 267.789 39.86C267.709 39.86 267.642 39.8333 267.589 39.78C267.535 39.7133 267.509 39.64 267.509 39.56V38.44ZM285.469 35.44C285.469 35.5067 285.435 35.5667 285.369 35.62C285.315 35.6733 285.255 35.7 285.189 35.7H282.569V39.66C282.569 39.8333 282.482 39.92 282.309 39.92H280.529C280.355 39.92 280.269 39.8333 280.269 39.66V28.42C280.269 28.2467 280.355 28.16 280.529 28.16H282.309C282.482 28.16 282.569 28.2467 282.569 28.42V33.78H285.189C285.255 33.78 285.315 33.8067 285.369 33.86C285.435 33.9 285.469 33.9533 285.469 34.02V35.44ZM278.789 31.56C278.789 31.64 278.755 31.7133 278.689 31.78C278.635 31.8333 278.569 31.86 278.489 31.86H268.509C268.442 31.86 268.375 31.8267 268.309 31.76C268.242 31.6933 268.209 31.62 268.209 31.54V30.6C268.209 30.5333 268.242 30.4667 268.309 30.4C268.389 30.3333 268.462 30.3 268.529 30.3H278.489C278.569 30.3 278.635 30.3333 278.689 30.4C278.755 30.4533 278.789 30.52 278.789 30.6V31.56ZM276.309 29.32C276.309 29.4 276.275 29.4733 276.209 29.54C276.155 29.6067 276.075 29.64 275.969 29.64H271.049C270.995 29.64 270.929 29.6133 270.849 29.56C270.769 29.5067 270.729 29.4333 270.729 29.34V28.36C270.729 28.2667 270.769 28.1933 270.849 28.14C270.929 28.0733 270.995 28.04 271.049 28.04H275.969C276.062 28.04 276.142 28.08 276.209 28.16C276.275 28.2267 276.309 28.3 276.309 28.38V29.32ZM273.669 33.92C273.029 33.92 272.522 34.0133 272.149 34.2C271.789 34.3867 271.609 34.6133 271.609 34.88C271.609 35.1467 271.789 35.3733 272.149 35.56C272.522 35.7467 273.029 35.84 273.669 35.84C274.309 35.84 274.809 35.7467 275.169 35.56C275.542 35.3733 275.729 35.1467 275.729 34.88C275.729 34.6133 275.542 34.3867 275.169 34.2C274.809 34.0133 274.309 33.92 273.669 33.92ZM309.603 43.48C309.603 43.5467 309.569 43.6133 309.503 43.68C309.436 43.7467 309.369 43.78 309.303 43.78H291.883C291.803 43.78 291.736 43.7467 291.683 43.68C291.629 43.6133 291.603 43.5467 291.603 43.48V42.16C291.603 42.08 291.629 42.0133 291.683 41.96C291.736 41.8933 291.803 41.86 291.883 41.86H303.943C304.156 40.66 304.316 39.2333 304.423 37.58C304.543 35.9133 304.603 34.1333 304.603 32.24C304.603 32.0133 304.576 31.8533 304.523 31.76C304.469 31.6533 304.329 31.6 304.103 31.6H294.423C294.356 31.6 294.296 31.5733 294.243 31.52C294.189 31.4533 294.163 31.3867 294.163 31.32V30C294.163 29.9333 294.189 29.8733 294.243 29.82C294.296 29.7533 294.356 29.72 294.423 29.72H305.563C306.149 29.72 306.523 29.8733 306.683 30.18C306.856 30.4733 306.943 30.8667 306.943 31.36C306.943 33.1467 306.889 34.9133 306.783 36.66C306.689 38.4067 306.496 40.14 306.203 41.86H309.303C309.369 41.86 309.436 41.8933 309.503 41.96C309.569 42.0267 309.603 42.0933 309.603 42.16V43.48ZM323.251 43.78H315.571V44.68C315.571 44.9067 315.698 45.02 315.951 45.02H322.871C323.125 45.02 323.251 44.9067 323.251 44.68V43.78ZM325.551 45.5C325.551 45.9533 325.445 46.2867 325.231 46.5C325.018 46.7267 324.625 46.84 324.051 46.84H314.791C314.205 46.84 313.805 46.74 313.591 46.54C313.378 46.34 313.271 45.9733 313.271 45.44V40.32C313.271 40.2533 313.298 40.2 313.351 40.16C313.405 40.1067 313.465 40.08 313.531 40.08H315.291C315.358 40.08 315.418 40.1067 315.471 40.16C315.538 40.2 315.571 40.2533 315.571 40.32V41.98H323.251V40.32C323.251 40.2533 323.278 40.1933 323.331 40.14C323.385 40.0733 323.445 40.04 323.511 40.04H325.291C325.358 40.04 325.418 40.0733 325.471 40.14C325.525 40.1933 325.551 40.2533 325.551 40.32V45.5ZM328.411 38.3C328.411 38.3667 328.378 38.4333 328.311 38.5C328.245 38.5667 328.178 38.6 328.111 38.6H320.551V40.68C320.551 40.8667 320.458 40.96 320.271 40.96H318.531C318.345 40.96 318.251 40.8667 318.251 40.68V38.6H310.691C310.611 38.6 310.545 38.5667 310.491 38.5C310.438 38.4333 310.411 38.3667 310.411 38.3V37.08C310.411 36.8667 310.505 36.76 310.691 36.76H328.111C328.178 36.76 328.245 36.7933 328.311 36.86C328.378 36.9267 328.411 37 328.411 37.08V38.3ZM325.851 35.24C325.851 35.3067 325.818 35.3733 325.751 35.44C325.698 35.4933 325.645 35.52 325.591 35.52H314.671C314.151 35.52 313.798 35.4267 313.611 35.24C313.425 35.0533 313.331 34.7467 313.331 34.32V32.28C313.331 31.8533 313.418 31.5467 313.591 31.36C313.778 31.1733 314.131 31.08 314.651 31.08H323.051C323.158 31.08 323.225 31.0667 323.251 31.04C323.278 31 323.291 30.9133 323.291 30.78V30.2C323.291 30.0933 323.278 30.0333 323.251 30.02C323.225 29.9933 323.151 29.98 323.031 29.98H313.691C313.625 29.98 313.558 29.9533 313.491 29.9C313.438 29.8467 313.411 29.7867 313.411 29.72V28.46C313.411 28.3933 313.438 28.3333 313.491 28.28C313.558 28.2267 313.625 28.2 313.691 28.2H324.171C324.718 28.2 325.078 28.2867 325.251 28.46C325.438 28.62 325.531 28.9267 325.531 29.38V31.54C325.531 32.0067 325.438 32.32 325.251 32.48C325.078 32.64 324.718 32.72 324.171 32.72H315.831C315.725 32.72 315.658 32.74 315.631 32.78C315.605 32.8067 315.591 32.88 315.591 33V33.5C315.591 33.62 315.605 33.6933 315.631 33.72C315.658 33.7333 315.738 33.74 315.871 33.74H325.571C325.638 33.74 325.698 33.7667 325.751 33.82C325.818 33.86 325.851 33.9267 325.851 34.02V35.24ZM329.74 36.58C329.74 36.3933 329.84 36.3 330.04 36.3C330.373 36.3133 330.7 36.32 331.02 36.32C331.34 36.32 331.66 36.32 331.98 36.32V31.02H330.24C330.173 31.02 330.1 30.9867 330.02 30.92C329.953 30.84 329.92 30.76 329.92 30.68V29.44C329.92 29.3733 329.953 29.3067 330.02 29.24C330.1 29.1733 330.173 29.14 330.24 29.14H340.38C340.46 29.14 340.527 29.1733 340.58 29.24C340.647 29.2933 340.68 29.36 340.68 29.44V30.7C340.68 30.78 340.647 30.8533 340.58 30.92C340.527 30.9867 340.46 31.02 340.38 31.02H339.16V36.02C339.48 35.9933 339.8 35.96 340.12 35.92C340.44 35.88 340.76 35.84 341.08 35.8C341.147 35.7867 341.22 35.8 341.3 35.84C341.38 35.8667 341.427 35.9133 341.44 35.98L341.58 37.18C341.593 37.2867 341.56 37.38 341.48 37.46C341.413 37.54 341.347 37.5867 341.28 37.6C340.48 37.72 339.627 37.82 338.72 37.9C337.813 37.98 336.873 38.0467 335.9 38.1C334.94 38.14 333.96 38.1667 332.96 38.18C331.973 38.1933 331 38.1867 330.04 38.16C329.947 38.16 329.873 38.1267 329.82 38.06C329.767 37.9933 329.74 37.92 329.74 37.84V36.58ZM345.3 43.34C345.3 43.9 345.147 44.4133 344.84 44.88C344.547 45.3467 344.127 45.7467 343.58 46.08C343.047 46.4133 342.413 46.6667 341.68 46.84C340.947 47.0267 340.153 47.12 339.3 47.12C338.38 47.12 337.553 47.0267 336.82 46.84C336.087 46.6667 335.46 46.4133 334.94 46.08C334.433 45.76 334.04 45.3667 333.76 44.9C333.493 44.4333 333.36 43.9133 333.36 43.34C333.36 42.78 333.493 42.2733 333.76 41.82C334.04 41.3533 334.433 40.9533 334.94 40.62C335.46 40.2867 336.087 40.0333 336.82 39.86C337.553 39.6733 338.38 39.58 339.3 39.58C340.153 39.58 340.947 39.6733 341.68 39.86C342.413 40.0333 343.047 40.2867 343.58 40.62C344.127 40.94 344.547 41.3333 344.84 41.8C345.147 42.2533 345.3 42.7667 345.3 43.34ZM345.14 39.02C345.14 39.2067 345.053 39.3 344.88 39.3H343.1C342.927 39.3 342.84 39.2067 342.84 39.02V28.42C342.84 28.2467 342.927 28.16 343.1 28.16H344.88C345.053 28.16 345.14 28.2467 345.14 28.42V39.02ZM342.92 43.4C342.92 43.0667 342.82 42.78 342.62 42.54C342.433 42.2867 342.173 42.08 341.84 41.92C341.507 41.7467 341.12 41.62 340.68 41.54C340.253 41.4467 339.793 41.4 339.3 41.4C338.233 41.4 337.367 41.5667 336.7 41.9C336.047 42.2333 335.72 42.7333 335.72 43.4C335.72 43.72 335.807 44 335.98 44.24C336.167 44.4667 336.413 44.66 336.72 44.82C337.04 44.98 337.42 45.1 337.86 45.18C338.3 45.26 338.78 45.3 339.3 45.3C339.793 45.3 340.253 45.26 340.68 45.18C341.12 45.1 341.507 44.98 341.84 44.82C342.173 44.66 342.433 44.4667 342.62 44.24C342.82 44 342.92 43.72 342.92 43.4ZM334.16 36.3C334.653 36.2867 335.133 36.2733 335.6 36.26C336.067 36.2467 336.52 36.2267 336.96 36.2V31.02H334.16V36.3ZM352.968 41.08C352.955 41.1067 352.948 41.1267 352.948 41.14C352.948 41.1533 352.942 41.1667 352.928 41.18C352.902 41.2067 352.802 41.22 352.628 41.22H351.148C351.095 41.22 351.068 41.2067 351.068 41.18C351.028 41.14 351.008 41.0267 351.008 40.84L350.728 30.28C350.715 30 350.728 29.8333 350.768 29.78C350.808 29.7267 350.922 29.7 351.108 29.7H352.888C353.075 29.7 353.182 29.7267 353.208 29.78C353.248 29.8333 353.262 30 353.248 30.28L352.968 40.84V41.08ZM351.988 45.24C351.588 45.24 351.255 45.1067 350.988 44.84C350.722 44.56 350.588 44.2267 350.588 43.84C350.588 43.4533 350.722 43.12 350.988 42.84C351.255 42.56 351.588 42.42 351.988 42.42C352.388 42.42 352.722 42.56 352.988 42.84C353.268 43.12 353.408 43.4533 353.408 43.84C353.408 44.2267 353.268 44.56 352.988 44.84C352.722 45.1067 352.388 45.24 351.988 45.24Z" fill="#FF8E66"/>
</svg>
