<svg width="716" height="70" viewBox="0 0 716 70" fill="none" xmlns="http://www.w3.org/2000/svg">
<path d="M34.7 21.55C34.7 21.1167 34.9333 20.9 35.4 20.9H39.7C40.1333 20.9 40.35 21.1167 40.35 21.55V67.7C40.35 68.1333 40.1333 68.35 39.7 68.35H35.35C34.9167 68.35 34.7 68.1333 34.7 67.7V44.05H30.05V65.8C30.05 66.2667 29.8333 66.5 29.4 66.5H25.3C24.8333 66.5 24.6 66.2667 24.6 65.8V22.45C24.6 22.0167 24.8333 21.8 25.3 21.8H29.4C29.8333 21.8 30.05 22.0167 30.05 22.45V39.25H34.7V21.55ZM22.6 52.55C22.6667 52.85 22.6 53.0667 22.4 53.2C22.2 53.3333 22.0167 53.4333 21.85 53.5C20.75 53.8 19.4333 54.0667 17.9 54.3C16.4 54.5 14.8167 54.6667 13.15 54.8C11.5167 54.9333 9.88333 55.0333 8.25 55.1C6.61667 55.1333 5.16667 55.1 3.9 55C2.7 54.9333 1.78333 54.65 1.15 54.15C0.55 53.65 0.25 52.8167 0.25 51.65V28C0.25 26.8333 0.483334 26.0167 0.95 25.55C1.45 25.0833 2.33333 24.85 3.6 24.85H18.1C18.5667 24.85 18.8 25.0833 18.8 25.55V29C18.8 29.4333 18.5667 29.65 18.1 29.65H6.95C6.31667 29.65 6 29.9333 6 30.5V48.75C6 49.2833 6.08333 49.6333 6.25 49.8C6.45 49.9333 6.86667 50.0333 7.5 50.1C8.2 50.2 9.11667 50.2333 10.25 50.2C11.3833 50.1667 12.5833 50.1 13.85 50C15.15 49.8667 16.4167 49.7167 17.65 49.55C18.9167 49.3833 20.0167 49.2 20.95 49C21.1833 48.9333 21.4 48.9333 21.6 49C21.8 49.0667 21.9333 49.2333 22 49.5L22.6 52.55ZM60.5715 38C59.0048 38 57.7048 38.3833 56.6715 39.15C55.6715 39.8833 55.1715 40.8333 55.1715 42C55.1715 42.6 55.3048 43.15 55.5715 43.65C55.8382 44.15 56.2048 44.5833 56.6715 44.95C57.1715 45.3167 57.7548 45.6167 58.4215 45.85C59.0882 46.05 59.8048 46.15 60.5715 46.15C62.1382 46.15 63.4215 45.75 64.4215 44.95C65.4548 44.15 65.9715 43.1667 65.9715 42C65.9715 40.8333 65.4715 39.8833 64.4715 39.15C63.4715 38.3833 62.1715 38 60.5715 38ZM60.5715 33.65C62.0715 33.65 63.4882 33.8667 64.8215 34.3C66.1548 34.7 67.3048 35.2667 68.2715 36C69.2382 36.7333 70.0048 37.6167 70.5715 38.65C71.1382 39.65 71.4215 40.7667 71.4215 42C71.4215 43.2333 71.1382 44.3667 70.5715 45.4C70.0048 46.4333 69.2215 47.3333 68.2215 48.1C67.2548 48.8333 66.1048 49.4167 64.7715 49.85C63.4715 50.25 62.0548 50.45 60.5215 50.45C59.0215 50.45 57.6215 50.25 56.3215 49.85C55.0215 49.4167 53.8882 48.8333 52.9215 48.1C51.9548 47.3333 51.1882 46.4333 50.6215 45.4C50.0548 44.3667 49.7715 43.2333 49.7715 42C49.7715 40.7667 50.0548 39.65 50.6215 38.65C51.1882 37.6167 51.9548 36.7333 52.9215 36C53.8882 35.2667 55.0215 34.7 56.3215 34.3C57.6548 33.8667 59.0715 33.65 60.5715 33.65ZM74.1715 31.3C74.1715 31.5 74.0882 31.6833 73.9215 31.85C73.7882 31.9833 73.6215 32.05 73.4215 32.05H46.9215C46.7215 32.05 46.5382 31.9667 46.3715 31.8C46.2048 31.6333 46.1215 31.45 46.1215 31.25V28.45C46.1215 28.2833 46.2048 28.1167 46.3715 27.95C46.5715 27.75 46.7715 27.65 46.9715 27.65H73.4215C73.6215 27.65 73.7882 27.7333 73.9215 27.9C74.0882 28.0667 74.1715 28.25 74.1715 28.45V31.3ZM67.7215 24.95C67.7215 25.15 67.6382 25.35 67.4715 25.55C67.3382 25.7167 67.1382 25.8 66.8715 25.8H53.8215C53.6882 25.8 53.5215 25.7333 53.3215 25.6C53.1548 25.4667 53.0715 25.2667 53.0715 25V22.15C53.0715 21.9167 53.1548 21.7333 53.3215 21.6C53.5215 21.4667 53.6882 21.4 53.8215 21.4H66.8715C67.1048 21.4 67.3048 21.4833 67.4715 21.65C67.6382 21.8167 67.7215 22 67.7215 22.2V24.95ZM90.6715 39.15C90.6715 39.3167 90.5882 39.4667 90.4215 39.6C90.2882 39.7333 90.1215 39.8 89.9215 39.8H83.1715V50.7C83.1715 51.1667 82.9548 51.4 82.5215 51.4H78.0715C77.6382 51.4 77.4215 51.15 77.4215 50.65V21.55C77.4215 21.1167 77.6382 20.9 78.0715 20.9H82.5215C82.9548 20.9 83.1715 21.1167 83.1715 21.55V35H89.9215C90.1215 35 90.2882 35.0667 90.4215 35.2C90.5882 35.3 90.6715 35.4333 90.6715 35.6V39.15ZM83.1215 67.55C83.1215 67.7167 83.0382 67.8667 82.8715 68C82.7382 68.1667 82.5715 68.25 82.3715 68.25H78.1215C77.9215 68.25 77.7382 68.1667 77.5715 68C77.4382 67.8667 77.3715 67.7167 77.3715 67.55V58.95C77.3715 58.5833 77.2882 58.35 77.1215 58.25C76.9882 58.15 76.7548 58.1 76.4215 58.1H53.8215C53.6548 58.1 53.4882 58.05 53.3215 57.95C53.1882 57.8167 53.1215 57.6667 53.1215 57.5V54.05C53.1215 53.85 53.1882 53.7 53.3215 53.6C53.4882 53.4667 53.6548 53.4 53.8215 53.4H79.7715C81.0382 53.4 81.9048 53.6667 82.3715 54.2C82.8715 54.7333 83.1215 55.6333 83.1215 56.9V67.55ZM134.793 58.9C134.793 60.3 134.343 61.5833 133.443 62.75C132.576 63.9167 131.393 64.9167 129.893 65.75C128.393 66.5833 126.66 67.2167 124.693 67.65C122.726 68.1167 120.676 68.35 118.543 68.35C116.243 68.35 114.11 68.1167 112.143 67.65C110.21 67.2167 108.51 66.5833 107.043 65.75C105.61 64.95 104.476 63.9667 103.643 62.8C102.843 61.6333 102.443 60.3333 102.443 58.9C102.443 57.5 102.843 56.2333 103.643 55.1C104.476 53.9333 105.61 52.9333 107.043 52.1C108.51 51.2667 110.21 50.6333 112.143 50.2C114.11 49.7333 116.243 49.5 118.543 49.5C120.676 49.5 122.726 49.7333 124.693 50.2C126.66 50.6333 128.393 51.2667 129.893 52.1C131.393 52.9 132.576 53.8833 133.443 55.05C134.343 56.1833 134.793 57.4667 134.793 58.9ZM128.743 21.55C128.743 21.1167 128.976 20.9 129.443 20.9H133.743C134.176 20.9 134.393 21.1167 134.393 21.55V48.3C134.393 48.7667 134.176 49 133.743 49H129.393C128.96 49 128.743 48.7667 128.743 48.3V37.85H124.243V46.95C124.243 47.3833 124.026 47.6 123.593 47.6H119.493C119.026 47.6 118.793 47.3833 118.793 46.95V22.35C118.793 21.9167 119.026 21.7 119.493 21.7H123.593C124.026 21.7 124.243 21.9167 124.243 22.35V33.05H128.743V21.55ZM96.493 46.85C96.2263 47.0167 95.943 47.1167 95.643 47.15C95.343 47.15 95.0763 47.0167 94.843 46.75L92.993 44.6C92.493 44.0667 92.5596 43.5333 93.193 43C95.1263 41.6333 96.7263 40.2 97.993 38.7C99.2596 37.2 100.26 35.6333 100.993 34C101.76 32.3667 102.293 30.65 102.593 28.85C102.893 27.05 103.043 25.1667 103.043 23.2C103.043 22.9333 103.11 22.7333 103.243 22.6C103.41 22.4333 103.576 22.35 103.743 22.35L107.943 22.55C108.376 22.55 108.593 22.8167 108.593 23.35C108.593 26.05 108.343 28.5667 107.843 30.9C108.51 32.8333 109.626 34.7 111.193 36.5C112.76 38.3 114.493 39.8333 116.393 41.1C116.66 41.2667 116.776 41.45 116.743 41.65C116.743 41.8167 116.66 42.0167 116.493 42.25L114.593 44.8C114.193 45.3 113.71 45.3667 113.143 45C111.743 44.1333 110.343 43.0167 108.943 41.65C107.543 40.2833 106.393 38.8 105.493 37.2C104.46 39.1667 103.193 40.95 101.693 42.55C100.226 44.1167 98.493 45.55 96.493 46.85ZM128.893 59.05C128.893 58.2167 128.576 57.5 127.943 56.9C127.343 56.2667 126.543 55.75 125.543 55.35C124.576 54.9167 123.476 54.6 122.243 54.4C121.01 54.1667 119.776 54.05 118.543 54.05C117.21 54.05 115.926 54.1667 114.693 54.4C113.493 54.6 112.41 54.9167 111.443 55.35C110.51 55.75 109.76 56.2667 109.193 56.9C108.626 57.5 108.343 58.2167 108.343 59.05C108.343 59.85 108.626 60.55 109.193 61.15C109.76 61.7167 110.51 62.2 111.443 62.6C112.41 63 113.51 63.3 114.743 63.5C115.976 63.7 117.243 63.8 118.543 63.8C119.776 63.8 121.01 63.7 122.243 63.5C123.476 63.3 124.576 63 125.543 62.6C126.543 62.2 127.343 61.7167 127.943 61.15C128.576 60.55 128.893 59.85 128.893 59.05ZM190.628 35.85C190.628 37.1167 190.295 38.0167 189.628 38.55C188.995 39.0833 188.045 39.35 186.778 39.35H164.178C162.645 39.35 161.611 39.1 161.078 38.6C160.578 38.0667 160.328 37.15 160.328 35.85V25.75C160.328 24.4833 160.645 23.5833 161.278 23.05C161.945 22.4833 162.911 22.2 164.178 22.2H186.778C188.311 22.2 189.328 22.4667 189.828 23C190.361 23.5 190.628 24.4167 190.628 25.75V35.85ZM184.978 27.55C184.978 27.2833 184.928 27.1167 184.828 27.05C184.728 26.95 184.545 26.9 184.278 26.9H166.728C166.428 26.9 166.228 26.9333 166.128 27C166.061 27.0667 166.028 27.2333 166.028 27.5V34C166.028 34.3 166.061 34.4833 166.128 34.55C166.228 34.6167 166.428 34.65 166.728 34.65H184.278C184.578 34.65 184.761 34.6167 184.828 34.55C184.928 34.4833 184.978 34.3 184.978 34V27.55ZM198.028 47.75C198.028 47.9167 197.945 48.1 197.778 48.3C197.611 48.4667 197.445 48.55 197.278 48.55H178.778V57.6C178.778 58.0667 178.545 58.3 178.078 58.3H173.728C173.261 58.3 173.028 58.0667 173.028 57.6V48.55H153.728C153.528 48.55 153.361 48.4667 153.228 48.3C153.095 48.1 153.028 47.9167 153.028 47.75V44.5C153.028 44.3 153.095 44.1333 153.228 44C153.361 43.8333 153.528 43.75 153.728 43.75H197.278C197.445 43.75 197.611 43.8333 197.778 44C197.945 44.1667 198.028 44.3333 198.028 44.5V47.75ZM192.578 66.6C192.578 66.8 192.495 66.95 192.328 67.05C192.195 67.15 192.028 67.2 191.828 67.2H163.528C162.028 67.2 161.011 66.9167 160.478 66.35C159.978 65.8167 159.728 64.9 159.728 63.6V53.05C159.728 52.8833 159.795 52.7333 159.928 52.6C160.095 52.4333 160.261 52.35 160.428 52.35H164.728C164.928 52.35 165.095 52.4333 165.228 52.6C165.395 52.7333 165.478 52.8833 165.478 53.05V61.6C165.478 61.9333 165.545 62.15 165.678 62.25C165.811 62.35 166.045 62.4 166.378 62.4H191.828C191.995 62.4 192.161 62.4667 192.328 62.6C192.495 62.7 192.578 62.8333 192.578 63V66.6ZM215.45 34.3C216.983 34.3 218.416 34.5167 219.75 34.95C221.083 35.35 222.25 35.9167 223.25 36.65C224.25 37.3833 225.033 38.2833 225.6 39.35C226.166 40.3833 226.45 41.5167 226.45 42.75C226.45 43.8167 226.233 44.8167 225.8 45.75C225.4 46.65 224.816 47.45 224.05 48.15C223.316 48.85 222.433 49.45 221.4 49.95C220.366 50.4167 219.25 50.75 218.05 50.95V55.15C221.95 54.95 225.8 54.55 229.6 53.95C229.766 53.9167 229.95 53.9333 230.15 54C230.35 54.0333 230.466 54.1833 230.5 54.45L230.8 57.55C230.833 57.8167 230.783 58.0167 230.65 58.15C230.516 58.2833 230.366 58.3667 230.2 58.4C225.533 59.1667 220.7 59.6667 215.7 59.9C210.7 60.1333 205.8 60.2167 201 60.15C200.8 60.15 200.633 60.0833 200.5 59.95C200.366 59.7833 200.3 59.6 200.3 59.4V56.15C200.3 55.65 200.533 55.4 201 55.4C204.8 55.5 208.633 55.5 212.5 55.4V50.9C211.333 50.6667 210.25 50.3167 209.25 49.85C208.283 49.35 207.433 48.75 206.7 48.05C206 47.35 205.45 46.5667 205.05 45.7C204.65 44.8 204.45 43.8167 204.45 42.75C204.45 41.5167 204.733 40.3833 205.3 39.35C205.9 38.2833 206.7 37.3833 207.7 36.65C208.7 35.9167 209.866 35.35 211.2 34.95C212.533 34.5167 213.95 34.3 215.45 34.3ZM245.75 44.7C245.75 44.8667 245.666 45.0167 245.5 45.15C245.366 45.2833 245.216 45.35 245.05 45.35H238.5V67.7C238.5 68.1333 238.283 68.35 237.85 68.35H233.4C232.966 68.35 232.75 68.1333 232.75 67.7V21.55C232.75 21.1167 232.966 20.9 233.4 20.9H237.85C238.283 20.9 238.5 21.1167 238.5 21.55V40.55H245.05C245.216 40.55 245.366 40.6167 245.5 40.75C245.666 40.8833 245.75 41.0333 245.75 41.2V44.7ZM229.05 31.85C229.05 32.05 228.966 32.2333 228.8 32.4C228.666 32.5333 228.5 32.6 228.3 32.6H201.9C201.733 32.6 201.55 32.5167 201.35 32.35C201.183 32.1833 201.1 32 201.1 31.8V29C201.1 28.8333 201.2 28.6667 201.4 28.5C201.6 28.3333 201.783 28.25 201.95 28.25H228.3C228.5 28.25 228.666 28.3333 228.8 28.5C228.966 28.6333 229.05 28.8 229.05 29V31.85ZM215.45 38.75C213.85 38.75 212.516 39.1333 211.45 39.9C210.383 40.6333 209.85 41.5833 209.85 42.75C209.85 43.9167 210.366 44.8833 211.4 45.65C212.466 46.4167 213.816 46.8 215.45 46.8C217.083 46.8 218.416 46.4167 219.45 45.65C220.516 44.8833 221.05 43.9167 221.05 42.75C221.05 41.5833 220.516 40.6333 219.45 39.9C218.416 39.1333 217.083 38.75 215.45 38.75ZM222.7 25.35C222.7 25.5833 222.616 25.7833 222.45 25.95C222.316 26.1167 222.133 26.2 221.9 26.2H208.5C208.366 26.2 208.2 26.1333 208 26C207.833 25.8667 207.75 25.6667 207.75 25.4V22.5C207.75 22.2667 207.833 22.0833 208 21.95C208.2 21.8167 208.366 21.75 208.5 21.75H221.9C222.1 21.75 222.283 21.8333 222.45 22C222.616 22.1667 222.7 22.35 222.7 22.55V25.35ZM289.871 58.9C289.871 60.3 289.421 61.5833 288.521 62.75C287.654 63.9167 286.471 64.9167 284.971 65.75C283.471 66.5833 281.738 67.2167 279.771 67.65C277.804 68.1167 275.754 68.35 273.621 68.35C271.321 68.35 269.188 68.1167 267.221 67.65C265.288 67.2167 263.588 66.5833 262.121 65.75C260.688 64.95 259.554 63.9667 258.721 62.8C257.921 61.6333 257.521 60.3333 257.521 58.9C257.521 57.5 257.921 56.2333 258.721 55.1C259.554 53.9333 260.688 52.9333 262.121 52.1C263.588 51.2667 265.288 50.6333 267.221 50.2C269.188 49.7333 271.321 49.5 273.621 49.5C275.754 49.5 277.804 49.7333 279.771 50.2C281.738 50.6333 283.471 51.2667 284.971 52.1C286.471 52.9 287.654 53.8833 288.521 55.05C289.421 56.1833 289.871 57.4667 289.871 58.9ZM283.821 21.55C283.821 21.1167 284.054 20.9 284.521 20.9H288.821C289.254 20.9 289.471 21.1167 289.471 21.55V48.3C289.471 48.7667 289.254 49 288.821 49H284.471C284.038 49 283.821 48.7667 283.821 48.3V37.85H279.321V46.95C279.321 47.3833 279.104 47.6 278.671 47.6H274.571C274.104 47.6 273.871 47.3833 273.871 46.95V22.35C273.871 21.9167 274.104 21.7 274.571 21.7H278.671C279.104 21.7 279.321 21.9167 279.321 22.35V33.05H283.821V21.55ZM251.571 46.85C251.304 47.0167 251.021 47.1167 250.721 47.15C250.421 47.15 250.154 47.0167 249.921 46.75L248.071 44.6C247.571 44.0667 247.638 43.5333 248.271 43C250.204 41.6333 251.804 40.2 253.071 38.7C254.338 37.2 255.338 35.6333 256.071 34C256.838 32.3667 257.371 30.65 257.671 28.85C257.971 27.05 258.121 25.1667 258.121 23.2C258.121 22.9333 258.188 22.7333 258.321 22.6C258.488 22.4333 258.654 22.35 258.821 22.35L263.021 22.55C263.454 22.55 263.671 22.8167 263.671 23.35C263.671 26.05 263.421 28.5667 262.921 30.9C263.588 32.8333 264.704 34.7 266.271 36.5C267.838 38.3 269.571 39.8333 271.471 41.1C271.738 41.2667 271.854 41.45 271.821 41.65C271.821 41.8167 271.738 42.0167 271.571 42.25L269.671 44.8C269.271 45.3 268.788 45.3667 268.221 45C266.821 44.1333 265.421 43.0167 264.021 41.65C262.621 40.2833 261.471 38.8 260.571 37.2C259.538 39.1667 258.271 40.95 256.771 42.55C255.304 44.1167 253.571 45.55 251.571 46.85ZM283.971 59.05C283.971 58.2167 283.654 57.5 283.021 56.9C282.421 56.2667 281.621 55.75 280.621 55.35C279.654 54.9167 278.554 54.6 277.321 54.4C276.088 54.1667 274.854 54.05 273.621 54.05C272.288 54.05 271.004 54.1667 269.771 54.4C268.571 54.6 267.488 54.9167 266.521 55.35C265.588 55.75 264.838 56.2667 264.271 56.9C263.704 57.5 263.421 58.2167 263.421 59.05C263.421 59.85 263.704 60.55 264.271 61.15C264.838 61.7167 265.588 62.2 266.521 62.6C267.488 63 268.588 63.3 269.821 63.5C271.054 63.7 272.321 63.8 273.621 63.8C274.854 63.8 276.088 63.7 277.321 63.5C278.554 63.3 279.654 63 280.621 62.6C281.621 62.2 282.421 61.7167 283.021 61.15C283.654 60.55 283.971 59.85 283.971 59.05ZM333.643 68.4C333.643 68.5667 333.559 68.7333 333.393 68.9C333.259 69.0667 333.126 69.15 332.993 69.15H304.843C303.543 69.15 302.659 68.9 302.193 68.4C301.726 67.9333 301.493 67.1667 301.493 66.1V61.8C301.493 60.7333 301.709 59.9667 302.143 59.5C302.609 59 303.493 58.75 304.793 58.75H326.243C326.543 58.75 326.726 58.7333 326.793 58.7C326.859 58.6333 326.893 58.45 326.893 58.15V57.3C326.893 56.9333 326.859 56.7167 326.793 56.65C326.726 56.5833 326.526 56.55 326.193 56.55H302.093C301.926 56.55 301.759 56.4833 301.593 56.35C301.459 56.2167 301.393 56.0667 301.393 55.9V52.95C301.393 52.7833 301.459 52.6333 301.593 52.5C301.759 52.3667 301.926 52.3 302.093 52.3H329.093C330.459 52.3 331.359 52.5167 331.793 52.95C332.259 53.35 332.493 54.1167 332.493 55.25V59.7C332.493 60.8667 332.259 61.65 331.793 62.05C331.359 62.45 330.459 62.65 329.093 62.65H307.743C307.476 62.65 307.309 62.7 307.243 62.8C307.176 62.8667 307.143 63.0333 307.143 63.3V64.3C307.143 64.6 307.176 64.7667 307.243 64.8C307.309 64.8667 307.493 64.9 307.793 64.9H332.943C333.109 64.9 333.259 64.95 333.393 65.05C333.559 65.1833 333.643 65.35 333.643 65.55V68.4ZM294.893 46.6C294.893 46.4 294.959 46.2333 295.093 46.1C295.226 45.9333 295.393 45.85 295.593 45.85C297.493 45.9167 299.459 45.9667 301.493 46C303.526 46 305.576 45.9667 307.643 45.9V43.65C305.143 43.35 303.159 42.6833 301.693 41.65C300.226 40.5833 299.493 39.2667 299.493 37.7C299.493 36.8 299.759 35.9833 300.293 35.25C300.826 34.4833 301.559 33.8333 302.493 33.3C303.459 32.7667 304.593 32.35 305.893 32.05C307.226 31.75 308.693 31.6 310.293 31.6C311.893 31.6 313.343 31.75 314.643 32.05C315.976 32.35 317.109 32.7667 318.043 33.3C319.009 33.8333 319.759 34.4833 320.293 35.25C320.826 35.9833 321.093 36.8 321.093 37.7C321.093 39.2 320.376 40.4667 318.943 41.5C317.543 42.5333 315.659 43.2167 313.293 43.55V45.7C315.193 45.6333 317.026 45.5333 318.793 45.4C320.593 45.2667 322.326 45.1 323.993 44.9C324.159 44.8667 324.326 44.8833 324.493 44.95C324.693 45.0167 324.809 45.1667 324.843 45.4L325.093 48.05C325.126 48.2833 325.076 48.4833 324.943 48.65C324.809 48.8167 324.659 48.9167 324.493 48.95C322.193 49.2167 319.759 49.4333 317.193 49.6C314.659 49.7667 312.126 49.9 309.593 50C307.093 50.1 304.643 50.1667 302.243 50.2C299.843 50.2333 297.626 50.2167 295.593 50.15C295.393 50.15 295.226 50.0833 295.093 49.95C294.959 49.7833 294.893 49.6 294.893 49.4V46.6ZM339.793 39.1C339.793 39.2667 339.709 39.4167 339.543 39.55C339.409 39.6833 339.259 39.75 339.093 39.75H332.543V49.65C332.543 50.0833 332.326 50.3 331.893 50.3H327.443C327.009 50.3 326.793 50.0833 326.793 49.65V21.55C326.793 21.1167 327.009 20.9 327.443 20.9H331.893C332.326 20.9 332.543 21.1167 332.543 21.55V34.95H339.093C339.259 34.95 339.409 35.0167 339.543 35.15C339.709 35.25 339.793 35.3833 339.793 35.55V39.1ZM323.093 29.4C323.093 29.6 323.009 29.7833 322.843 29.95C322.709 30.0833 322.543 30.15 322.343 30.15H297.393C297.226 30.15 297.059 30.0667 296.893 29.9C296.726 29.7333 296.643 29.55 296.643 29.35V27C296.643 26.8333 296.726 26.6667 296.893 26.5C297.093 26.3333 297.276 26.25 297.443 26.25H322.343C322.543 26.25 322.709 26.3333 322.843 26.5C323.009 26.6333 323.093 26.8 323.093 27V29.4ZM316.893 23.8C316.893 24 316.809 24.1833 316.643 24.35C316.509 24.5167 316.309 24.6 316.043 24.6H303.743C303.609 24.6 303.443 24.5333 303.243 24.4C303.043 24.2667 302.943 24.0833 302.943 23.85V21.4C302.943 21.1667 303.043 20.9833 303.243 20.85C303.443 20.6833 303.609 20.6 303.743 20.6H316.043C316.276 20.6 316.476 20.7 316.643 20.9C316.809 21.0667 316.893 21.25 316.893 21.45V23.8ZM310.293 35.3C308.693 35.3 307.426 35.5333 306.493 36C305.593 36.4667 305.143 37.0333 305.143 37.7C305.143 38.3667 305.593 38.9333 306.493 39.4C307.426 39.8667 308.693 40.1 310.293 40.1C311.893 40.1 313.143 39.8667 314.043 39.4C314.976 38.9333 315.443 38.3667 315.443 37.7C315.443 37.0333 314.976 36.4667 314.043 36C313.143 35.5333 311.893 35.3 310.293 35.3ZM360.978 46.55C360.844 46.6167 360.661 46.6333 360.428 46.6C360.228 46.5333 360.044 46.3667 359.878 46.1L358.078 43C357.944 42.7333 357.928 42.5 358.028 42.3C358.161 42.0667 358.344 41.9167 358.578 41.85C361.078 40.9167 363.261 39.9167 365.128 38.85C367.028 37.75 368.628 36.5 369.928 35.1C371.228 33.7 372.261 32.1 373.028 30.3C373.794 28.5 374.294 26.4167 374.528 24.05C374.561 23.8167 374.628 23.5833 374.728 23.35C374.861 23.1167 375.061 23.0167 375.328 23.05L379.678 23.25C380.244 23.2833 380.511 23.65 380.478 24.35C380.444 25.2167 380.344 26.0333 380.178 26.8C380.578 28.4 381.278 29.9333 382.278 31.4C383.278 32.8667 384.494 34.2167 385.928 35.45C387.394 36.65 389.011 37.7167 390.778 38.65C392.544 39.5833 394.378 40.3167 396.278 40.85C396.478 40.9167 396.611 41.0667 396.678 41.3C396.744 41.5 396.728 41.6833 396.628 41.85L394.978 45.05C394.711 45.55 394.311 45.7333 393.778 45.6C392.244 45.2 390.694 44.6333 389.128 43.9C387.594 43.1667 386.111 42.3167 384.678 41.35C383.244 40.35 381.928 39.25 380.728 38.05C379.528 36.8167 378.511 35.5 377.678 34.1C376.011 37.0333 373.744 39.5333 370.878 41.6C368.011 43.6667 364.711 45.3167 360.978 46.55ZM400.128 59.5C400.128 59.6667 400.044 59.8333 399.878 60C399.711 60.1667 399.544 60.25 399.378 60.25H355.828C355.628 60.25 355.461 60.1833 355.328 60.05C355.194 59.8833 355.128 59.7 355.128 59.5V56.2C355.128 56 355.194 55.8333 355.328 55.7C355.461 55.5333 355.628 55.45 355.828 55.45H374.628V44.75C374.628 44.2833 374.861 44.05 375.328 44.05H379.678C379.878 44.05 380.044 44.1167 380.178 44.25C380.344 44.3833 380.428 44.55 380.428 44.75V55.45H399.378C399.544 55.45 399.711 55.5333 399.878 55.7C400.044 55.8667 400.128 56.0333 400.128 56.2V59.5ZM443.699 67.55C443.699 67.7167 443.616 67.8667 443.449 68C443.316 68.1667 443.183 68.25 443.049 68.25H416.049C414.749 68.25 413.866 68 413.399 67.5C412.933 67 412.699 66.2167 412.699 65.15V59.15C412.699 58.0833 412.916 57.3167 413.349 56.85C413.816 56.3833 414.699 56.15 415.999 56.15H436.199C436.466 56.15 436.633 56.1 436.699 56C436.766 55.9 436.799 55.7 436.799 55.4V53.7C436.799 53.3333 436.749 53.1167 436.649 53.05C436.549 52.95 436.349 52.9 436.049 52.9H413.299C413.133 52.9 412.966 52.85 412.799 52.75C412.666 52.6167 412.599 52.4667 412.599 52.3V49C412.599 48.8333 412.666 48.6833 412.799 48.55C412.966 48.3833 413.133 48.3 413.299 48.3H438.999C440.366 48.3 441.266 48.5333 441.699 49C442.166 49.4667 442.399 50.2667 442.399 51.4V57.35C442.399 58.5167 442.166 59.3167 441.699 59.75C441.266 60.1833 440.366 60.4 438.999 60.4H418.949C418.683 60.4 418.516 60.45 418.449 60.55C418.383 60.6167 418.349 60.7833 418.349 61.05V63.05C418.349 63.35 418.399 63.5167 418.499 63.55C418.599 63.6167 418.799 63.65 419.099 63.65H442.999C443.166 63.65 443.316 63.7167 443.449 63.85C443.616 63.9833 443.699 64.15 443.699 64.35V67.55ZM427.949 33.2H436.699V29.75H427.949C427.783 29.75 427.616 29.7 427.449 29.6C427.283 29.4667 427.199 29.3167 427.199 29.15V25.95C427.199 25.7833 427.283 25.6333 427.449 25.5C427.616 25.3667 427.783 25.3 427.949 25.3H436.699V21.55C436.699 21.1167 436.916 20.9 437.349 20.9H441.799C442.233 20.9 442.449 21.1167 442.449 21.55V45.35C442.449 45.5167 442.383 45.6833 442.249 45.85C442.116 45.9833 441.966 46.05 441.799 46.05H437.349C437.183 46.05 437.033 45.9833 436.899 45.85C436.766 45.6833 436.699 45.5167 436.699 45.35V37.6H427.949C427.783 37.6 427.616 37.55 427.449 37.45C427.283 37.3167 427.199 37.1667 427.199 37V33.8C427.199 33.6333 427.283 33.5 427.449 33.4C427.616 33.2667 427.783 33.2 427.949 33.2ZM407.599 46.15C406.866 46.5167 406.333 46.5 405.999 46.1L403.999 43.65C403.799 43.3833 403.699 43.1167 403.699 42.85C403.733 42.5833 403.916 42.3667 404.249 42.2C408.216 40 411.083 37.2667 412.849 34C414.616 30.7 415.499 26.75 415.499 22.15C415.499 21.9167 415.583 21.7333 415.749 21.6C415.949 21.4667 416.133 21.4 416.299 21.4L420.599 21.6C421.033 21.6 421.249 21.85 421.249 22.35C421.249 25.6833 420.766 28.8 419.799 31.7C420.399 32.7333 421.083 33.7167 421.849 34.65C422.616 35.55 423.433 36.3833 424.299 37.15C425.166 37.8833 426.049 38.55 426.949 39.15C427.849 39.7167 428.716 40.1667 429.549 40.5C430.149 40.7667 430.249 41.1833 429.849 41.75L428.199 44.45C427.866 44.95 427.416 45.0833 426.849 44.85C424.983 44.0167 423.249 42.9333 421.649 41.6C420.083 40.2333 418.683 38.7 417.449 37C416.283 38.9333 414.866 40.6667 413.199 42.2C411.566 43.7333 409.699 45.05 407.599 46.15ZM483.321 59.45C483.321 58.0833 482.537 57.0167 480.971 56.25C479.404 55.4833 477.204 55.1 474.371 55.1C471.571 55.1 469.387 55.4833 467.821 56.25C466.287 57.0167 465.521 58.0833 465.521 59.45C465.521 60.8167 466.287 61.8833 467.821 62.65C469.387 63.4167 471.571 63.8 474.371 63.8C477.204 63.8 479.404 63.4167 480.971 62.65C482.537 61.8833 483.321 60.8167 483.321 59.45ZM489.321 59.45C489.321 60.75 488.987 61.95 488.321 63.05C487.654 64.15 486.671 65.0833 485.371 65.85C484.104 66.6167 482.537 67.2167 480.671 67.65C478.837 68.0833 476.737 68.3 474.371 68.3C472.004 68.3 469.887 68.0833 468.021 67.65C466.187 67.2167 464.621 66.6167 463.321 65.85C462.054 65.0833 461.071 64.15 460.371 63.05C459.704 61.95 459.371 60.75 459.371 59.45C459.371 58.15 459.704 56.95 460.371 55.85C461.071 54.75 462.054 53.8167 463.321 53.05C464.621 52.25 466.187 51.6333 468.021 51.2C469.887 50.7667 472.004 50.55 474.371 50.55C476.737 50.55 478.837 50.7667 480.671 51.2C482.537 51.6333 484.104 52.25 485.371 53.05C486.671 53.8167 487.654 54.75 488.321 55.85C488.987 56.95 489.321 58.15 489.321 59.45ZM488.971 49.15C488.971 49.5833 488.754 49.8 488.321 49.8H483.871C483.437 49.8 483.221 49.5667 483.221 49.1V21.55C483.221 21.1167 483.437 20.9 483.871 20.9H488.321C488.754 20.9 488.971 21.1167 488.971 21.55V49.15ZM479.821 44.8C479.854 44.9667 479.804 45.1333 479.671 45.3C479.537 45.4333 479.387 45.5167 479.221 45.55C477.687 45.85 475.971 46.1167 474.071 46.35C472.204 46.5833 470.271 46.7667 468.271 46.9C466.271 47.0333 464.271 47.1333 462.271 47.2C460.271 47.2333 458.387 47.2167 456.621 47.15C455.321 47.0833 454.437 46.8167 453.971 46.35C453.504 45.8833 453.271 45.1167 453.271 44.05V35.6C453.271 34.6 453.487 33.8833 453.921 33.45C454.387 33.0167 455.154 32.8 456.221 32.8H468.121C468.454 32.8 468.654 32.7667 468.721 32.7C468.787 32.6333 468.821 32.4167 468.821 32.05V28.2C468.821 27.8333 468.787 27.6167 468.721 27.55C468.654 27.4833 468.454 27.45 468.121 27.45H454.171C454.004 27.45 453.837 27.3833 453.671 27.25C453.537 27.1167 453.471 26.9667 453.471 26.8V23.55C453.471 23.3833 453.537 23.25 453.671 23.15C453.837 23.0167 454.004 22.95 454.171 22.95H471.171C472.471 22.95 473.354 23.2167 473.821 23.75C474.287 24.25 474.521 25.0833 474.521 26.25V33.8C474.521 35.0333 474.254 35.8833 473.721 36.35C473.221 36.8167 472.437 37.05 471.371 37.05H459.671C459.404 37.05 459.221 37.1 459.121 37.2C459.021 37.2667 458.971 37.45 458.971 37.75V41.75C458.971 42.3167 459.287 42.6 459.921 42.6C461.421 42.6333 462.971 42.6333 464.571 42.6C466.204 42.5667 467.821 42.5 469.421 42.4C471.021 42.2667 472.587 42.1167 474.121 41.95C475.654 41.7833 477.104 41.5833 478.471 41.35C478.637 41.3167 478.804 41.3333 478.971 41.4C479.171 41.4333 479.287 41.55 479.321 41.75L479.821 44.8Z" fill="white"/>
<path d="M551.976 55.8C550.536 57.0267 548.883 58.0933 547.016 59C545.149 59.8533 543.176 60.5733 541.096 61.16C539.069 61.7467 536.936 62.2 534.696 62.52C532.509 62.7867 530.349 62.92 528.216 62.92H518.136C517.549 62.92 517.096 62.8933 516.776 62.84C516.456 62.7867 516.216 62.68 516.056 62.52C515.896 62.36 515.789 62.12 515.736 61.8C515.736 61.48 515.736 61.0267 515.736 60.44V4.04C515.736 3.4 515.736 2.89333 515.736 2.52C515.789 2.14666 515.896 1.88 516.056 1.72C516.216 1.56 516.456 1.45333 516.776 1.4C517.149 1.34666 517.656 1.32 518.296 1.32H532.136C542.376 1.32 550.136 4.33333 555.416 10.36C557.656 12.9733 559.309 16.0133 560.376 19.48C561.496 22.9467 562.056 27.1067 562.056 31.96C562.056 36.9733 561.176 41.56 559.416 45.72C557.709 49.8267 555.229 53.1867 551.976 55.8ZM547.096 17.24C545.549 15.2667 543.496 13.7467 540.936 12.68C538.429 11.6133 535.416 11.08 531.896 11.08H526.616V53.08H529.256C532.403 53.08 535.309 52.6267 537.976 51.72C540.643 50.8133 542.936 49.4533 544.856 47.64C546.776 45.8267 548.269 43.6133 549.336 41C550.456 38.3333 551.016 35.24 551.016 31.72C551.016 25.48 549.709 20.6533 547.096 17.24ZM577.221 63C575.941 63 575.168 62.84 574.901 62.52C574.634 62.2 574.501 61.3733 574.501 60.04V4.12C574.501 2.89333 574.608 2.12 574.821 1.8C575.088 1.48 575.834 1.32 577.061 1.32H605.541C606.448 1.32 606.954 1.48 607.061 1.8C607.168 2.12 607.221 2.6 607.221 3.24V9.48C607.221 10.2267 607.141 10.7333 606.981 11C606.821 11.2133 606.341 11.32 605.541 11.32H585.381V26.52H604.501C605.354 26.52 605.834 26.68 605.941 27C606.101 27.32 606.181 27.8 606.181 28.44V34.68C606.181 35.4267 606.074 35.9333 605.861 36.2C605.701 36.4133 605.248 36.52 604.501 36.52H585.381V53H606.341C607.194 53 607.674 53.1333 607.781 53.4C607.941 53.6667 608.021 54.1467 608.021 54.84V61.08C608.021 61.7733 607.941 62.28 607.781 62.6C607.674 62.8667 607.194 63 606.341 63H577.221ZM648.675 58.52C647.288 60.0667 645.448 61.3467 643.155 62.36C640.861 63.32 638.515 63.9067 636.115 64.12C634.835 64.28 633.368 64.3067 631.715 64.2C630.115 64.0933 628.541 63.9067 626.995 63.64C625.448 63.4267 624.035 63.1867 622.755 62.92C621.475 62.6 620.515 62.3067 619.875 62.04C619.288 61.7733 618.915 61.5333 618.755 61.32C618.595 61.0533 618.568 60.6 618.675 59.96L619.475 52.2C619.528 51.6667 619.635 51.3467 619.795 51.24C620.008 51.1333 620.435 51.2133 621.075 51.48C622.088 51.9067 623.235 52.3067 624.515 52.68C625.848 53 627.181 53.2667 628.515 53.48C629.901 53.64 631.235 53.7467 632.515 53.8C633.848 53.8533 635.048 53.7467 636.115 53.48C638.355 52.9467 639.955 52.0667 640.915 50.84C641.875 49.6133 642.355 47.8533 642.355 45.56C642.355 45.08 642.248 44.52 642.035 43.88C641.821 43.24 641.421 42.5467 640.835 41.8C640.248 41 639.448 40.1733 638.435 39.32C637.475 38.4667 636.221 37.56 634.675 36.6C631.741 34.7867 629.235 33.1067 627.155 31.56C625.128 30.0133 623.448 28.4933 622.115 27C620.835 25.4533 619.875 23.88 619.235 22.28C618.648 20.68 618.355 18.92 618.355 17C618.355 14.6 618.835 12.3867 619.795 10.36C620.808 8.28 622.168 6.49333 623.875 5C625.635 3.45333 627.688 2.25333 630.035 1.4C632.381 0.546665 634.915 0.119999 637.635 0.119999C640.355 0.119999 642.675 0.333331 644.595 0.759995C646.568 1.13333 648.195 1.61333 649.475 2.2C650.168 2.52 650.541 2.78666 650.595 3C650.701 3.21333 650.701 3.61333 650.595 4.2L649.075 11C648.968 11.48 648.781 11.7733 648.515 11.88C648.248 11.9867 647.715 11.9067 646.915 11.64C644.408 10.84 642.088 10.36 639.955 10.2C637.875 10.04 636.061 10.2267 634.515 10.76C632.968 11.2933 631.741 12.1467 630.835 13.32C629.981 14.44 629.555 15.88 629.555 17.64C629.555 18.92 630.115 20.2267 631.235 21.56C632.408 22.8933 634.275 24.3333 636.835 25.88C640.088 27.9067 642.781 29.72 644.915 31.32C647.101 32.92 648.835 34.4933 650.115 36.04C651.395 37.5333 652.301 39.08 652.835 40.68C653.368 42.2267 653.635 43.96 653.635 45.88C653.635 48.44 653.181 50.76 652.275 52.84C651.421 54.92 650.221 56.8133 648.675 58.52ZM709.148 55.08C706.642 58.2267 703.682 60.5467 700.268 62.04C696.855 63.5333 692.988 64.28 688.668 64.28C683.868 64.28 679.735 63.4267 676.268 61.72C672.855 59.96 670.028 57.6133 667.788 54.68C665.602 51.6933 663.975 48.28 662.908 44.44C661.895 40.5467 661.388 36.4667 661.388 32.2C661.388 28.04 661.922 24.04 662.988 20.2C664.055 16.3067 665.708 12.8933 667.948 9.96C670.188 6.97333 673.015 4.6 676.428 2.84C679.842 1.08 683.922 0.199998 688.668 0.199998C693.362 0.199998 697.415 1.10666 700.828 2.92C704.242 4.68 707.068 7.05333 709.308 10.04C711.548 12.9733 713.202 16.36 714.268 20.2C715.388 24.04 715.922 28.04 715.868 32.2C715.815 36.8933 715.255 41.16 714.188 45C713.122 48.7867 711.442 52.1467 709.148 55.08ZM688.668 10.12C685.895 10.12 683.495 10.76 681.468 12.04C679.495 13.2667 677.842 14.92 676.508 17C675.228 19.08 674.268 21.4533 673.628 24.12C673.042 26.7333 672.748 29.4267 672.748 32.2C672.748 34.9733 673.042 37.6933 673.628 40.36C674.268 42.9733 675.228 45.32 676.508 47.4C677.842 49.48 679.495 51.16 681.468 52.44C683.495 53.72 685.895 54.36 688.668 54.36C691.388 54.36 693.735 53.72 695.708 52.44C697.735 51.16 699.388 49.48 700.668 47.4C701.948 45.32 702.882 42.9467 703.468 40.28C704.108 37.6133 704.428 34.92 704.428 32.2C704.428 29.5333 704.108 26.8933 703.468 24.28C702.882 21.6133 701.948 19.24 700.668 17.16C699.388 15.08 697.762 13.4 695.788 12.12C693.815 10.7867 691.442 10.12 688.668 10.12Z" fill="#FF8E66"/>
</svg>
