<svg width="214" height="13" viewBox="0 0 214 13" fill="none" xmlns="http://www.w3.org/2000/svg">
<path d="M5.525 11.175C5.265 11.455 4.93 11.695 4.52 11.895C4.12 12.085 3.695 12.2 3.245 12.24C3.005 12.26 2.735 12.26 2.435 12.24C2.145 12.22 1.86 12.185 1.58 12.135C1.31 12.095 1.06 12.05 0.83 12C0.61 11.94 0.45 11.885 0.35 11.835C0.2 11.765 0.11 11.715 0.0800001 11.685C0.0500001 11.645 0.0450001 11.57 0.065 11.46L0.17 10.35C0.18 10.27 0.205 10.22 0.245 10.2C0.285 10.18 0.36 10.195 0.47 10.245C0.59 10.295 0.76 10.355 0.98 10.425C1.2 10.485 1.445 10.54 1.715 10.59C1.985 10.63 2.255 10.655 2.525 10.665C2.805 10.675 3.055 10.655 3.275 10.605C3.565 10.535 3.8 10.445 3.98 10.335C4.16 10.215 4.3 10.08 4.4 9.93C4.51 9.77 4.585 9.6 4.625 9.42C4.665 9.23 4.685 9.035 4.685 8.835C4.685 8.645 4.56 8.385 4.31 8.055C4.07 7.725 3.72 7.425 3.26 7.155C2.7 6.825 2.215 6.52 1.805 6.24C1.395 5.95 1.055 5.665 0.785 5.385C0.525 5.105 0.33 4.815 0.2 4.515C0.07 4.215 0.00500003 3.885 0.00500003 3.525C0.00500003 3.115 0.09 2.725 0.26 2.355C0.44 1.975 0.68 1.645 0.98 1.365C1.29 1.085 1.655 0.864999 2.075 0.705C2.505 0.534999 2.975 0.449999 3.485 0.449999C4.005 0.449999 4.43 0.485 4.76 0.555C5.1 0.615 5.39 0.69 5.63 0.78C5.74 0.82 5.805 0.865 5.825 0.915C5.855 0.955 5.86 1.01 5.84 1.08L5.645 2.04C5.625 2.15 5.59 2.225 5.54 2.265C5.5 2.305 5.425 2.305 5.315 2.265C5.165 2.215 5 2.17 4.82 2.13C4.64 2.08 4.455 2.04 4.265 2.01C4.075 1.98 3.89 1.96 3.71 1.95C3.54 1.94 3.385 1.945 3.245 1.965C2.685 2.055 2.29 2.24 2.06 2.52C1.84 2.79 1.73 3.135 1.73 3.555C1.73 3.805 1.86 4.085 2.12 4.395C2.38 4.695 2.76 4.995 3.26 5.295C3.89 5.675 4.405 6.015 4.805 6.315C5.215 6.615 5.535 6.905 5.765 7.185C6.005 7.455 6.17 7.73 6.26 8.01C6.36 8.29 6.41 8.595 6.41 8.925C6.41 9.805 6.115 10.555 5.525 11.175ZM16.8788 10.56C16.4288 11.13 15.8838 11.555 15.2438 11.835C14.6138 12.105 13.9038 12.24 13.1138 12.24C12.2338 12.24 11.4738 12.085 10.8338 11.775C10.2038 11.455 9.68383 11.025 9.27383 10.485C8.87383 9.945 8.57383 9.32 8.37383 8.61C8.18383 7.89 8.08883 7.13 8.08883 6.33C8.08883 5.55 8.18883 4.805 8.38883 4.095C8.58883 3.375 8.89383 2.745 9.30383 2.205C9.71383 1.665 10.2338 1.235 10.8638 0.915C11.4938 0.595 12.2438 0.435 13.1138 0.435C13.9638 0.435 14.7038 0.6 15.3338 0.929999C15.9638 1.25 16.4838 1.68 16.8938 2.22C17.3138 2.76 17.6238 3.385 17.8238 4.095C18.0338 4.805 18.1338 5.55 18.1238 6.33C18.1138 7.21 18.0088 8.005 17.8088 8.715C17.6088 9.415 17.2988 10.03 16.8788 10.56ZM13.1138 2.04C12.5338 2.04 12.0338 2.17 11.6138 2.43C11.2038 2.68 10.8638 3.01 10.5938 3.42C10.3338 3.82 10.1388 4.28 10.0088 4.8C9.88883 5.31 9.82883 5.82 9.82883 6.33C9.82883 6.84 9.88883 7.355 10.0088 7.875C10.1388 8.385 10.3338 8.845 10.5938 9.255C10.8638 9.665 11.2038 10 11.6138 10.26C12.0338 10.51 12.5338 10.635 13.1138 10.635C13.6938 10.635 14.1888 10.51 14.5988 10.26C15.0188 10 15.3588 9.665 15.6188 9.255C15.8788 8.845 16.0688 8.385 16.1888 7.875C16.3188 7.355 16.3838 6.84 16.3838 6.33C16.3838 5.83 16.3238 5.325 16.2038 4.815C16.0838 4.305 15.8888 3.845 15.6188 3.435C15.3588 3.025 15.0188 2.69 14.5988 2.43C14.1888 2.17 13.6938 2.04 13.1138 2.04ZM28.0705 11.865C27.7805 11.945 27.4305 12.02 27.0205 12.09C26.6105 12.16 26.1355 12.195 25.5955 12.195C24.7455 12.195 23.9705 12.055 23.2705 11.775C22.5805 11.495 21.9905 11.1 21.5005 10.59C21.0105 10.07 20.6305 9.45 20.3605 8.73C20.0905 8.01 19.9555 7.21 19.9555 6.33C19.9555 5.46 20.0855 4.665 20.3455 3.945C20.6155 3.225 20.9955 2.61 21.4855 2.1C21.9755 1.58 22.5655 1.18 23.2555 0.9C23.9555 0.609999 24.7355 0.464999 25.5955 0.464999C26.0455 0.464999 26.4855 0.489999 26.9155 0.539999C27.3455 0.579999 27.7355 0.654999 28.0855 0.765C28.1955 0.794999 28.2605 0.834999 28.2805 0.884999C28.3005 0.924999 28.3055 0.994999 28.2955 1.095L28.2655 2.205C28.2655 2.365 28.2405 2.445 28.1905 2.445C28.1405 2.445 28.0555 2.425 27.9355 2.385C27.1855 2.155 26.4055 2.04 25.5955 2.04C24.9755 2.04 24.4205 2.145 23.9305 2.355C23.4505 2.565 23.0405 2.86 22.7005 3.24C22.3705 3.62 22.1155 4.075 21.9355 4.605C21.7655 5.125 21.6805 5.7 21.6805 6.33C21.6805 6.95 21.7755 7.525 21.9655 8.055C22.1555 8.575 22.4205 9.03 22.7605 9.42C23.1105 9.8 23.5205 10.1 23.9905 10.32C24.4705 10.54 25.0005 10.65 25.5805 10.65C26.1005 10.65 26.5405 10.63 26.9005 10.59C27.2705 10.54 27.6105 10.46 27.9205 10.35C28.0505 10.3 28.1355 10.285 28.1755 10.305C28.2155 10.325 28.2355 10.37 28.2355 10.44L28.2955 11.505C28.3055 11.615 28.2955 11.695 28.2655 11.745C28.2455 11.795 28.1805 11.835 28.0705 11.865ZM31.8786 11.79C31.8786 11.92 31.8136 11.985 31.6836 11.985H30.3186C30.1886 11.985 30.1236 11.92 30.1236 11.79V0.869999C30.1236 0.739999 30.1886 0.674999 30.3186 0.674999H31.6836C31.8136 0.674999 31.8786 0.739999 31.8786 0.869999V11.79ZM41.9464 11.985C41.8764 11.985 41.8264 11.98 41.7964 11.97C41.7664 11.95 41.7364 11.905 41.7064 11.835L40.6264 9.135H35.7364L34.6564 11.835C34.6364 11.905 34.6114 11.95 34.5814 11.97C34.5514 11.98 34.5014 11.985 34.4314 11.985H33.0514C32.8714 11.985 32.8114 11.915 32.8714 11.775L37.2514 0.84C37.2814 0.76 37.3014 0.715 37.3114 0.705C37.3314 0.684999 37.3914 0.674999 37.4914 0.674999H38.8864C38.9764 0.674999 39.0314 0.684999 39.0514 0.705C39.0714 0.715 39.0964 0.76 39.1264 0.84L43.5064 11.775C43.5564 11.915 43.4964 11.985 43.3264 11.985H41.9464ZM36.3514 7.56H39.9964L38.1814 2.94L36.3514 7.56ZM45.0898 11.985C45.0398 11.985 44.9948 11.97 44.9548 11.94C44.9248 11.9 44.9098 11.855 44.9098 11.805V0.855C44.9098 0.805 44.9248 0.765 44.9548 0.734999C44.9948 0.694999 45.0398 0.674999 45.0898 0.674999H46.4398C46.4898 0.674999 46.5298 0.694999 46.5598 0.734999C46.5998 0.765 46.6198 0.805 46.6198 0.855V10.41H50.5048C50.6248 10.41 50.6848 10.475 50.6848 10.605V11.805C50.6848 11.855 50.6648 11.9 50.6248 11.94C50.5948 11.97 50.5548 11.985 50.5048 11.985H45.0898ZM53.6755 11.79C53.6755 11.92 53.6105 11.985 53.4805 11.985H52.1155C51.9855 11.985 51.9205 11.92 51.9205 11.79V0.869999C51.9205 0.739999 51.9855 0.674999 52.1155 0.674999H53.4805C53.6105 0.674999 53.6755 0.739999 53.6755 0.869999V11.79ZM55.0583 11.985C55.0083 11.985 54.9633 11.97 54.9233 11.94C54.8933 11.9 54.8783 11.855 54.8783 11.805V10.755C54.8783 10.715 54.8883 10.67 54.9083 10.62C54.9383 10.57 54.9633 10.52 54.9833 10.47L59.9933 2.25H55.2083C55.0783 2.25 55.0133 2.185 55.0133 2.055V0.855C55.0133 0.805 55.0333 0.765 55.0733 0.734999C55.1133 0.694999 55.1583 0.674999 55.2083 0.674999H61.8833C61.9333 0.674999 61.9783 0.694999 62.0183 0.734999C62.0583 0.765 62.0783 0.805 62.0783 0.855V1.935C62.0783 1.955 62.0633 1.995 62.0333 2.055C62.0133 2.115 61.9983 2.155 61.9883 2.175L56.9633 10.41H62.1083C62.2283 10.41 62.2883 10.475 62.2883 10.605V11.805C62.2883 11.855 62.2683 11.9 62.2283 11.94C62.1983 11.97 62.1583 11.985 62.1083 11.985H55.0583ZM64.5371 12C64.3371 12 64.2171 11.985 64.1771 11.955C64.1371 11.915 64.1171 11.785 64.1171 11.565V1.08C64.1171 0.88 64.1321 0.765 64.1621 0.734999C64.2021 0.694999 64.3171 0.674999 64.5071 0.674999H69.8321C69.9421 0.674999 70.0071 0.694999 70.0271 0.734999C70.0471 0.765 70.0571 0.825 70.0571 0.915V2.025C70.0571 2.125 70.0421 2.195 70.0121 2.235C69.9821 2.265 69.9221 2.28 69.8321 2.28H65.7671V5.34H69.6371C69.7871 5.34 69.8621 5.42 69.8621 5.58V6.705C69.8621 6.875 69.7871 6.96 69.6371 6.96H65.7671V10.38H70.0121C70.1521 10.38 70.2221 10.465 70.2221 10.635V11.76C70.2221 11.92 70.1521 12 70.0121 12H64.5371ZM77.0388 11.985C76.9188 11.985 76.8588 11.935 76.8588 11.835V0.884999C76.8588 0.744999 76.9188 0.674999 77.0388 0.674999H79.6338C80.7738 0.674999 81.6588 0.909999 82.2888 1.38C82.9288 1.85 83.2488 2.57 83.2488 3.54C83.2488 4.14 83.1238 4.655 82.8738 5.085C82.6338 5.505 82.2888 5.835 81.8388 6.075C82.1288 6.185 82.3788 6.33 82.5888 6.51C82.8088 6.69 82.9888 6.895 83.1288 7.125C83.2788 7.355 83.3888 7.6 83.4588 7.86C83.5288 8.11 83.5638 8.36 83.5638 8.61C83.5638 9.74 83.1938 10.585 82.4538 11.145C81.7138 11.705 80.6438 11.985 79.2438 11.985H77.0388ZM78.5688 2.265V5.31H79.3788C80.1688 5.31 80.7288 5.16 81.0588 4.86C81.3888 4.55 81.5538 4.155 81.5538 3.675C81.5538 3.255 81.4088 2.915 81.1188 2.655C80.8288 2.395 80.3338 2.265 79.6338 2.265H78.5688ZM78.5388 6.93V10.38H79.2738C80.2338 10.38 80.9038 10.23 81.2838 9.93C81.6738 9.62 81.8688 9.2 81.8688 8.67C81.8688 8.13 81.6588 7.705 81.2388 7.395C80.8188 7.085 80.1088 6.93 79.1088 6.93H78.5388ZM86.4805 12C86.2805 12 86.1605 11.985 86.1205 11.955C86.0805 11.915 86.0605 11.785 86.0605 11.565V1.08C86.0605 0.88 86.0755 0.765 86.1055 0.734999C86.1455 0.694999 86.2605 0.674999 86.4505 0.674999H91.7755C91.8855 0.674999 91.9505 0.694999 91.9705 0.734999C91.9905 0.765 92.0005 0.825 92.0005 0.915V2.025C92.0005 2.125 91.9855 2.195 91.9555 2.235C91.9255 2.265 91.8655 2.28 91.7755 2.28H87.7105V5.34H91.5805C91.7305 5.34 91.8055 5.42 91.8055 5.58V6.705C91.8055 6.875 91.7305 6.96 91.5805 6.96H87.7105V10.38H91.9555C92.0955 10.38 92.1655 10.465 92.1655 10.635V11.76C92.1655 11.92 92.0955 12 91.9555 12H86.4805ZM98.258 2.25V11.805C98.258 11.925 98.198 11.985 98.078 11.985H96.743C96.623 11.985 96.563 11.925 96.563 11.805V2.25H93.653C93.603 2.25 93.558 2.235 93.518 2.205C93.488 2.165 93.473 2.115 93.473 2.055V0.855C93.473 0.805 93.488 0.765 93.518 0.734999C93.558 0.694999 93.603 0.674999 93.653 0.674999H101.183C101.233 0.674999 101.273 0.694999 101.303 0.734999C101.343 0.765 101.363 0.805 101.363 0.855V2.055C101.363 2.185 101.303 2.25 101.183 2.25H98.258ZM106.432 2.25V11.805C106.432 11.925 106.372 11.985 106.252 11.985H104.917C104.797 11.985 104.737 11.925 104.737 11.805V2.25H101.827C101.777 2.25 101.732 2.235 101.692 2.205C101.662 2.165 101.647 2.115 101.647 2.055V0.855C101.647 0.805 101.662 0.765 101.692 0.734999C101.732 0.694999 101.777 0.674999 101.827 0.674999H109.357C109.407 0.674999 109.447 0.694999 109.477 0.734999C109.517 0.765 109.537 0.805 109.537 0.855V2.055C109.537 2.185 109.477 2.25 109.357 2.25H106.432ZM111.471 12C111.271 12 111.151 11.985 111.111 11.955C111.071 11.915 111.051 11.785 111.051 11.565V1.08C111.051 0.88 111.066 0.765 111.096 0.734999C111.136 0.694999 111.251 0.674999 111.441 0.674999H116.766C116.876 0.674999 116.941 0.694999 116.961 0.734999C116.981 0.765 116.991 0.825 116.991 0.915V2.025C116.991 2.125 116.976 2.195 116.946 2.235C116.916 2.265 116.856 2.28 116.766 2.28H112.701V5.34H116.571C116.721 5.34 116.796 5.42 116.796 5.58V6.705C116.796 6.875 116.721 6.96 116.571 6.96H112.701V10.38H116.946C117.086 10.38 117.156 10.465 117.156 10.635V11.76C117.156 11.92 117.086 12 116.946 12H111.471ZM125.753 11.985C125.643 11.985 125.563 11.98 125.513 11.97C125.473 11.95 125.428 11.905 125.378 11.835L123.083 7.395H121.373V11.79C121.373 11.92 121.308 11.985 121.178 11.985H119.843C119.723 11.985 119.663 11.92 119.663 11.79V0.855C119.663 0.805 119.678 0.765 119.708 0.734999C119.748 0.694999 119.793 0.674999 119.843 0.674999H122.873C123.983 0.674999 124.863 0.944999 125.513 1.485C126.163 2.025 126.488 2.865 126.488 4.005C126.488 4.735 126.328 5.355 126.008 5.865C125.688 6.365 125.248 6.745 124.688 7.005L127.193 11.775C127.273 11.915 127.213 11.985 127.013 11.985H125.753ZM121.373 2.25V5.835H122.603C123.263 5.835 123.788 5.695 124.178 5.415C124.568 5.125 124.763 4.65 124.763 3.99C124.763 3.42 124.608 2.99 124.298 2.7C123.998 2.4 123.593 2.25 123.083 2.25H121.373ZM136.783 2.25V11.805C136.783 11.925 136.723 11.985 136.603 11.985H135.268C135.148 11.985 135.088 11.925 135.088 11.805V2.25H132.178C132.128 2.25 132.083 2.235 132.043 2.205C132.013 2.165 131.998 2.115 131.998 2.055V0.855C131.998 0.805 132.013 0.765 132.043 0.734999C132.083 0.694999 132.128 0.674999 132.178 0.674999H139.708C139.758 0.674999 139.798 0.694999 139.828 0.734999C139.868 0.765 139.888 0.805 139.888 0.855V2.055C139.888 2.185 139.828 2.25 139.708 2.25H136.783ZM149.652 10.56C149.202 11.13 148.657 11.555 148.017 11.835C147.387 12.105 146.677 12.24 145.887 12.24C145.007 12.24 144.247 12.085 143.607 11.775C142.977 11.455 142.457 11.025 142.047 10.485C141.647 9.945 141.347 9.32 141.147 8.61C140.957 7.89 140.862 7.13 140.862 6.33C140.862 5.55 140.962 4.805 141.162 4.095C141.362 3.375 141.667 2.745 142.077 2.205C142.487 1.665 143.007 1.235 143.637 0.915C144.267 0.595 145.017 0.435 145.887 0.435C146.737 0.435 147.477 0.6 148.107 0.929999C148.737 1.25 149.257 1.68 149.667 2.22C150.087 2.76 150.397 3.385 150.597 4.095C150.807 4.805 150.907 5.55 150.897 6.33C150.887 7.21 150.782 8.005 150.582 8.715C150.382 9.415 150.072 10.03 149.652 10.56ZM145.887 2.04C145.307 2.04 144.807 2.17 144.387 2.43C143.977 2.68 143.637 3.01 143.367 3.42C143.107 3.82 142.912 4.28 142.782 4.8C142.662 5.31 142.602 5.82 142.602 6.33C142.602 6.84 142.662 7.355 142.782 7.875C142.912 8.385 143.107 8.845 143.367 9.255C143.637 9.665 143.977 10 144.387 10.26C144.807 10.51 145.307 10.635 145.887 10.635C146.467 10.635 146.962 10.51 147.372 10.26C147.792 10 148.132 9.665 148.392 9.255C148.652 8.845 148.842 8.385 148.962 7.875C149.092 7.355 149.157 6.84 149.157 6.33C149.157 5.83 149.097 5.325 148.977 4.815C148.857 4.305 148.662 3.845 148.392 3.435C148.132 3.025 147.792 2.69 147.372 2.43C146.962 2.17 146.467 2.04 145.887 2.04ZM161.924 11.64C161.744 11.73 161.524 11.81 161.264 11.88C161.004 11.94 160.719 11.995 160.409 12.045C160.109 12.095 159.799 12.13 159.479 12.15C159.169 12.18 158.874 12.195 158.594 12.195C157.764 12.195 156.994 12.065 156.284 11.805C155.584 11.545 154.979 11.165 154.469 10.665C153.959 10.165 153.559 9.55 153.269 8.82C152.979 8.09 152.834 7.26 152.834 6.33C152.834 5.48 152.969 4.7 153.239 3.99C153.509 3.27 153.894 2.65 154.394 2.13C154.894 1.61 155.499 1.205 156.209 0.915C156.919 0.625 157.719 0.48 158.609 0.48C159.209 0.48 159.744 0.515 160.214 0.584999C160.684 0.644999 161.129 0.739999 161.549 0.869999C161.659 0.9 161.724 0.935 161.744 0.975C161.764 1.005 161.769 1.04 161.759 1.08L161.579 2.355C161.569 2.425 161.544 2.475 161.504 2.505C161.464 2.535 161.389 2.53 161.279 2.49C160.809 2.34 160.364 2.235 159.944 2.175C159.524 2.105 159.074 2.07 158.594 2.07C157.994 2.07 157.449 2.175 156.959 2.385C156.469 2.585 156.049 2.875 155.699 3.255C155.349 3.625 155.074 4.07 154.874 4.59C154.684 5.11 154.589 5.69 154.589 6.33C154.589 7.02 154.684 7.635 154.874 8.175C155.074 8.705 155.349 9.155 155.699 9.525C156.059 9.885 156.484 10.16 156.974 10.35C157.464 10.53 158.004 10.62 158.594 10.62C159.044 10.62 159.434 10.6 159.764 10.56C160.094 10.52 160.339 10.46 160.499 10.38V7.365H158.024C157.964 7.365 157.914 7.35 157.874 7.32C157.844 7.28 157.829 7.235 157.829 7.185V5.985C157.829 5.925 157.849 5.875 157.889 5.835C157.939 5.795 157.989 5.775 158.039 5.775H161.879C162.029 5.775 162.124 5.8 162.164 5.85C162.204 5.9 162.224 6 162.224 6.15V11.1C162.224 11.25 162.194 11.365 162.134 11.445C162.074 11.525 162.004 11.59 161.924 11.64ZM165.582 12C165.382 12 165.262 11.985 165.222 11.955C165.182 11.915 165.162 11.785 165.162 11.565V1.08C165.162 0.88 165.177 0.765 165.207 0.734999C165.247 0.694999 165.362 0.674999 165.552 0.674999H170.877C170.987 0.674999 171.052 0.694999 171.072 0.734999C171.092 0.765 171.102 0.825 171.102 0.915V2.025C171.102 2.125 171.087 2.195 171.057 2.235C171.027 2.265 170.967 2.28 170.877 2.28H166.812V5.34H170.682C170.832 5.34 170.907 5.42 170.907 5.58V6.705C170.907 6.875 170.832 6.96 170.682 6.96H166.812V10.38H171.057C171.197 10.38 171.267 10.465 171.267 10.635V11.76C171.267 11.92 171.197 12 171.057 12H165.582ZM177.36 2.25V11.805C177.36 11.925 177.3 11.985 177.18 11.985H175.845C175.725 11.985 175.665 11.925 175.665 11.805V2.25H172.755C172.705 2.25 172.66 2.235 172.62 2.205C172.59 2.165 172.575 2.115 172.575 2.055V0.855C172.575 0.805 172.59 0.765 172.62 0.734999C172.66 0.694999 172.705 0.674999 172.755 0.674999H180.285C180.335 0.674999 180.375 0.694999 180.405 0.734999C180.445 0.765 180.465 0.805 180.465 0.855V2.055C180.465 2.185 180.405 2.25 180.285 2.25H177.36ZM182.158 11.985C182.108 11.985 182.063 11.97 182.023 11.94C181.993 11.9 181.978 11.855 181.978 11.805V0.855C181.978 0.805 181.993 0.765 182.023 0.734999C182.063 0.694999 182.108 0.674999 182.158 0.674999H183.493C183.543 0.674999 183.583 0.694999 183.613 0.734999C183.653 0.765 183.673 0.805 183.673 0.855V5.355H188.323V0.855C188.323 0.805 188.338 0.765 188.368 0.734999C188.408 0.694999 188.453 0.674999 188.503 0.674999H189.838C189.888 0.674999 189.928 0.694999 189.958 0.734999C189.998 0.765 190.018 0.805 190.018 0.855V11.805C190.018 11.855 189.998 11.9 189.958 11.94C189.928 11.97 189.888 11.985 189.838 11.985H188.503C188.383 11.985 188.323 11.925 188.323 11.805V6.93H183.673V11.805C183.673 11.925 183.613 11.985 183.493 11.985H182.158ZM193.297 12C193.097 12 192.977 11.985 192.937 11.955C192.897 11.915 192.877 11.785 192.877 11.565V1.08C192.877 0.88 192.892 0.765 192.922 0.734999C192.962 0.694999 193.077 0.674999 193.267 0.674999H198.592C198.702 0.674999 198.767 0.694999 198.787 0.734999C198.807 0.765 198.817 0.825 198.817 0.915V2.025C198.817 2.125 198.802 2.195 198.772 2.235C198.742 2.265 198.682 2.28 198.592 2.28H194.527V5.34H198.397C198.547 5.34 198.622 5.42 198.622 5.58V6.705C198.622 6.875 198.547 6.96 198.397 6.96H194.527V10.38H198.772C198.912 10.38 198.982 10.465 198.982 10.635V11.76C198.982 11.92 198.912 12 198.772 12H193.297ZM207.579 11.985C207.469 11.985 207.389 11.98 207.339 11.97C207.299 11.95 207.254 11.905 207.204 11.835L204.909 7.395H203.199V11.79C203.199 11.92 203.134 11.985 203.004 11.985H201.669C201.549 11.985 201.489 11.92 201.489 11.79V0.855C201.489 0.805 201.504 0.765 201.534 0.734999C201.574 0.694999 201.619 0.674999 201.669 0.674999H204.699C205.809 0.674999 206.689 0.944999 207.339 1.485C207.989 2.025 208.314 2.865 208.314 4.005C208.314 4.735 208.154 5.355 207.834 5.865C207.514 6.365 207.074 6.745 206.514 7.005L209.019 11.775C209.099 11.915 209.039 11.985 208.839 11.985H207.579ZM203.199 2.25V5.835H204.429C205.089 5.835 205.614 5.695 206.004 5.415C206.394 5.125 206.589 4.65 206.589 3.99C206.589 3.42 206.434 2.99 206.124 2.7C205.824 2.4 205.419 2.25 204.909 2.25H203.199ZM213.386 9.06C213.376 9.08 213.371 9.095 213.371 9.105C213.371 9.115 213.366 9.125 213.356 9.135C213.336 9.155 213.261 9.165 213.131 9.165H212.021C211.981 9.165 211.961 9.155 211.961 9.135C211.931 9.105 211.916 9.02 211.916 8.88L211.706 0.959999C211.696 0.749999 211.706 0.625 211.736 0.584999C211.766 0.544999 211.851 0.524999 211.991 0.524999H213.326C213.466 0.524999 213.546 0.544999 213.566 0.584999C213.596 0.625 213.606 0.749999 213.596 0.959999L213.386 8.88V9.06ZM212.651 12.18C212.351 12.18 212.101 12.08 211.901 11.88C211.701 11.67 211.601 11.42 211.601 11.13C211.601 10.84 211.701 10.59 211.901 10.38C212.101 10.17 212.351 10.065 212.651 10.065C212.951 10.065 213.201 10.17 213.401 10.38C213.611 10.59 213.716 10.84 213.716 11.13C213.716 11.42 213.611 11.67 213.401 11.88C213.201 12.08 212.951 12.18 212.651 12.18Z" fill="#FF8E66"/>
</svg>
