<svg width="221" height="39" viewBox="0 0 221 39" fill="none" xmlns="http://www.w3.org/2000/svg">
<path d="M0.968437 28.56C0.968437 28.16 1.16844 27.96 1.56844 27.96C3.08844 28.0133 4.6751 28.0267 6.32844 28C8.00844 27.9733 9.68844 27.9333 11.3684 27.88V24.44C10.4351 24.2533 9.56844 23.9733 8.76844 23.6C7.9951 23.2 7.3151 22.72 6.72844 22.16C6.16844 21.5733 5.72844 20.92 5.40844 20.2C5.08844 19.48 4.92844 18.6933 4.92844 17.84C4.92844 16.8533 5.1551 15.9467 5.60844 15.12C6.08844 14.2667 6.72844 13.5467 7.52844 12.96C8.32844 12.3733 9.26177 11.92 10.3284 11.6C11.3951 11.2533 12.5284 11.08 13.7284 11.08C14.9551 11.08 16.1018 11.2533 17.1684 11.6C18.2618 11.92 19.2084 12.3733 20.0084 12.96C20.8084 13.5467 21.4351 14.2667 21.8884 15.12C22.3418 15.9467 22.5684 16.8533 22.5684 17.84C22.5684 18.6933 22.3951 19.48 22.0484 20.2C21.7018 20.92 21.2218 21.56 20.6084 22.12C20.0218 22.68 19.3151 23.16 18.4884 23.56C17.6884 23.9333 16.8084 24.2 15.8484 24.36V27.68C17.6084 27.5733 19.3151 27.4533 20.9684 27.32C22.6484 27.1867 24.1951 27.0133 25.6084 26.8C25.7418 26.7733 25.8884 26.7867 26.0484 26.84C26.2351 26.8667 26.3418 26.9867 26.3684 27.2L26.6084 29.72C26.6351 29.9333 26.5951 30.0933 26.4884 30.2C26.3818 30.3067 26.2618 30.3733 26.1284 30.4C24.6351 30.64 22.8751 30.8533 20.8484 31.04C18.8218 31.2267 16.6884 31.3867 14.4484 31.52C12.2351 31.6267 10.0084 31.7067 7.76844 31.76C5.52844 31.8133 3.46177 31.8267 1.56844 31.8C1.38177 31.8 1.2351 31.7467 1.12844 31.64C1.02177 31.5067 0.968437 31.36 0.968437 31.2V28.56ZM32.6484 37.76C32.6484 38.1067 32.4618 38.28 32.0884 38.28H28.5684C28.4351 38.28 28.3018 38.2267 28.1684 38.12C28.0618 38.04 28.0084 37.92 28.0084 37.76V0.839998C28.0084 0.706665 28.0618 0.586665 28.1684 0.479998C28.3018 0.373331 28.4351 0.319997 28.5684 0.319997H32.0884C32.4618 0.319997 32.6484 0.493331 32.6484 0.839998V37.76ZM24.6484 9.08C24.6484 9.24 24.5818 9.38666 24.4484 9.52C24.3418 9.62666 24.2084 9.68 24.0484 9.68H2.88844C2.7551 9.68 2.62177 9.61333 2.48844 9.48C2.3551 9.34667 2.28844 9.2 2.28844 9.04V6.8C2.28844 6.66666 2.3551 6.53333 2.48844 6.4C2.64844 6.26666 2.7951 6.2 2.92844 6.2H24.0484C24.2084 6.2 24.3418 6.26666 24.4484 6.4C24.5818 6.50666 24.6484 6.64 24.6484 6.8V9.08ZM13.7284 14.64C12.4484 14.64 11.3818 14.9467 10.5284 15.56C9.6751 16.1467 9.24844 16.9067 9.24844 17.84C9.24844 18.7733 9.66177 19.5467 10.4884 20.16C11.3418 20.7733 12.4218 21.08 13.7284 21.08C15.0618 21.08 16.1418 20.7733 16.9684 20.16C17.8218 19.5467 18.2484 18.7733 18.2484 17.84C18.2484 16.9067 17.8218 16.1467 16.9684 15.56C16.1418 14.9467 15.0618 14.64 13.7284 14.64ZM19.4884 3.88C19.4884 4.06667 19.4218 4.22666 19.2884 4.36C19.1818 4.49333 19.0351 4.56 18.8484 4.56H8.24844C8.14177 4.56 8.00844 4.50666 7.84844 4.4C7.68844 4.29333 7.60844 4.13333 7.60844 3.92V1.6C7.60844 1.41333 7.68844 1.26667 7.84844 1.16C8.00844 1.05333 8.14177 0.999998 8.24844 0.999998H18.8484C19.0084 0.999998 19.1551 1.06666 19.2884 1.2C19.4218 1.33333 19.4884 1.48 19.4884 1.64V3.88ZM50.9056 4.4C50.2656 4.4 49.6523 4.50667 49.0656 4.72C48.479 4.90667 47.9723 5.17333 47.5456 5.52C47.119 5.84 46.7723 6.24 46.5056 6.72C46.2656 7.17333 46.1456 7.66667 46.1456 8.2C46.1456 8.76 46.2656 9.28 46.5056 9.76C46.7723 10.2133 47.119 10.6133 47.5456 10.96C47.9723 11.28 48.479 11.5467 49.0656 11.76C49.6523 11.9467 50.2656 12.04 50.9056 12.04C51.5723 12.04 52.1856 11.9467 52.7456 11.76C53.3323 11.5467 53.839 11.28 54.2656 10.96C54.719 10.6133 55.0656 10.2133 55.3056 9.76C55.5723 9.28 55.7056 8.76 55.7056 8.2C55.7056 7.66667 55.5723 7.17333 55.3056 6.72C55.0656 6.24 54.719 5.84 54.2656 5.52C53.839 5.17333 53.3323 4.90667 52.7456 4.72C52.1856 4.50667 51.5723 4.4 50.9056 4.4ZM50.9056 0.879997C52.2656 0.879997 53.5056 1.08 54.6256 1.48C55.7723 1.85333 56.7456 2.37333 57.5456 3.04C58.3723 3.68 59.0123 4.44 59.4656 5.32C59.919 6.2 60.1456 7.13333 60.1456 8.12C60.1456 9.16 59.919 10.1333 59.4656 11.04C59.0123 11.9467 58.3723 12.7333 57.5456 13.4C56.7456 14.04 55.7723 14.56 54.6256 14.96C53.5056 15.3333 52.2656 15.52 50.9056 15.52C49.5456 15.52 48.3056 15.3333 47.1856 14.96C46.0656 14.56 45.0923 14.04 44.2656 13.4C43.4656 12.7333 42.839 11.9467 42.3856 11.04C41.959 10.1333 41.7456 9.16 41.7456 8.12C41.7456 7.13333 41.959 6.2 42.3856 5.32C42.839 4.44 43.4656 3.68 44.2656 3.04C45.0923 2.37333 46.0656 1.85333 47.1856 1.48C48.3056 1.08 49.5456 0.879997 50.9056 0.879997ZM70.2256 29.64C70.2256 30.0133 70.0523 30.2 69.7056 30.2H66.1456C65.799 30.2 65.6256 30.0133 65.6256 29.64V26H58.7856C58.6523 26 58.519 25.9467 58.3856 25.84C58.279 25.7333 58.2256 25.6133 58.2256 25.48V22.96C58.2256 22.8267 58.279 22.72 58.3856 22.64C58.519 22.5333 58.6523 22.48 58.7856 22.48H65.6256V0.839998C65.6256 0.493331 65.799 0.319997 66.1456 0.319997H69.7056C70.0523 0.319997 70.2256 0.493331 70.2256 0.839998V29.64ZM64.2656 19.24C64.2923 19.4533 64.239 19.6267 64.1056 19.76C63.999 19.8667 63.879 19.9467 63.7456 20C62.999 20.1333 62.1723 20.2533 61.2656 20.36C60.359 20.44 59.4256 20.52 58.4656 20.6C57.5056 20.68 56.5456 20.76 55.5856 20.84C54.6523 20.8933 53.7723 20.9333 52.9456 20.96V26.72C52.9456 26.88 52.879 27.0267 52.7456 27.16C52.639 27.2667 52.5056 27.32 52.3456 27.32H49.0256C48.8656 27.32 48.719 27.2667 48.5856 27.16C48.479 27.0267 48.4256 26.88 48.4256 26.72V21.28C47.6256 21.3067 46.799 21.3333 45.9456 21.36C45.119 21.36 44.3056 21.3733 43.5056 21.4C42.7056 21.4267 41.9456 21.44 41.2256 21.44C40.5056 21.44 39.879 21.4267 39.3456 21.4C39.1856 21.4 39.0523 21.3333 38.9456 21.2C38.839 21.0667 38.7856 20.92 38.7856 20.76V18.28C38.7856 18.12 38.839 17.9867 38.9456 17.88C39.0523 17.7467 39.1856 17.68 39.3456 17.68C41.1856 17.68 43.1856 17.6667 45.3456 17.64C47.5323 17.5867 49.7056 17.52 51.8656 17.44C54.0256 17.3333 56.1056 17.2133 58.1056 17.08C60.1056 16.92 61.839 16.7333 63.3056 16.52C63.439 16.4933 63.5723 16.52 63.7056 16.6C63.8656 16.68 63.959 16.8 63.9856 16.96L64.2656 19.24ZM71.1056 37.12C71.1056 37.28 71.039 37.4 70.9056 37.48C70.799 37.56 70.679 37.6 70.5456 37.6H47.8656C46.639 37.6 45.8123 37.3867 45.3856 36.96C44.9856 36.5333 44.7856 35.8 44.7856 34.76V29.04C44.7856 28.9067 44.839 28.7867 44.9456 28.68C45.079 28.5467 45.2123 28.48 45.3456 28.48H48.7856C48.9456 28.48 49.079 28.5467 49.1856 28.68C49.319 28.7867 49.3856 28.9067 49.3856 29.04V33.12C49.3856 33.3867 49.439 33.56 49.5456 33.64C49.6523 33.72 49.8523 33.76 50.1456 33.76H70.5456C70.679 33.76 70.799 33.8133 70.9056 33.92C71.039 34.0267 71.1056 34.1467 71.1056 34.28V37.12ZM108.723 37.04C108.723 37.2 108.656 37.32 108.523 37.4C108.389 37.48 108.256 37.52 108.123 37.52H87.4028C86.2028 37.52 85.3895 37.3067 84.9628 36.88C84.5628 36.4533 84.3628 35.72 84.3628 34.68V25.64C84.3628 25.5067 84.4161 25.3867 84.5228 25.28C84.6561 25.1467 84.7895 25.08 84.9228 25.08H88.4028C88.5628 25.08 88.6961 25.1467 88.8028 25.28C88.9361 25.3867 89.0028 25.5067 89.0028 25.64V33.04C89.0028 33.3067 89.0561 33.48 89.1628 33.56C89.2695 33.64 89.4561 33.68 89.7228 33.68H108.123C108.256 33.68 108.389 33.7333 108.523 33.84C108.656 33.92 108.723 34.0267 108.723 34.16V37.04ZM107.483 26.76C107.483 27.1067 107.309 27.28 106.963 27.28H103.403C103.056 27.28 102.883 27.0933 102.883 26.72V0.839998C102.883 0.493331 103.056 0.319997 103.403 0.319997H106.963C107.309 0.319997 107.483 0.493331 107.483 0.839998V26.76ZM97.2028 11.6C97.2028 12.9333 96.9628 14.1867 96.4828 15.36C96.0028 16.5333 95.3228 17.56 94.4428 18.44C93.5895 19.2933 92.5628 19.9733 91.3628 20.48C90.1628 20.9867 88.8428 21.24 87.4028 21.24C85.9628 21.24 84.6561 20.9867 83.4828 20.48C82.3095 19.9733 81.2961 19.2933 80.4428 18.44C79.5895 17.56 78.9228 16.5333 78.4428 15.36C77.9895 14.1867 77.7628 12.9333 77.7628 11.6C77.7628 10.32 77.9895 9.10667 78.4428 7.96C78.9228 6.78666 79.5895 5.76 80.4428 4.88C81.2961 3.97333 82.3095 3.26667 83.4828 2.76C84.6561 2.22666 85.9628 1.96 87.4028 1.96C88.8428 1.96 90.1628 2.22666 91.3628 2.76C92.5628 3.26667 93.5895 3.97333 94.4428 4.88C95.3228 5.76 96.0028 6.78666 96.4828 7.96C96.9628 9.10667 97.2028 10.32 97.2028 11.6ZM92.6428 11.68C92.6428 10.9067 92.5095 10.1867 92.2428 9.52C92.0028 8.82667 91.6428 8.22667 91.1628 7.72C90.7095 7.21333 90.1628 6.81333 89.5228 6.52C88.8828 6.22667 88.1761 6.08 87.4028 6.08C86.6295 6.08 85.9228 6.22667 85.2828 6.52C84.6695 6.81333 84.1361 7.21333 83.6828 7.72C83.2295 8.22667 82.8695 8.82667 82.6028 9.52C82.3628 10.1867 82.2428 10.9067 82.2428 11.68C82.2428 12.48 82.3628 13.2267 82.6028 13.92C82.8695 14.6133 83.2295 15.2133 83.6828 15.72C84.1361 16.2267 84.6695 16.6267 85.2828 16.92C85.9228 17.2133 86.6295 17.36 87.4028 17.36C88.1761 17.36 88.8828 17.2133 89.5228 16.92C90.1628 16.6267 90.7095 16.2267 91.1628 15.72C91.6428 15.2133 92.0028 14.6133 92.2428 13.92C92.5095 13.2267 92.6428 12.48 92.6428 11.68ZM143.86 31.28C143.86 33.4667 142.767 35.1867 140.58 36.44C138.393 37.6933 135.273 38.32 131.22 38.32C127.167 38.32 124.047 37.6933 121.86 36.44C119.673 35.1867 118.58 33.4667 118.58 31.28C118.58 29.12 119.673 27.4133 121.86 26.16C124.073 24.88 127.193 24.24 131.22 24.24C135.247 24.24 138.353 24.88 140.54 26.16C142.753 27.4133 143.86 29.12 143.86 31.28ZM142.3 3.08C142.3 3.88 141.793 4.82667 140.78 5.92C140.273 6.45333 139.66 6.97333 138.94 7.48C138.247 7.98666 137.46 8.50667 136.58 9.04C137.247 9.22667 137.98 9.42667 138.78 9.64C139.607 9.82666 140.447 10.0133 141.3 10.2C142.153 10.3867 142.993 10.5733 143.82 10.76C144.673 10.92 145.46 11.0533 146.18 11.16C146.393 11.1867 146.553 11.2667 146.66 11.4C146.793 11.5333 146.807 11.72 146.7 11.96L145.78 14.16C145.727 14.32 145.62 14.4533 145.46 14.56C145.3 14.6667 145.113 14.6933 144.9 14.64C143.967 14.5333 142.94 14.36 141.82 14.12C140.727 13.88 139.593 13.6133 138.42 13.32C137.273 13.0267 136.113 12.7067 134.94 12.36C133.793 12.0133 132.727 11.6667 131.74 11.32C129.607 12.1733 127.327 12.9467 124.9 13.64C122.5 14.3333 120.1 14.88 117.7 15.28C117.487 15.3333 117.3 15.3067 117.14 15.2C117.007 15.0933 116.913 14.9733 116.86 14.84L116.18 12.44C116.127 12.28 116.14 12.1333 116.22 12C116.327 11.84 116.447 11.7467 116.58 11.72C118.607 11.2933 120.487 10.8667 122.22 10.44C123.953 9.98667 125.54 9.50667 126.98 9C128.447 8.49333 129.793 7.97333 131.02 7.44C132.247 6.88 133.367 6.29333 134.38 5.68C134.54 5.57333 134.687 5.48 134.82 5.4C134.953 5.32 135.033 5.25333 135.06 5.2C135.087 5.14666 135.047 5.10666 134.94 5.08C134.833 5.02667 134.633 5 134.34 5H119.74C119.393 5 119.22 4.81333 119.22 4.44V1.76C119.22 1.44 119.393 1.28 119.74 1.28H139.06C141.167 1.28 142.247 1.88 142.3 3.08ZM149.22 20.72C149.22 20.88 149.153 21.0267 149.02 21.16C148.887 21.2933 148.753 21.36 148.62 21.36H113.82C113.447 21.36 113.26 21.1467 113.26 20.72V18.08C113.26 17.7067 113.447 17.52 113.82 17.52H148.62C148.753 17.52 148.887 17.5867 149.02 17.72C149.153 17.8267 149.22 17.9467 149.22 18.08V20.72ZM139.3 31.32C139.3 30.36 138.62 29.5333 137.26 28.84C135.9 28.12 133.887 27.76 131.22 27.76C128.553 27.76 126.54 28.12 125.18 28.84C123.82 29.5333 123.14 30.36 123.14 31.32C123.14 32.2533 123.82 33.08 125.18 33.8C126.54 34.4933 128.553 34.84 131.22 34.84C133.887 34.84 135.9 34.4933 137.26 33.8C138.62 33.08 139.3 32.2533 139.3 31.32ZM174.597 11.64C174.597 11.8 174.531 11.9467 174.397 12.08C174.291 12.2133 174.157 12.28 173.997 12.28H152.317C152.157 12.28 151.997 12.2133 151.837 12.08C151.704 11.92 151.637 11.76 151.637 11.6V9.16C151.637 9.02666 151.704 8.89333 151.837 8.76C151.997 8.62667 152.157 8.56 152.317 8.56H173.997C174.157 8.56 174.291 8.62667 174.397 8.76C174.531 8.86667 174.597 9 174.597 9.16V11.64ZM169.477 5.24C169.477 5.4 169.411 5.54667 169.277 5.68C169.171 5.81333 169.024 5.88 168.837 5.88H157.597C157.491 5.88 157.357 5.82667 157.197 5.72C157.064 5.61333 156.997 5.46667 156.997 5.28V2.64C156.997 2.45333 157.064 2.30667 157.197 2.2C157.357 2.09333 157.491 2.04 157.597 2.04H168.837C168.997 2.04 169.144 2.10667 169.277 2.24C169.411 2.37333 169.477 2.52 169.477 2.68V5.24ZM163.437 17.88C162.077 17.88 160.984 18.3067 160.157 19.16C159.357 19.9867 158.957 21.0667 158.957 22.4C158.957 23.7067 159.357 24.7867 160.157 25.64C160.984 26.4933 162.077 26.92 163.437 26.92C164.851 26.92 165.957 26.4933 166.757 25.64C167.557 24.7867 167.957 23.7067 167.957 22.4C167.957 21.0667 167.557 19.9867 166.757 19.16C165.957 18.3067 164.851 17.88 163.437 17.88ZM163.437 14.24C164.744 14.24 165.944 14.44 167.037 14.84C168.131 15.2133 169.064 15.76 169.837 16.48C170.611 17.1733 171.211 18.0133 171.637 19C172.091 19.9867 172.317 21.08 172.317 22.28C172.317 23.48 172.091 24.5867 171.637 25.6C171.211 26.6133 170.597 27.4933 169.797 28.24C169.024 28.96 168.091 29.5333 166.997 29.96C165.904 30.3867 164.704 30.6 163.397 30.6C162.091 30.6 160.891 30.4 159.797 30C158.731 29.5733 157.811 28.9867 157.037 28.24C156.264 27.4933 155.664 26.6133 155.237 25.6C154.811 24.5867 154.597 23.48 154.597 22.28C154.597 21.1067 154.811 20.0267 155.237 19.04C155.664 18.0533 156.264 17.2133 157.037 16.52C157.837 15.8 158.771 15.24 159.837 14.84C160.931 14.44 162.131 14.24 163.437 14.24ZM187.437 18.72C187.437 18.8533 187.371 18.9733 187.237 19.08C187.131 19.1867 186.997 19.24 186.837 19.24H181.437V37.76C181.437 38.1067 181.264 38.28 180.917 38.28H177.357C177.011 38.28 176.837 38.1067 176.837 37.76V0.839998C176.837 0.493331 177.011 0.319997 177.357 0.319997H180.917C181.264 0.319997 181.437 0.493331 181.437 0.839998V15.4H186.837C186.997 15.4 187.131 15.4533 187.237 15.56C187.371 15.64 187.437 15.7467 187.437 15.88V18.72ZM220.694 37.76C220.694 38.1067 220.521 38.28 220.174 38.28H216.614C216.268 38.28 216.094 38.1067 216.094 37.76V0.839998C216.094 0.493331 216.268 0.319997 216.614 0.319997H220.174C220.521 0.319997 220.694 0.493331 220.694 0.839998V37.76ZM209.894 6.32C209.681 8.90667 209.134 11.3467 208.254 13.64C207.401 15.9333 206.254 18.0667 204.814 20.04C203.401 22.0133 201.721 23.84 199.774 25.52C197.828 27.2 195.681 28.7333 193.334 30.12C193.121 30.2533 192.881 30.3067 192.614 30.28C192.374 30.2267 192.188 30.0933 192.054 29.88L190.694 27.76C190.561 27.5467 190.521 27.3467 190.574 27.16C190.628 26.9467 190.748 26.7867 190.934 26.68C194.908 24.3333 198.081 21.6267 200.454 18.56C202.854 15.4933 204.414 12.1333 205.134 8.48C205.241 7.94667 205.214 7.6 205.054 7.44C204.894 7.25333 204.561 7.16 204.054 7.16H192.774C192.401 7.16 192.214 6.97333 192.214 6.6V3.8C192.214 3.48 192.401 3.32 192.774 3.32H207.094C208.294 3.32 209.081 3.57333 209.454 4.08C209.828 4.56 209.974 5.30667 209.894 6.32Z" fill="white"/>
</svg>
