<svg width="100" height="100" viewBox="0 0 100 100" fill="none" xmlns="http://www.w3.org/2000/svg">
<circle opacity="0.1" cx="50" cy="50" r="50" fill="#FF8E66"/>
<path d="M31.25 18.75C27.9348 18.75 24.7554 20.067 22.4112 22.4112C20.067 24.7554 18.75 27.9348 18.75 31.25V50C18.75 53.3152 20.067 56.4946 22.4112 58.8388C24.7554 61.183 27.9348 62.5 31.25 62.5H50.5312C51.2684 64.585 52.719 66.3423 54.6265 67.4613C56.534 68.5803 58.7757 68.9889 60.9554 68.615C63.1351 68.241 65.1124 67.1085 66.5378 65.4177C67.9633 63.7268 68.7451 61.5865 68.7451 59.375C68.7451 57.1635 67.9633 55.0231 66.5378 53.3323C65.1124 51.6415 63.1351 50.509 60.9554 50.135C58.7757 49.761 56.534 50.1697 54.6265 51.2886C52.719 52.4076 51.2684 54.165 50.5312 56.25H31.25C29.5924 56.25 28.0027 55.5915 26.8306 54.4194C25.6585 53.2473 25 51.6576 25 50V31.25C25 29.5924 25.6585 28.0027 26.8306 26.8306C28.0027 25.6585 29.5924 25 31.25 25H50C51.6576 25 53.2473 25.6585 54.4194 26.8306C55.5915 28.0027 56.25 29.5924 56.25 31.25H62.5C62.5 27.9348 61.183 24.7554 58.8388 22.4112C56.4946 20.067 53.3152 18.75 50 18.75H31.25ZM68.75 81.25C72.0652 81.25 75.2446 79.933 77.5888 77.5888C79.933 75.2446 81.25 72.0652 81.25 68.75V50C81.25 46.6848 79.933 43.5054 77.5888 41.1612C75.2446 38.817 72.0652 37.5 68.75 37.5H49.4687C48.7316 35.415 47.281 33.6576 45.3735 32.5386C43.466 31.4197 41.2243 31.011 39.0446 31.385C36.8649 31.759 34.8876 32.8915 33.4622 34.5823C32.0367 36.2731 31.2549 38.4135 31.2549 40.625C31.2549 42.8365 32.0367 44.9768 33.4622 46.6677C34.8876 48.3585 36.8649 49.491 39.0446 49.865C41.2243 50.239 43.466 49.8303 45.3735 48.7113C47.281 47.5924 48.7316 45.835 49.4687 43.75H68.75C70.4076 43.75 71.9973 44.4085 73.1694 45.5806C74.3415 46.7527 75 48.3424 75 50V68.75C75 70.4076 74.3415 71.9973 73.1694 73.1694C71.9973 74.3415 70.4076 75 68.75 75H50C48.3424 75 46.7527 74.3415 45.5806 73.1694C44.4085 71.9973 43.75 70.4076 43.75 68.75H37.5C37.5 72.0652 38.817 75.2446 41.1612 77.5888C43.5054 79.933 46.6848 81.25 50 81.25H68.75Z" fill="#FF8E66"/>
</svg>
