<svg width="100" height="100" viewBox="0 0 100 100" fill="none" xmlns="http://www.w3.org/2000/svg">
<circle opacity="0.1" cx="50" cy="50" r="50" fill="#FBCC23"/>
<path d="M31.25 59.375H73.4375C73.8677 59.3747 74.2896 59.2561 74.6568 59.032C75.024 58.8079 75.3225 58.4871 75.5196 58.1046C75.7166 57.7222 75.8046 57.2929 75.7738 56.8638C75.7431 56.4347 75.5948 56.0223 75.3453 55.6719L64.5969 40.625L75.3453 25.5781C75.5948 25.2277 75.7431 24.8153 75.7738 24.3862C75.8046 23.9571 75.7166 23.5278 75.5196 23.1454C75.3225 22.7629 75.024 22.4421 74.6568 22.218C74.2896 21.9939 73.8677 21.8753 73.4375 21.875H28.9063C28.2846 21.875 27.6885 22.1219 27.249 22.5615C26.8094 23.001 26.5625 23.5971 26.5625 24.2188V75.7812C26.5625 76.4029 26.8094 76.999 27.249 77.4385C27.6885 77.8781 28.2846 78.125 28.9063 78.125C29.5279 78.125 30.124 77.8781 30.5635 77.4385C31.0031 76.999 31.25 76.4029 31.25 75.7812V59.375Z" fill="#FBCC23"/>
</svg>
