<svg width="100" height="100" viewBox="0 0 100 100" fill="none" xmlns="http://www.w3.org/2000/svg">
<circle opacity="0.1" cx="50" cy="50" r="50" fill="#60DD96"/>
<path d="M58.5937 59.375C61.6125 59.375 64.0625 61.825 64.0625 64.8438L64.0594 67.85C64.425 74.6937 59.3375 78.1531 50.2094 78.1531C41.1156 78.1531 35.9375 74.7469 35.9375 67.9688V64.8438C35.9375 61.825 38.3875 59.375 41.4062 59.375H58.5937ZM24.2187 43.75H37.8937C37.3485 45.8718 37.3695 48.0996 37.9546 50.2108C38.5397 52.322 39.6684 54.2428 41.2281 55.7812L41.7344 56.2531L41.4062 56.25C39.5307 56.2493 37.7064 56.8622 36.2118 57.9952C34.7171 59.1282 33.6342 60.719 33.1281 62.525L33.0219 62.5281C23.9281 62.5281 18.75 59.1219 18.75 52.3438V49.2188C18.75 46.2 21.2 43.75 24.2187 43.75ZM75.7812 43.75C78.8 43.75 81.25 46.2 81.25 49.2188L81.2469 52.225C81.6125 59.0687 76.525 62.5281 67.3969 62.5281L66.8687 62.5219C66.3883 60.8197 65.3954 59.3067 64.0251 58.1885C62.6547 57.0703 60.9733 56.4011 59.2094 56.2719L58.5937 56.25L58.2656 56.2531C60.0004 54.7295 61.278 52.754 61.9561 50.547C62.6342 48.34 62.6862 45.988 62.1062 43.7531L75.7812 43.75ZM50 37.5C51.2311 37.5 52.4502 37.7425 53.5877 38.2136C54.7251 38.6848 55.7586 39.3753 56.6291 40.2459C57.4997 41.1164 58.1902 42.1499 58.6614 43.2873C59.1325 44.4248 59.375 45.6439 59.375 46.875C59.375 48.1061 59.1325 49.3252 58.6614 50.4627C58.1902 51.6001 57.4997 52.6336 56.6291 53.5041C55.7586 54.3747 54.7251 55.0652 53.5877 55.5364C52.4502 56.0075 51.2311 56.25 50 56.25C47.5136 56.25 45.129 55.2623 43.3709 53.5041C41.6127 51.746 40.625 49.3614 40.625 46.875C40.625 44.3886 41.6127 42.004 43.3709 40.2459C45.129 38.4877 47.5136 37.5 50 37.5ZM32.8125 21.875C35.2989 21.875 37.6835 22.8627 39.4416 24.6209C41.1998 26.379 42.1875 28.7636 42.1875 31.25C42.1875 33.7364 41.1998 36.121 39.4416 37.8791C37.6835 39.6373 35.2989 40.625 32.8125 40.625C30.3261 40.625 27.9415 39.6373 26.1834 37.8791C24.4252 36.121 23.4375 33.7364 23.4375 31.25C23.4375 28.7636 24.4252 26.379 26.1834 24.6209C27.9415 22.8627 30.3261 21.875 32.8125 21.875ZM67.1875 21.875C69.6739 21.875 72.0585 22.8627 73.8166 24.6209C75.5748 26.379 76.5625 28.7636 76.5625 31.25C76.5625 33.7364 75.5748 36.121 73.8166 37.8791C72.0585 39.6373 69.6739 40.625 67.1875 40.625C64.7011 40.625 62.3165 39.6373 60.5584 37.8791C58.8002 36.121 57.8125 33.7364 57.8125 31.25C57.8125 28.7636 58.8002 26.379 60.5584 24.6209C62.3165 22.8627 64.7011 21.875 67.1875 21.875Z" fill="#60DD96"/>
</svg>
