<svg width="201" height="50" viewBox="0 0 201 50" fill="none" xmlns="http://www.w3.org/2000/svg">
<path fill-rule="evenodd" clip-rule="evenodd" d="M21.865 0.0196305C18.8805 0.248125 16.9695 0.596161 14.7097 1.32261C8.5897 3.29005 3.90082 7.35598 1.62437 12.6696C-1.09219 19.0104 -0.387211 27.2327 3.63252 36.0921C4.97243 39.0455 6.89848 42.3618 8.6713 44.7682C9.28287 45.5982 10.9585 47.2996 11.9486 48.0957C14.6882 50.2984 16.4918 50.5968 17.1514 48.9566C17.3371 48.4946 17.3434 48.3898 17.3631 45.4355C17.3855 42.0568 17.4689 41.2475 17.8855 40.3696C18.6723 38.7111 20.1566 38.2114 23.3093 38.5437C24.9275 38.7143 27.6877 38.7179 29.1823 38.5514C36.4036 37.7473 42.1673 33.97 44.9641 28.2087C45.8423 26.3996 46.5598 24.0509 46.888 21.9104C47.1934 19.9184 47.1402 17.3641 46.7534 15.4451C45.1329 7.40287 37.2818 1.39536 26.8025 0.178716C25.7345 0.05475 22.6884 -0.0433552 21.865 0.0196305ZM29.9527 4.92905C31.2093 5.1945 32.0068 5.8452 32.4762 6.98784L32.6605 7.4365L32.7023 16.4461L32.7443 25.4557L32.9446 25.9562C33.1091 26.3664 33.293 26.6 33.9634 27.2495C35.0152 28.2684 35.1643 28.553 35.1648 29.5436C35.1652 30.4955 34.9541 31.0661 34.3636 31.7102C33.8941 32.2221 33.2302 32.5875 32.3677 32.8082C31.6475 32.9925 30.2443 32.9929 29.5223 32.8089C28.1366 32.4557 27.0202 31.6066 26.4814 30.4966L26.2007 29.9177L25.8321 30.3791C24.0368 32.6255 20.3941 33.5229 16.7296 32.6214C12.7197 31.635 10.083 28.612 9.51318 24.3479C9.36004 23.2018 9.4613 20.9848 9.71596 19.9082C10.8696 15.0322 14.5565 12.3318 19.8146 12.5118C21.7571 12.5783 23.1761 12.9814 24.3016 13.7863L24.9195 14.2282L24.9212 11.3328C24.9221 9.74046 24.9607 8.17478 25.0071 7.85361C25.2273 6.32821 26.2287 5.27159 27.7698 4.93848C28.473 4.78641 29.2616 4.78307 29.9527 4.92905ZM20.1404 18.6109C19.185 18.8736 18.2371 19.663 17.8405 20.5266C17.0309 22.2896 17.3499 24.7252 18.545 25.9041C19.4886 26.8354 20.9762 27.2016 22.5036 26.8789C23.9711 26.5689 24.9443 25.5675 25.2539 24.0489C25.3932 23.3668 25.3723 21.8084 25.2161 21.2207C24.8454 19.8248 24.0062 18.9573 22.6989 18.6179C22.1045 18.4636 20.6904 18.4596 20.1404 18.6109Z" fill="white"/>
<path d="M69.1498 40.9571V41.7196H59.2373V40.9571H69.1498ZM64.7373 41.4196V43.9696H63.7873V41.4196H64.7373ZM67.8623 35.8571V39.6696H60.5248V35.8571H67.8623ZM61.4373 36.6071V38.9071H66.9373V36.6071H61.4373ZM68.0498 45.2571V46.0321H60.5123V45.2571H68.0498ZM61.4498 42.8946V45.5196H60.5123V42.8946H61.4498ZM73.9877 41.8571V43.6321H73.0502V41.8571H73.9877ZM78.5752 35.3321V46.2696H77.6377V35.3321H78.5752ZM80.3127 39.9946V40.7946H78.2877V39.9946H80.3127ZM70.0502 43.3571C71.4252 43.3571 72.6709 43.3362 73.7877 43.2946C74.9043 43.253 75.9627 43.1612 76.9627 43.0196L77.0377 43.7071C75.9959 43.8987 74.9293 44.0237 73.8377 44.0821C72.7459 44.1321 71.5334 44.1571 70.2002 44.1571L70.0502 43.3571ZM76.7877 36.6696V37.4321H70.2377V36.6696H76.7877ZM73.5252 38.0946C74.0252 38.0946 74.4668 38.178 74.8502 38.3446C75.2418 38.5112 75.5459 38.7487 75.7627 39.0571C75.9793 39.3655 76.0877 39.7196 76.0877 40.1196C76.0877 40.5196 75.9793 40.8737 75.7627 41.1821C75.5459 41.4821 75.2418 41.7155 74.8502 41.8821C74.4668 42.0487 74.0209 42.1321 73.5127 42.1321C73.0127 42.1321 72.5668 42.0487 72.1752 41.8821C71.7918 41.7155 71.4918 41.4821 71.2752 41.1821C71.0584 40.8737 70.9502 40.5196 70.9502 40.1196C70.9502 39.7196 71.0584 39.3655 71.2752 39.0571C71.4918 38.7487 71.7918 38.5112 72.1752 38.3446C72.5668 38.178 73.0168 38.0946 73.5252 38.0946ZM73.5127 38.8196C73.0127 38.8196 72.6084 38.9405 72.3002 39.1821C71.9918 39.4155 71.8377 39.728 71.8377 40.1196C71.8377 40.503 71.9918 40.8112 72.3002 41.0446C72.6084 41.278 73.0127 41.3946 73.5127 41.3946C74.0209 41.3946 74.4293 41.278 74.7377 41.0446C75.0459 40.8112 75.2002 40.503 75.2002 40.1196C75.2002 39.728 75.0459 39.4155 74.7377 39.1821C74.4293 38.9405 74.0209 38.8196 73.5127 38.8196ZM73.9877 35.3446V37.1571H73.0502V35.3446H73.9877ZM84.1628 36.0071V37.4946C84.1628 38.0362 84.0587 38.5737 83.8503 39.1071C83.6503 39.6321 83.3546 40.1071 82.9628 40.5321C82.5796 40.9571 82.1296 41.2821 81.6128 41.5071L81.1128 40.7821C81.5712 40.5821 81.9753 40.303 82.3253 39.9446C82.6753 39.5862 82.9421 39.1946 83.1253 38.7696C83.3171 38.3362 83.4128 37.9112 83.4128 37.4946V36.0071H84.1628ZM84.3128 36.0071V37.4946C84.3128 37.903 84.4046 38.303 84.5878 38.6946C84.7712 39.0862 85.0296 39.4405 85.3628 39.7571C85.7046 40.0737 86.1003 40.3196 86.5503 40.4946L86.0628 41.2071C85.2878 40.9071 84.6796 40.4155 84.2378 39.7321C83.7962 39.0487 83.5753 38.303 83.5753 37.4946V36.0071H84.3128ZM90.3003 35.3446V42.0946H89.4003V35.3446H90.3003ZM89.7128 38.2946V39.0696H87.6128V38.2946H89.7128ZM87.9378 35.5571V41.7446H87.0503V35.5571H87.9378ZM86.7128 42.3446C87.4628 42.3446 88.1087 42.4237 88.6503 42.5821C89.2003 42.7321 89.6212 42.953 89.9128 43.2446C90.2046 43.5362 90.3503 43.8862 90.3503 44.2946C90.3503 44.703 90.2046 45.053 89.9128 45.3446C89.6212 45.6362 89.2003 45.8571 88.6503 46.0071C88.1087 46.1655 87.4628 46.2446 86.7128 46.2446C85.9628 46.2446 85.3128 46.1655 84.7628 46.0071C84.2212 45.8571 83.8046 45.6362 83.5128 45.3446C83.2212 45.053 83.0753 44.703 83.0753 44.2946C83.0753 43.8862 83.2212 43.5362 83.5128 43.2446C83.8046 42.953 84.2212 42.7321 84.7628 42.5821C85.3128 42.4237 85.9628 42.3446 86.7128 42.3446ZM86.7128 43.0821C85.8712 43.0821 85.2087 43.1905 84.7253 43.4071C84.2421 43.6155 84.0003 43.9112 84.0003 44.2946C84.0003 44.678 84.2421 44.978 84.7253 45.1946C85.2087 45.4112 85.8712 45.5196 86.7128 45.5196C87.5546 45.5196 88.2128 45.4112 88.6878 45.1946C89.1712 44.978 89.4128 44.678 89.4128 44.2946C89.4128 43.9112 89.1712 43.6155 88.6878 43.4071C88.2128 43.1905 87.5546 43.0821 86.7128 43.0821ZM100.476 35.3321V41.7821H99.5382V35.3321H100.476ZM102.113 38.1571V38.9446H100.076V38.1571H102.113ZM100.476 42.2946V44.4696H94.3757V45.6571H93.4632V43.8446H99.5632V42.9571H93.4382V42.2946H100.476ZM100.901 45.4696V46.1446H93.4632V45.4696H100.901ZM95.8632 39.8321V41.2071H94.9382V39.8321H95.8632ZM91.9757 40.8196C93.3423 40.8196 94.5841 40.803 95.7007 40.7696C96.8173 40.728 97.8757 40.6362 98.8757 40.4946L98.9382 41.0946C97.9048 41.2696 96.8298 41.3862 95.7132 41.4446C94.5966 41.4946 93.3882 41.5196 92.0882 41.5196L91.9757 40.8196ZM98.5382 36.1696V36.8571H92.2507V36.1696H98.5382ZM95.3882 37.2196C96.1716 37.2196 96.7882 37.3487 97.2382 37.6071C97.6966 37.8571 97.9257 38.2071 97.9257 38.6571C97.9257 39.1071 97.6966 39.4612 97.2382 39.7196C96.7882 39.9696 96.1716 40.0946 95.3882 40.0946C94.6132 40.0946 93.9966 39.9696 93.5382 39.7196C93.0882 39.4612 92.8632 39.1071 92.8632 38.6571C92.8632 38.2071 93.0882 37.8571 93.5382 37.6071C93.9966 37.3487 94.6132 37.2196 95.3882 37.2196ZM95.3882 37.8446C94.8882 37.8446 94.4882 37.9196 94.1882 38.0696C93.8966 38.2112 93.7507 38.4071 93.7507 38.6571C93.7507 38.9071 93.8966 39.1071 94.1882 39.2571C94.4882 39.3987 94.8882 39.4696 95.3882 39.4696C95.8966 39.4696 96.2966 39.3987 96.5882 39.2571C96.8882 39.1071 97.0382 38.9071 97.0382 38.6571C97.0382 38.4071 96.8882 38.2112 96.5882 38.0696C96.2966 37.9196 95.8966 37.8446 95.3882 37.8446ZM95.8632 35.2196V36.5321H94.9382V35.2196H95.8632ZM115.744 44.0446V44.8321H105.832V44.0446H115.744ZM111.207 41.3696V44.3071H110.282V41.3696H111.207ZM111.082 36.0571V36.9196C111.082 37.6612 110.865 38.353 110.432 38.9946C110.007 39.628 109.453 40.1612 108.769 40.5946C108.086 41.028 107.378 41.3237 106.644 41.4821L106.244 40.6946C106.878 40.578 107.503 40.3362 108.119 39.9696C108.744 39.5946 109.257 39.1405 109.657 38.6071C110.057 38.0655 110.257 37.503 110.257 36.9196V36.0571H111.082ZM111.232 36.0571V36.9196C111.232 37.503 111.432 38.0655 111.832 38.6071C112.24 39.1405 112.753 39.5946 113.369 39.9696C113.994 40.3362 114.624 40.578 115.257 40.6946L114.844 41.4821C114.111 41.3237 113.403 41.028 112.719 40.5946C112.044 40.1612 111.49 39.628 111.057 38.9946C110.632 38.353 110.419 37.6612 110.419 36.9196V36.0571H111.232ZM125.107 36.4821V37.2446H122.595V36.4821H125.107ZM125.107 38.4696V39.2196H122.595V38.4696H125.107ZM125.732 35.3321V41.0696H124.795V35.3321H125.732ZM125.732 41.6196V44.1571H119.657V45.8571H118.732V43.4571H124.807V42.3696H118.72V41.6196H125.732ZM126.145 45.3821V46.1196H118.732V45.3821H126.145ZM120.257 35.6071V36.7696C120.257 37.4196 120.128 38.0321 119.87 38.6071C119.62 39.1821 119.266 39.6862 118.807 40.1196C118.357 40.553 117.841 40.878 117.257 41.0946L116.77 40.3696C117.295 40.178 117.766 39.8987 118.182 39.5321C118.599 39.1655 118.924 38.7446 119.157 38.2696C119.391 37.7862 119.507 37.2862 119.507 36.7696V35.6071H120.257ZM120.42 35.6071V36.7696C120.42 37.253 120.536 37.7196 120.77 38.1696C121.003 38.6196 121.324 39.0196 121.732 39.3696C122.141 39.7112 122.603 39.9737 123.12 40.1571L122.632 40.8821C122.057 40.6655 121.545 40.353 121.095 39.9446C120.645 39.5362 120.295 39.0612 120.045 38.5196C119.795 37.9696 119.67 37.3862 119.67 36.7696V35.6071H120.42ZM136.632 35.3446V42.0821H135.682V35.3446H136.632ZM129.12 40.6071C130.187 40.6071 131.112 40.5821 131.895 40.5321C132.678 40.4821 133.487 40.3905 134.32 40.2571L134.432 41.0321C133.574 41.1655 132.745 41.2571 131.945 41.3071C131.145 41.3571 130.203 41.3821 129.12 41.3821H128.245V40.6071H129.12ZM133.17 36.0321V39.0196H129.157V41.0446H128.245V38.2821H132.257V36.7946H128.22V36.0321H133.17ZM133.045 42.3071C134.187 42.3071 135.082 42.4821 135.732 42.8321C136.382 43.1737 136.707 43.653 136.707 44.2696C136.707 44.8946 136.382 45.378 135.732 45.7196C135.082 46.0696 134.187 46.2446 133.045 46.2446C131.895 46.2446 130.995 46.0696 130.345 45.7196C129.695 45.378 129.37 44.8946 129.37 44.2696C129.37 43.6446 129.695 43.1612 130.345 42.8196C130.995 42.478 131.895 42.3071 133.045 42.3071ZM133.045 43.0571C132.478 43.0571 131.987 43.1071 131.57 43.2071C131.162 43.2987 130.849 43.4362 130.632 43.6196C130.416 43.803 130.307 44.0196 130.307 44.2696C130.307 44.653 130.549 44.9571 131.032 45.1821C131.516 45.3987 132.187 45.5071 133.045 45.5071C133.895 45.5071 134.562 45.3987 135.045 45.1821C135.528 44.9571 135.77 44.653 135.77 44.2696C135.77 44.0196 135.657 43.803 135.432 43.6196C135.216 43.4362 134.903 43.2987 134.495 43.2071C134.087 43.1071 133.603 43.0571 133.045 43.0571ZM139.32 46.7196H138.658L139.033 44.4071H140.008L139.32 46.7196ZM153.594 35.1946V41.0696H152.044V35.1946H153.594ZM155.107 37.5321V38.7946H153.169V37.5321H155.107ZM150.594 35.9446C150.594 37.403 150.152 38.5737 149.269 39.4571C148.394 40.3405 147.098 40.9446 145.382 41.2696L144.769 40.0446C146.169 39.803 147.198 39.403 147.857 38.8446C148.523 38.2862 148.857 37.6362 148.857 36.8946V35.9446H150.594ZM149.832 35.9446V37.1821H145.294V35.9446H149.832ZM153.644 41.5196V42.6571H147.832V45.6946H146.294V41.5196H153.644ZM153.894 45.1446V46.2821H146.294V45.1446H153.894ZM153.532 43.3446V44.4321H147.357V43.3446H153.532ZM164.994 35.1821V46.4196H163.432V35.1821H164.994ZM158.982 35.9821C159.54 35.9821 160.04 36.1446 160.482 36.4696C160.932 36.7946 161.282 37.2612 161.532 37.8696C161.782 38.4696 161.907 39.1696 161.907 39.9696C161.907 40.7696 161.782 41.4737 161.532 42.0821C161.282 42.6905 160.932 43.1571 160.482 43.4821C160.04 43.8071 159.54 43.9696 158.982 43.9696C158.415 43.9696 157.907 43.8071 157.457 43.4821C157.015 43.1571 156.665 42.6946 156.407 42.0946C156.157 41.4862 156.032 40.778 156.032 39.9696C156.032 39.1696 156.157 38.4696 156.407 37.8696C156.665 37.2612 157.015 36.7946 157.457 36.4696C157.907 36.1446 158.415 35.9821 158.982 35.9821ZM158.982 37.3821C158.69 37.3821 158.436 37.4862 158.219 37.6946C158.003 37.8946 157.832 38.1862 157.707 38.5696C157.59 38.953 157.532 39.4196 157.532 39.9696C157.532 40.5196 157.59 40.9905 157.707 41.3821C157.832 41.7737 158.003 42.0696 158.219 42.2696C158.436 42.4696 158.69 42.5696 158.982 42.5696C159.265 42.5696 159.515 42.4696 159.732 42.2696C159.949 42.0696 160.115 41.7737 160.232 41.3821C160.357 40.9905 160.419 40.5196 160.419 39.9696C160.419 39.428 160.357 38.9655 160.232 38.5821C160.115 38.1905 159.949 37.8946 159.732 37.6946C159.515 37.4862 159.265 37.3821 158.982 37.3821ZM178.326 35.1946V40.7946H176.776V35.1946H178.326ZM179.837 37.4446V38.7196H177.901V37.4446H179.837ZM175.3 35.6196C175.3 37.0862 174.851 38.278 173.951 39.1946C173.051 40.1112 171.746 40.7446 170.038 41.0946L169.476 39.8321C170.851 39.5737 171.88 39.153 172.563 38.5696C173.246 37.978 173.588 37.2987 173.588 36.5321V35.6196H175.3ZM174.563 35.6196V36.8571H170.025V35.6196H174.563ZM178.326 41.2446V44.3071H172.513V45.6946H170.976V43.1571H176.801V42.4446H170.963V41.2446H178.326ZM178.662 45.0821V46.2946H170.976V45.0821H178.662ZM181.552 42.6321C182.318 42.6321 182.996 42.6155 183.589 42.5821C184.189 42.5487 184.809 42.4821 185.452 42.3821L185.564 43.6321C184.905 43.7405 184.271 43.8155 183.664 43.8571C183.055 43.8905 182.352 43.9071 181.552 43.9071H180.764V42.6321H181.552ZM184.977 36.2946V40.5946H182.264V43.0946H180.764V39.3696H183.489V37.5446H180.752V36.2946H184.977ZM190.052 35.1946V46.3946H188.577V35.1946H190.052ZM188.939 39.4571V40.6946H187.052V39.4571H188.939ZM187.514 35.4071V45.8571H186.077V35.4071H187.514ZM193.477 42.8321C193.477 42.3321 193.534 41.9112 193.652 41.5696C193.768 41.2196 193.909 40.9405 194.077 40.7321C194.252 40.5237 194.471 40.3196 194.739 40.1196L194.814 40.0571L195.052 39.8821C195.309 39.6737 195.514 39.4612 195.664 39.2446C195.814 39.028 195.889 38.7987 195.889 38.5571C195.889 38.0905 195.743 37.7321 195.452 37.4821C195.168 37.2321 194.789 37.1071 194.314 37.1071C193.98 37.1071 193.693 37.2112 193.452 37.4196C193.218 37.628 193.046 37.9446 192.939 38.3696L191.414 38.0071C191.539 37.5237 191.746 37.0946 192.039 36.7196C192.339 36.3446 192.689 36.0571 193.089 35.8571C193.489 35.6571 193.896 35.5571 194.314 35.5571C194.846 35.5571 195.352 35.6862 195.827 35.9446C196.309 36.1946 196.702 36.5487 197.002 37.0071C197.302 37.4655 197.452 37.9821 197.452 38.5571C197.452 39.0571 197.318 39.5196 197.052 39.9446C196.784 40.3612 196.452 40.7405 196.052 41.0821L195.739 41.3196L195.614 41.4196C195.439 41.5446 195.314 41.6612 195.239 41.7696C195.164 41.878 195.109 42.0071 195.077 42.1571C195.052 42.3071 195.039 42.5321 195.039 42.8321H193.477ZM194.277 43.9696C194.527 43.9696 194.721 44.0487 194.864 44.2071C195.014 44.3655 195.089 44.5612 195.089 44.7946C195.089 45.028 195.014 45.2196 194.864 45.3696C194.721 45.528 194.527 45.6071 194.277 45.6071C194.018 45.6071 193.814 45.528 193.664 45.3696C193.521 45.2196 193.452 45.028 193.452 44.7946C193.452 44.553 193.521 44.3571 193.664 44.2071C193.814 44.0487 194.018 43.9696 194.277 43.9696Z" fill="white"/>
<path d="M66.3213 21.384C67.4106 21.384 68.4195 21.1161 69.3481 20.5804C70.2766 20.0268 71.0177 19.2857 71.5713 18.3572C72.1249 17.4286 72.4016 16.4197 72.4016 15.3304C72.4016 14.2411 72.1249 13.2322 71.5713 12.3036C71.0177 11.375 70.2766 10.6429 69.3481 10.1072C68.4195 9.5536 67.4106 9.27682 66.3213 9.27682H63.6695V21.384H66.3213ZM66.4016 5.1786C68.2231 5.1786 69.9106 5.63396 71.4641 6.54467C73.0177 7.45539 74.2499 8.68753 75.1606 10.2411C76.0713 11.7947 76.5266 13.4911 76.5266 15.3304C76.5266 17.1697 76.0713 18.8661 75.1606 20.4197C74.2499 21.9732 73.0177 23.2054 71.4641 24.1161C69.9106 25.0268 68.2231 25.4822 66.4016 25.4822H59.5713V5.1786H66.4016ZM92.7029 9.19646H82.3368V13.0268H91.819V17.0715H82.3368V21.4375H92.7029V25.4822H78.319V5.1786H92.7029V9.19646ZM105.214 25.9375C104.071 26.1161 102.964 26.0893 101.893 25.8572C100.839 25.6429 99.7679 25.2411 98.6786 24.6518C97.7143 24.0982 96.9286 23.4465 96.3215 22.6965C95.7143 21.9465 95.3036 21.2768 95.0893 20.6875L98.8393 19.2947C98.9286 19.5447 99.1161 19.8304 99.4018 20.1518C99.6875 20.4732 100.08 20.7768 100.58 21.0625C101.384 21.4911 102.089 21.7679 102.696 21.8929C103.304 22 104.009 21.9911 104.813 21.8661C105.045 21.8125 105.304 21.7411 105.589 21.6518C105.893 21.5625 106.188 21.4554 106.473 21.3304C106.759 21.1875 106.991 21.0357 107.17 20.875C107.348 20.6965 107.482 20.5179 107.571 20.3393C107.714 20.0893 107.768 19.8036 107.732 19.4822C107.696 19.1607 107.571 18.884 107.357 18.6518C107.161 18.4554 106.759 18.25 106.152 18.0357C105.563 17.8215 104.571 17.5357 103.179 17.1786L101.705 16.8036C100.598 16.5179 99.6786 16.134 98.9465 15.6518C98.5715 15.4018 98.2322 15.1429 97.9286 14.875C97.6429 14.5893 97.4465 14.375 97.3393 14.2322C96.7679 13.5 96.3929 12.5804 96.2143 11.4732C96.0536 10.3661 96.1429 9.40182 96.4822 8.58039C96.9108 7.45539 97.6161 6.56253 98.5983 5.90182C99.5983 5.22325 100.661 4.81253 101.786 4.66967C102.804 4.54467 103.902 4.57146 105.08 4.75003C106.259 4.9286 107.384 5.32146 108.455 5.9286C109.33 6.39289 110.036 6.91967 110.571 7.50896L107.518 10.1875C107.321 9.97325 106.991 9.75003 106.527 9.51789C105.83 9.12503 105.125 8.87503 104.411 8.76789C103.714 8.64289 103.009 8.6161 102.295 8.68753C101.777 8.75896 101.339 8.91075 100.982 9.14289C100.625 9.35717 100.375 9.68753 100.232 10.134C100.161 10.3482 100.134 10.5893 100.152 10.8572C100.188 11.125 100.304 11.3929 100.5 11.6607C100.75 11.9822 101 12.2054 101.25 12.3304C101.411 12.4197 101.598 12.5 101.813 12.5715C102.027 12.6429 102.313 12.7232 102.67 12.8125C102.67 12.8304 102.688 12.8393 102.723 12.8393L104.116 13.2143C105.83 13.6786 107.134 14.1161 108.027 14.5268C108.938 14.9375 109.652 15.3661 110.17 15.8125C110.634 16.2232 111.009 16.7411 111.295 17.3661C111.598 17.9911 111.75 18.6875 111.75 19.4554C111.768 20.2232 111.607 21 111.268 21.7857C111 22.4107 110.607 23.009 110.089 23.5804C109.589 24.1518 108.964 24.625 108.214 25C107.679 25.2322 107.152 25.4286 106.634 25.5893C106.116 25.7679 105.643 25.884 105.214 25.9375ZM123.66 21.625C124.91 21.625 126.008 21.3482 126.954 20.7947C127.901 20.2411 128.624 19.4911 129.124 18.5447C129.642 17.5804 129.901 16.509 129.901 15.3304C129.901 14.1697 129.642 13.1161 129.124 12.1697C128.624 11.2054 127.901 10.4465 126.954 9.89289C126.008 9.33932 124.91 9.06253 123.66 9.06253C122.41 9.06253 121.311 9.33932 120.365 9.89289C119.418 10.4465 118.686 11.2054 118.168 12.1697C117.668 13.1161 117.418 14.1697 117.418 15.3304C117.418 16.509 117.668 17.5804 118.168 18.5447C118.686 19.4911 119.418 20.2411 120.365 20.7947C121.311 21.3482 122.41 21.625 123.66 21.625ZM123.66 4.96432C125.642 4.96432 127.409 5.4286 128.963 6.35717C130.534 7.28574 131.758 8.54467 132.633 10.134C133.508 11.7054 133.945 13.4375 133.945 15.3304C133.945 17.2232 133.508 18.9643 132.633 20.5536C131.758 22.125 130.534 23.375 128.963 24.3036C127.409 25.2322 125.642 25.6965 123.66 25.6965C121.677 25.6965 119.901 25.2322 118.329 24.3036C116.776 23.375 115.561 22.125 114.686 20.5536C113.811 18.9643 113.374 17.2232 113.374 15.3304C113.374 13.4375 113.811 11.7054 114.686 10.134C115.561 8.54467 116.776 7.28574 118.329 6.35717C119.901 5.4286 121.677 4.96432 123.66 4.96432ZM164.328 25.4822H160.043L158.007 20.5268H149.194L147.159 25.4822H142.873L151.337 5.1786H155.864L164.328 25.4822ZM156.319 16.509L153.721 10.0536L150.909 16.509H156.319ZM175.794 15.1965C176.312 15.1965 176.785 15.0625 177.213 14.7947C177.66 14.5268 178.008 14.1697 178.258 13.7232C178.526 13.2768 178.661 12.7947 178.661 12.2768C178.661 11.759 178.526 11.2857 178.258 10.8572C178.008 10.4107 177.66 10.0625 177.213 9.81253C176.785 9.54467 176.312 9.41074 175.794 9.41074H170.758V15.1965H175.794ZM175.66 5.1786C176.946 5.1786 178.124 5.50003 179.196 6.14289C180.286 6.76789 181.143 7.62503 181.768 8.71432C182.411 9.8036 182.732 10.9911 182.732 12.2768C182.732 13.5447 182.411 14.7232 181.768 15.8125C181.143 16.9018 180.286 17.7679 179.196 18.4107C178.124 19.0536 176.946 19.375 175.66 19.375H170.758V25.4822H166.713V5.1786H175.66ZM193.948 15.1965C194.466 15.1965 194.939 15.0625 195.368 14.7947C195.814 14.5268 196.162 14.1697 196.412 13.7232C196.68 13.2768 196.814 12.7947 196.814 12.2768C196.814 11.759 196.68 11.2857 196.412 10.8572C196.162 10.4107 195.814 10.0625 195.368 9.81253C194.939 9.54467 194.466 9.41074 193.948 9.41074H188.912V15.1965H193.948ZM193.814 5.1786C195.1 5.1786 196.278 5.50003 197.35 6.14289C198.439 6.76789 199.296 7.62503 199.921 8.71432C200.564 9.8036 200.886 10.9911 200.886 12.2768C200.886 13.5447 200.564 14.7232 199.921 15.8125C199.296 16.9018 198.439 17.7679 197.35 18.4107C196.278 19.0536 195.1 19.375 193.814 19.375H188.912V25.4822H184.868V5.1786H193.814Z" fill="white"/>
</svg>
