<svg width="122" height="35" viewBox="0 0 122 35" fill="none" xmlns="http://www.w3.org/2000/svg">
<path d="M120.481 30.9635C120.481 32.8287 118.938 34.3395 117.031 34.3395H4.12737C2.22059 34.3395 0.672852 32.8287 0.672852 30.9635V4.04072C0.672852 2.17641 2.22059 0.660278 4.12737 0.660278H117.03C118.938 0.660278 120.48 2.17641 120.48 4.04072L120.481 30.9635Z" fill="black"/>
<path d="M116.667 0.701094C118.744 0.701094 120.435 2.34938 120.435 4.375V30.625C120.435 32.6506 118.744 34.2989 116.667 34.2989H4.48718C2.40962 34.2989 0.71907 32.6506 0.71907 30.625V4.375C0.71907 2.34938 2.40962 0.701094 4.48718 0.701094H116.667ZM116.667 1.84973e-06H4.48718C2.02035 1.84973e-06 0 1.96985 0 4.375V30.625C0 33.0302 2.02035 35 4.48718 35H116.667C119.133 35 121.154 33.0302 121.154 30.625V4.375C121.154 1.96985 119.133 1.84973e-06 116.667 1.84973e-06Z" fill="white"/>
<path d="M27.038 17.3109C27.012 14.4908 29.4063 13.1188 29.5158 13.0549C28.1598 11.1273 26.058 10.8639 25.3194 10.8429C23.5542 10.6618 21.8419 11.8728 20.9426 11.8728C20.0255 11.8728 18.6407 10.8604 17.1483 10.8902C15.2278 10.9191 13.4311 12.0032 12.4457 13.6867C10.4121 17.1193 11.9288 22.1637 13.8771 24.9383C14.8517 26.2972 15.9906 27.8144 17.4812 27.7611C18.9396 27.7024 19.4843 26.8546 21.2442 26.8546C22.9879 26.8546 23.4994 27.7611 25.0197 27.7269C26.5848 27.7024 27.5702 26.3619 28.5107 24.9908C29.637 23.4333 30.0893 21.8994 30.1072 21.8207C30.0705 21.8084 27.0676 20.6911 27.038 17.3109Z" fill="white"/>
<path d="M24.1662 9.01769C24.9506 8.06132 25.4872 6.76019 25.3383 5.43982C24.203 5.48882 22.7833 6.20544 21.9657 7.14082C21.2424 7.96507 20.5962 9.31607 20.7631 10.5866C22.0384 10.6793 23.3478 9.95919 24.1662 9.01769Z" fill="white"/>
<path d="M44.0191 8.75774C44.0191 9.78761 43.7023 10.5629 43.0696 11.0835C42.4836 11.5639 41.6508 11.8045 40.5721 11.8045C40.0372 11.8045 39.5795 11.7817 39.1963 11.7362V6.10911C39.6962 6.03036 40.2346 5.99011 40.8162 5.99011C41.8437 5.99011 42.6182 6.20799 43.1405 6.64374C43.7257 7.13636 44.0191 7.84074 44.0191 8.75774ZM43.0274 8.78311C43.0274 8.11549 42.8462 7.60361 42.4836 7.24661C42.121 6.89049 41.5915 6.71199 40.8942 6.71199C40.5981 6.71199 40.3459 6.73124 40.1368 6.77149V11.0494C40.2526 11.0669 40.4644 11.0747 40.7722 11.0747C41.4919 11.0747 42.0474 10.8796 42.4387 10.4894C42.83 10.0991 43.0274 9.53036 43.0274 8.78311Z" fill="white"/>
<path d="M49.2773 9.65723C49.2773 10.2916 49.0915 10.8114 48.7199 11.2191C48.3305 11.6382 47.8144 11.8474 47.1701 11.8474C46.549 11.8474 46.0546 11.647 45.6857 11.2445C45.3178 10.8429 45.1338 10.3362 45.1338 9.72548C45.1338 9.08673 45.3231 8.56261 45.7037 8.15573C46.0842 7.74886 46.5957 7.54498 47.2401 7.54498C47.8611 7.54498 48.3601 7.74536 48.7379 8.14698C49.0969 8.53723 49.2773 9.04123 49.2773 9.65723ZM48.3017 9.68698C48.3017 9.30636 48.2174 8.97998 48.0496 8.70786C47.8521 8.37886 47.5712 8.21436 47.206 8.21436C46.8282 8.21436 46.541 8.37886 46.3435 8.70786C46.1748 8.97998 46.0914 9.31161 46.0914 9.70361C46.0914 10.0842 46.1757 10.4106 46.3435 10.6827C46.5473 11.0117 46.8308 11.1762 47.197 11.1762C47.556 11.1762 47.8378 11.0091 48.0406 10.674C48.2147 10.3966 48.3017 10.0676 48.3017 9.68698Z" fill="white"/>
<path d="M56.3277 7.62909L55.004 11.7538H54.1425L53.5941 9.96271C53.455 9.51559 53.342 9.07109 53.254 8.63009H53.237C53.1553 9.08334 53.0422 9.52696 52.8968 9.96271L52.3144 11.7538H51.443L50.1982 7.62909H51.1648L51.6431 9.58996C51.7589 10.0537 51.854 10.4956 51.9303 10.9138H51.9473C52.0173 10.5691 52.1331 10.1298 52.2964 9.59871L52.8968 7.62996H53.6632L54.2385 9.55671C54.3776 10.0266 54.4907 10.479 54.5777 10.9147H54.6038C54.6675 10.4903 54.7635 10.038 54.8909 9.55671L55.4043 7.62996H56.3277V7.62909Z" fill="white"/>
<path d="M61.2033 11.7537H60.2628V9.39117C60.2628 8.66317 59.9792 8.29917 59.4102 8.29917C59.1311 8.29917 58.9059 8.39892 58.7309 8.5993C58.5577 8.79967 58.4697 9.03592 58.4697 9.3063V11.7528H57.5292V8.80755C57.5292 8.4453 57.5176 8.05242 57.4951 7.62717H58.3217L58.3656 8.27205H58.3917C58.5011 8.07167 58.6645 7.9063 58.879 7.77417C59.1338 7.62017 59.4192 7.5423 59.7315 7.5423C60.1264 7.5423 60.4549 7.66655 60.716 7.91592C61.0409 8.2213 61.2033 8.67717 61.2033 9.28267V11.7537V11.7537Z" fill="white"/>
<path d="M63.797 11.7538H62.8574V5.73639H63.797V11.7538Z" fill="white"/>
<path d="M69.3344 9.65723C69.3344 10.2916 69.1486 10.8114 68.7771 11.2191C68.3876 11.6382 67.8707 11.8474 67.2272 11.8474C66.6053 11.8474 66.1108 11.647 65.7428 11.2445C65.3749 10.8429 65.1909 10.3362 65.1909 9.72548C65.1909 9.08673 65.3803 8.56261 65.7608 8.15573C66.1413 7.74886 66.6528 7.54498 67.2963 7.54498C67.9182 7.54498 68.4163 7.74536 68.795 8.14698C69.154 8.53723 69.3344 9.04123 69.3344 9.65723ZM68.358 9.68698C68.358 9.30636 68.2736 8.97998 68.1058 8.70786C67.9093 8.37886 67.6275 8.21436 67.2631 8.21436C66.8844 8.21436 66.5972 8.37886 66.4007 8.70786C66.2319 8.97998 66.1485 9.31161 66.1485 9.70361C66.1485 10.0842 66.2328 10.4106 66.4007 10.6827C66.6044 11.0117 66.888 11.1762 67.2541 11.1762C67.6131 11.1762 67.894 11.0091 68.0968 10.674C68.2718 10.3966 68.358 10.0676 68.358 9.68698Z" fill="white"/>
<path d="M73.8862 11.7537H73.0417L72.9717 11.2786H72.9456C72.6567 11.6575 72.2447 11.8474 71.7099 11.8474C71.3105 11.8474 70.9874 11.7222 70.7442 11.4737C70.5235 11.248 70.4131 10.9671 70.4131 10.6337C70.4131 10.1297 70.6285 9.74561 71.0619 9.47961C71.4945 9.21361 72.103 9.08323 72.8864 9.08936V9.01236C72.8864 8.46898 72.5939 8.19773 72.0078 8.19773C71.5905 8.19773 71.2226 8.30011 70.9049 8.50311L70.7137 7.90111C71.1068 7.66398 71.5923 7.54498 72.1649 7.54498C73.2705 7.54498 73.8251 8.11373 73.8251 9.25123V10.7702C73.8251 11.1824 73.8458 11.5105 73.8862 11.7537ZM72.9097 10.3362V9.70011C71.8723 9.68261 71.3536 9.95998 71.3536 10.5314C71.3536 10.7466 71.4128 10.9076 71.534 11.0152C71.6551 11.1229 71.8095 11.1762 71.9935 11.1762C72.1999 11.1762 72.3928 11.1124 72.5687 10.9855C72.7455 10.8577 72.8541 10.6959 72.8945 10.4972C72.9044 10.4526 72.9097 10.3984 72.9097 10.3362Z" fill="white"/>
<path d="M79.2304 11.7538H78.3957L78.3518 11.0914H78.3257C78.0592 11.5954 77.6051 11.8474 76.967 11.8474C76.4573 11.8474 76.0328 11.6523 75.6962 11.262C75.3597 10.8718 75.1919 10.3651 75.1919 9.74301C75.1919 9.07539 75.3741 8.53464 75.7402 8.12164C76.0947 7.73664 76.5291 7.54414 77.046 7.54414C77.6141 7.54414 78.0116 7.73051 78.2378 8.10414H78.2557V5.73639H79.1971V10.6425C79.1971 11.0441 79.2079 11.4143 79.2304 11.7538ZM78.2557 10.0143V9.32651C78.2557 9.20751 78.2468 9.11126 78.2297 9.03776C78.1768 8.81726 78.0628 8.63176 77.8896 8.48214C77.7146 8.33251 77.5037 8.25726 77.2605 8.25726C76.9096 8.25726 76.635 8.39289 76.433 8.66501C76.2329 8.93714 76.1315 9.28451 76.1315 9.70889C76.1315 10.1166 76.2275 10.4474 76.4205 10.702C76.6242 10.9733 76.8988 11.1089 77.2425 11.1089C77.5512 11.1089 77.798 10.996 77.9856 10.7694C78.1669 10.5603 78.2557 10.3083 78.2557 10.0143Z" fill="white"/>
<path d="M87.2738 9.65723C87.2738 10.2916 87.0881 10.8114 86.7165 11.2191C86.327 11.6382 85.8119 11.8474 85.1667 11.8474C84.5465 11.8474 84.052 11.647 83.6823 11.2445C83.3144 10.8429 83.1304 10.3362 83.1304 9.72548C83.1304 9.08673 83.3197 8.56261 83.7002 8.15573C84.0808 7.74886 84.5923 7.54498 85.2375 7.54498C85.8577 7.54498 86.3576 7.74536 86.7345 8.14698C87.0934 8.53723 87.2738 9.04123 87.2738 9.65723ZM86.2992 9.68698C86.2992 9.30636 86.2149 8.97998 86.047 8.70786C85.8487 8.37886 85.5687 8.21436 85.2026 8.21436C84.8256 8.21436 84.5384 8.37886 84.3401 8.70786C84.1714 8.97998 84.0879 9.31161 84.0879 9.70361C84.0879 10.0842 84.1723 10.4106 84.3401 10.6827C84.5438 11.0117 84.8274 11.1762 85.1936 11.1762C85.5526 11.1762 85.8352 11.0091 86.0381 10.674C86.2113 10.3966 86.2992 10.0676 86.2992 9.68698Z" fill="white"/>
<path d="M92.3308 11.7537H91.3912V9.39117C91.3912 8.66317 91.1076 8.29917 90.5378 8.29917C90.2587 8.29917 90.0334 8.39892 89.8593 8.5993C89.6852 8.79967 89.5981 9.03592 89.5981 9.3063V11.7528H88.6567V8.80755C88.6567 8.4453 88.646 8.05242 88.6235 7.62717H89.4492L89.4932 8.27205H89.5192C89.6296 8.07167 89.7929 7.9063 90.0065 7.77417C90.2623 7.62017 90.5467 7.5423 90.8599 7.5423C91.2539 7.5423 91.5824 7.66655 91.8435 7.91592C92.1693 8.2213 92.3308 8.67717 92.3308 9.28267V11.7537V11.7537Z" fill="white"/>
<path d="M98.6605 8.31584H97.6249V10.3196C97.6249 10.8288 97.8088 11.0835 98.1732 11.0835C98.3419 11.0835 98.4819 11.0695 98.5923 11.0406L98.6165 11.7362C98.4308 11.8045 98.1867 11.8386 97.886 11.8386C97.5145 11.8386 97.2255 11.7283 97.0164 11.5078C96.8064 11.2873 96.7023 10.9163 96.7023 10.3957V8.31584H96.084V7.62896H96.7023V6.87297L97.624 6.60172V7.62809H98.6596V8.31584H98.6605Z" fill="white"/>
<path d="M103.639 11.7538H102.698V9.40876C102.698 8.66939 102.414 8.29926 101.846 8.29926C101.41 8.29926 101.112 8.51364 100.949 8.94239C100.921 9.03251 100.905 9.14276 100.905 9.27226V11.7529H99.9653V5.73639H100.905V8.22226H100.923C101.219 7.76989 101.644 7.54414 102.194 7.54414C102.583 7.54414 102.905 7.66839 103.161 7.91776C103.48 8.22839 103.639 8.69039 103.639 9.30114V11.7538V11.7538Z" fill="white"/>
<path d="M108.776 9.49617C108.776 9.66067 108.763 9.79892 108.741 9.9118H105.92C105.933 10.3195 106.067 10.6302 106.328 10.8454C106.567 11.0379 106.875 11.1342 107.252 11.1342C107.669 11.1342 108.05 11.0694 108.393 10.939L108.54 11.576C108.139 11.7458 107.667 11.8307 107.12 11.8307C106.465 11.8307 105.949 11.6425 105.576 11.2663C105.2 10.89 105.015 10.3852 105.015 9.75167C105.015 9.12955 105.188 8.61155 105.537 8.19855C105.901 7.75755 106.394 7.53705 107.016 7.53705C107.624 7.53705 108.087 7.75755 108.399 8.19855C108.651 8.54855 108.776 8.98167 108.776 9.49617ZM107.878 9.25905C107.886 8.98692 107.824 8.75242 107.696 8.55467C107.533 8.30005 107.284 8.1723 106.948 8.1723C106.641 8.1723 106.39 8.29655 106.199 8.54592C106.043 8.74455 105.951 8.98167 105.92 9.25905H107.878Z" fill="white"/>
<path d="M48.1432 27.5659H46.1052L44.9888 24.1456H41.1082L40.0448 27.5659H38.0605L41.9052 15.9214H44.2798L48.1432 27.5659ZM44.6522 22.7106L43.6426 19.6699C43.5358 19.3593 43.3357 18.6278 43.0404 17.4763H43.0045C42.887 17.9716 42.6976 18.7031 42.4373 19.6699L41.4457 22.7106H44.6522V22.7106Z" fill="white"/>
<path d="M58.03 23.2647C58.03 24.6927 57.6343 25.8214 56.8427 26.65C56.1337 27.3877 55.2534 27.756 54.2025 27.756C53.0681 27.756 52.2532 27.3588 51.7569 26.5643H51.721V30.9874H49.8077V21.9338C49.8077 21.036 49.7835 20.1147 49.7368 19.1697H51.4195L51.5263 20.5005H51.5622C52.2003 19.4978 53.1686 18.9973 54.4681 18.9973C55.484 18.9973 56.3321 19.3884 57.0105 20.1715C57.6908 20.9555 58.03 21.9863 58.03 23.2647ZM56.0808 23.3329C56.0808 22.5157 55.8923 21.8419 55.5136 21.3117C55.0999 20.7587 54.5444 20.4822 53.848 20.4822C53.3759 20.4822 52.9469 20.6362 52.5637 20.9398C52.1796 21.246 51.9284 21.6459 51.8108 22.1412C51.7516 22.3722 51.7219 22.5612 51.7219 22.7099V24.1099C51.7219 24.7207 51.914 25.236 52.2981 25.6569C52.6822 26.0778 53.1812 26.2878 53.795 26.2878C54.5157 26.2878 55.0766 26.0165 55.4777 25.4758C55.8798 24.9342 56.0808 24.2202 56.0808 23.3329Z" fill="white"/>
<path d="M67.9354 23.2647C67.9354 24.6927 67.5396 25.8214 66.7472 26.65C66.0391 27.3877 65.1587 27.756 64.1078 27.756C62.9735 27.756 62.1586 27.3588 61.6632 26.5643H61.6273V30.9874H59.714V21.9338C59.714 21.036 59.6897 20.1147 59.6431 19.1697H61.3258L61.4326 20.5005H61.4684C62.1056 19.4978 63.074 18.9973 64.3744 18.9973C65.3894 18.9973 66.2374 19.3884 66.9177 20.1715C67.5952 20.9555 67.9354 21.9863 67.9354 23.2647ZM65.9861 23.3329C65.9861 22.5157 65.7968 21.8419 65.4181 21.3117C65.0043 20.7587 64.4506 20.4822 63.7533 20.4822C63.2804 20.4822 62.8523 20.6362 62.4682 20.9398C62.0841 21.246 61.8337 21.6459 61.7161 22.1412C61.6578 22.3722 61.6273 22.5612 61.6273 22.7099V24.1099C61.6273 24.7207 61.8193 25.236 62.2017 25.6569C62.5858 26.0769 63.0847 26.2878 63.7004 26.2878C64.421 26.2878 64.9819 26.0165 65.3831 25.4758C65.7851 24.9342 65.9861 24.2202 65.9861 23.3329Z" fill="white"/>
<path d="M79.0093 24.3005C79.0093 25.291 78.6566 26.0969 77.9486 26.719C77.1705 27.3989 76.0873 27.7384 74.6954 27.7384C73.4102 27.7384 72.38 27.4969 71.6001 27.013L72.0434 25.4582C72.8834 25.9534 73.8051 26.2019 74.8093 26.2019C75.53 26.2019 76.0909 26.0427 76.4938 25.7259C76.895 25.4092 77.0951 24.9839 77.0951 24.4537C77.0951 23.9812 76.93 23.583 76.5988 23.2602C76.2695 22.9373 75.7193 22.6372 74.9511 22.3598C72.8601 21.5994 71.8155 20.4855 71.8155 19.0208C71.8155 18.0635 72.1816 17.2787 72.9148 16.6679C73.6454 16.0563 74.62 15.7509 75.8387 15.7509C76.9255 15.7509 77.8283 15.9355 78.5489 16.3039L78.0706 17.8247C77.3975 17.4677 76.6365 17.2892 75.7848 17.2892C75.1118 17.2892 74.5859 17.451 74.2089 17.773C73.8904 18.0609 73.7306 18.4118 73.7306 18.8274C73.7306 19.2877 73.9128 19.6683 74.2789 19.9675C74.5975 20.244 75.1764 20.5433 76.0164 20.8662C77.0439 21.2695 77.7987 21.7412 78.2842 22.2819C78.7679 22.8209 79.0093 23.4955 79.0093 24.3005Z" fill="white"/>
<path d="M85.3354 20.5695H83.2265V24.6461C83.2265 25.683 83.598 26.201 84.3429 26.201C84.6848 26.201 84.9684 26.1721 85.1927 26.1143L85.2457 27.531C84.8688 27.6683 84.3725 27.7375 83.7577 27.7375C83.0021 27.7375 82.4116 27.5126 81.9853 27.0637C81.5608 26.614 81.3472 25.8597 81.3472 24.8001V20.5677H80.0908V19.1677H81.3472V17.6303L83.2265 17.0773V19.1677H85.3354V20.5695Z" fill="white"/>
<path d="M94.851 23.2986C94.851 24.5892 94.4723 25.6489 93.7167 26.4775C92.9242 27.3306 91.8724 27.7559 90.5613 27.7559C89.2977 27.7559 88.2917 27.3472 87.5414 26.53C86.7911 25.7127 86.416 24.6811 86.416 23.4377C86.416 22.1366 86.8019 21.0709 87.5764 20.2422C88.3491 19.4127 89.3919 18.998 90.7031 18.998C91.9667 18.998 92.9834 19.4066 93.7508 20.2247C94.4849 21.0184 94.851 22.043 94.851 23.2986ZM92.8659 23.359C92.8659 22.5846 92.6963 21.9205 92.3525 21.3666C91.9514 20.6964 91.3779 20.3621 90.6349 20.3621C89.8658 20.3621 89.2815 20.6972 88.8804 21.3666C88.5367 21.9214 88.367 22.596 88.367 23.394C88.367 24.1684 88.5367 24.8325 88.8804 25.3855C89.2941 26.0557 89.872 26.39 90.6178 26.39C91.3483 26.39 91.9218 26.0487 92.3355 25.368C92.6882 24.8036 92.8659 24.1325 92.8659 23.359Z" fill="white"/>
<path d="M101.07 20.8103C100.881 20.7762 100.679 20.7587 100.467 20.7587C99.7942 20.7587 99.2737 21.0063 98.9075 21.5025C98.5889 21.94 98.4292 22.493 98.4292 23.1606V27.5662H96.5167L96.5347 21.814C96.5347 20.8462 96.5105 19.9651 96.4629 19.1706H98.1294L98.1994 20.7771H98.2524C98.4543 20.225 98.7729 19.7805 99.2091 19.4471C99.6353 19.147 100.096 18.9973 100.592 18.9973C100.769 18.9973 100.929 19.0096 101.07 19.0315V20.8103Z" fill="white"/>
<path d="M109.627 22.9707C109.627 23.3049 109.605 23.5867 109.557 23.8168H103.817C103.84 24.6463 104.117 25.2807 104.65 25.7182C105.134 26.1093 105.76 26.3053 106.528 26.3053C107.378 26.3053 108.153 26.1732 108.85 25.908L109.15 27.203C108.335 27.5495 107.373 27.7219 106.263 27.7219C104.928 27.7219 103.879 27.3387 103.117 26.573C102.356 25.8074 101.974 24.7793 101.974 23.4895C101.974 22.2234 102.329 21.169 103.038 20.3282C103.782 19.4304 104.786 18.9815 106.049 18.9815C107.291 18.9815 108.23 19.4304 108.868 20.3282C109.373 21.0413 109.627 21.9233 109.627 22.9707ZM107.803 22.4868C107.816 21.9338 107.691 21.456 107.431 21.0527C107.1 20.5338 106.591 20.2748 105.907 20.2748C105.281 20.2748 104.772 20.5277 104.384 21.0352C104.065 21.4385 103.876 21.9224 103.817 22.4859H107.803V22.4868Z" fill="white"/>
</svg>
