<svg width="122" height="35" viewBox="0 0 122 35" fill="none" xmlns="http://www.w3.org/2000/svg">
<path d="M116.667 35H4.48718C2.02035 35 0 33.0302 0 30.625V4.375C0 1.96985 2.02035 2.38419e-06 4.48718 2.38419e-06H116.667C119.133 2.38419e-06 121.154 1.96985 121.154 4.375V30.625C121.154 33.0302 119.133 35 116.667 35Z" fill="black"/>
<path d="M116.667 0.701095C118.744 0.701095 120.435 2.34938 120.435 4.375V30.625C120.435 32.6506 118.744 34.2989 116.667 34.2989H4.48718C2.40962 34.2989 0.71907 32.6506 0.71907 30.625V4.375C0.71907 2.34938 2.40962 0.701095 4.48718 0.701095H116.667ZM116.667 2.38419e-06H4.48718C2.02035 2.38419e-06 0 1.96985 0 4.375V30.625C0 33.0302 2.02035 35 4.48718 35H116.667C119.133 35 121.154 33.0302 121.154 30.625V4.375C121.154 1.96985 119.133 2.38419e-06 116.667 2.38419e-06Z" fill="white"/>
<path d="M9.36492 6.59641C9.10129 6.86547 8.94873 7.28438 8.94873 7.82688V27.1775C8.94873 27.72 9.10129 28.1389 9.36492 28.408L9.42998 28.467L20.5514 17.628V17.372L9.42998 6.53297L9.36492 6.59641Z" fill="url(#paint0_linear_1506_160)"/>
<path d="M24.2543 21.2428L20.5513 17.628V17.372L24.2588 13.7572L24.3418 13.8042L28.7325 16.24C29.9856 16.9312 29.9856 18.0687 28.7325 18.7644L24.3418 21.1958L24.2543 21.2428V21.2428Z" fill="url(#paint1_linear_1506_160)"/>
<path d="M24.3418 21.1958L20.5513 17.5L9.36475 28.408C9.78093 28.8345 10.4596 28.8859 11.2314 28.4594L24.3418 21.1958" fill="url(#paint2_linear_1506_160)"/>
<path d="M24.3418 13.8042L11.2314 6.54063C10.4596 6.11844 9.78093 6.16984 9.36475 6.59641L20.5513 17.5L24.3418 13.8042Z" fill="url(#paint3_linear_1506_160)"/>
<path d="M42.5543 8.9633C42.5543 9.69393 42.3299 10.2791 41.8879 10.7155C41.3798 11.2328 40.7179 11.4931 39.9068 11.4931C39.1317 11.4931 38.4698 11.2285 37.9269 10.7067C37.3828 10.1774 37.1113 9.52768 37.1113 8.75002C37.1113 7.97237 37.3828 7.32268 37.9269 6.79768C38.4698 6.27159 39.1317 6.0069 39.9068 6.0069C40.2927 6.0069 40.6607 6.08455 41.0118 6.22893C41.3618 6.3744 41.6467 6.57127 41.8532 6.81408L41.3842 7.27565C41.0241 6.86112 40.5339 6.65659 39.9068 6.65659C39.3415 6.65659 38.8512 6.84908 38.435 7.23737C38.0233 7.62674 37.8169 8.13096 37.8169 8.75002C37.8169 9.36908 38.0233 9.87768 38.435 10.2671C38.8512 10.651 39.3415 10.8478 39.9068 10.8478C40.507 10.8478 41.0118 10.651 41.41 10.2627C41.6725 10.0056 41.8217 9.65127 41.861 9.19846H39.9068V8.56627H42.5139C42.5453 8.70299 42.5543 8.83533 42.5543 8.9633V8.9633Z" fill="white" stroke="white" stroke-width="0.16" stroke-miterlimit="10"/>
<path d="M46.6905 6.77142H44.2416V8.43392H46.4493V9.0661H44.2416V10.7286H46.6905V11.3728H43.5483V6.1272H46.6905V6.77142Z" fill="white" stroke="white" stroke-width="0.16" stroke-miterlimit="10"/>
<path d="M49.6094 11.3728H48.9161V6.77142H47.4141V6.1272H51.1126V6.77142H49.6094V11.3728V11.3728Z" fill="white" stroke="white" stroke-width="0.16" stroke-miterlimit="10"/>
<path d="M53.7891 11.3728V6.1272H54.4812V11.3728H53.7891Z" fill="white" stroke="white" stroke-width="0.16" stroke-miterlimit="10"/>
<path d="M57.5493 11.3728H56.8617V6.77142H55.354V6.1272H59.057V6.77142H57.5493V11.3728Z" fill="white" stroke="white" stroke-width="0.16" stroke-miterlimit="10"/>
<path d="M66.0592 10.698C65.5286 11.2285 64.8712 11.4931 64.0871 11.4931C63.2985 11.4931 62.6411 11.2285 62.1105 10.698C61.581 10.1686 61.3174 9.51893 61.3174 8.75002C61.3174 7.98112 61.581 7.33143 62.1105 6.80205C62.6411 6.27158 63.2985 6.0069 64.0871 6.0069C64.8667 6.0069 65.5241 6.27158 66.0547 6.80643C66.5887 7.34018 66.8523 7.98549 66.8523 8.75002C66.8523 9.51893 66.5887 10.1686 66.0592 10.698ZM62.6232 10.2583C63.0225 10.651 63.5082 10.8478 64.0871 10.8478C64.6615 10.8478 65.1517 10.651 65.5466 10.2583C65.9448 9.86565 66.1467 9.36143 66.1467 8.75002C66.1467 8.13862 65.9448 7.6344 65.5466 7.24174C65.1517 6.84909 64.6615 6.65221 64.0871 6.65221C63.5082 6.65221 63.0225 6.84909 62.6232 7.24174C62.2249 7.6344 62.023 8.13862 62.023 8.75002C62.023 9.36143 62.2249 9.86565 62.6232 10.2583V10.2583Z" fill="white" stroke="white" stroke-width="0.16" stroke-miterlimit="10"/>
<path d="M67.8247 11.3728V6.1272H68.6661L71.2821 10.2069H71.3124L71.2821 9.19845V6.1272H71.9742V11.3728H71.2518L68.5124 7.09188H68.4821L68.5124 8.1047V11.3728H67.8247V11.3728Z" fill="white" stroke="white" stroke-width="0.16" stroke-miterlimit="10"/>
<path d="M61.1466 19.0334C59.0387 19.0334 57.3168 20.5975 57.3168 22.7555C57.3168 24.8959 59.0387 26.4764 61.1466 26.4764C63.2589 26.4764 64.9809 24.8959 64.9809 22.7555C64.9809 20.5975 63.2589 19.0334 61.1466 19.0334ZM61.1466 25.0108C59.99 25.0108 58.995 24.08 58.995 22.7555C58.995 21.4134 59.99 20.4991 61.1466 20.4991C62.3032 20.4991 63.3027 21.4134 63.3027 22.7555C63.3027 24.08 62.3032 25.0108 61.1466 25.0108V25.0108ZM52.7903 19.0334C50.678 19.0334 48.9605 20.5975 48.9605 22.7555C48.9605 24.8959 50.678 26.4764 52.7903 26.4764C54.9016 26.4764 56.6201 24.8959 56.6201 22.7555C56.6201 20.5975 54.9016 19.0334 52.7903 19.0334ZM52.7903 25.0108C51.6326 25.0108 50.6342 24.08 50.6342 22.7555C50.6342 21.4134 51.6326 20.4991 52.7903 20.4991C53.9469 20.4991 54.9419 21.4134 54.9419 22.7555C54.9419 24.08 53.9469 25.0108 52.7903 25.0108ZM42.8467 20.1742V21.7558H46.7203C46.607 22.6395 46.3041 23.2892 45.8397 23.742C45.2743 24.2889 44.3937 24.8959 42.8467 24.8959C40.4629 24.8959 38.5963 23.0202 38.5963 20.6959C38.5963 18.3717 40.4629 16.4959 42.8467 16.4959C44.1357 16.4959 45.0735 16.987 45.7657 17.6236L46.9088 16.5091C45.9407 15.6078 44.6528 14.9155 42.8467 14.9155C39.5778 14.9155 36.8306 17.5088 36.8306 20.6959C36.8306 23.8831 39.5778 26.4764 42.8467 26.4764C44.6136 26.4764 45.9407 25.912 46.9839 24.8533C48.053 23.8109 48.3862 22.3453 48.3862 21.1619C48.3862 20.7944 48.3548 20.4564 48.2987 20.1742H42.8467ZM83.5073 21.4003C83.1921 20.568 82.2195 19.0334 80.2384 19.0334C78.2753 19.0334 76.6408 20.5417 76.6408 22.7555C76.6408 24.8402 78.2584 26.4764 80.4269 26.4764C82.1802 26.4764 83.1921 25.4341 83.6083 24.827L82.307 23.9816C81.8729 24.6006 81.2817 25.0108 80.4269 25.0108C79.5777 25.0108 78.9685 24.6312 78.5781 23.8831L83.6834 21.8236L83.5073 21.4003V21.4003ZM78.3022 22.6395C78.2584 21.2045 79.4453 20.4695 80.2956 20.4695C80.962 20.4695 81.5274 20.7944 81.7158 21.2592L78.3022 22.6395V22.6395ZM74.1527 26.25H75.8309V15.3125H74.1527V26.25ZM71.4043 19.8625H71.3482C70.9713 19.4272 70.2522 19.0334 69.3413 19.0334C67.4298 19.0334 65.682 20.6697 65.682 22.7675C65.682 24.8533 67.4298 26.4764 69.3413 26.4764C70.2522 26.4764 70.9713 26.0794 71.3482 25.6309H71.4043V26.1647C71.4043 27.5877 70.6246 28.3522 69.3671 28.3522C68.3418 28.3522 67.7057 27.6303 67.4432 27.0233L65.9838 27.6172C66.4044 28.6037 67.5184 29.8178 69.3671 29.8178C71.3347 29.8178 72.995 28.6891 72.995 25.9427V19.2598H71.4043V19.8625V19.8625ZM69.4849 25.0108C68.3283 25.0108 67.3602 24.0669 67.3602 22.7675C67.3602 21.4561 68.3283 20.4991 69.4849 20.4991C70.6246 20.4991 71.5232 21.4561 71.5232 22.7675C71.5232 24.0669 70.6246 25.0108 69.4849 25.0108V25.0108ZM91.3644 15.3125H87.3506V26.25H89.0243V22.1058H91.3644C93.2232 22.1058 95.0461 20.7944 95.0461 18.7086C95.0461 16.6239 93.2187 15.3125 91.3644 15.3125V15.3125ZM91.4081 20.5844H89.0243V16.8339H91.4081C92.6578 16.8339 93.3713 17.8456 93.3713 18.7086C93.3713 19.5552 92.6578 20.5844 91.4081 20.5844ZM101.754 19.0127C100.545 19.0127 99.2876 19.5333 98.7705 20.6872L100.256 21.2942C100.575 20.6872 101.163 20.4903 101.785 20.4903C102.653 20.4903 103.534 20.9989 103.547 21.8969V22.0117C103.244 21.8411 102.596 21.5884 101.798 21.5884C100.199 21.5884 98.5685 22.447 98.5685 24.0494C98.5685 25.515 99.8788 26.4589 101.352 26.4589C102.478 26.4589 103.099 25.9634 103.49 25.387H103.547V26.2325H105.164V22.0369C105.164 20.0977 103.678 19.0127 101.754 19.0127ZM101.553 25.0064C101.005 25.0064 100.242 24.7417 100.242 24.08C100.242 23.2334 101.194 22.9086 102.017 22.9086C102.754 22.9086 103.099 23.0672 103.547 23.2761C103.416 24.2889 102.522 25.0064 101.553 25.0064V25.0064ZM111.053 19.2522L109.129 23.9936H109.072L107.083 19.2522H105.278L108.266 25.8781L106.561 29.5652H108.31L112.915 19.2522H111.053V19.2522ZM95.966 26.25H97.6442V15.3125H95.966V26.25Z" fill="white"/>
<defs>
<linearGradient id="paint0_linear_1506_160" x1="19.564" y1="27.379" x2="4.8841" y2="12.3227" gradientUnits="userSpaceOnUse">
<stop stop-color="#00A0FF"/>
<stop offset="0.0066" stop-color="#00A1FF"/>
<stop offset="0.2601" stop-color="#00BEFF"/>
<stop offset="0.5122" stop-color="#00D2FF"/>
<stop offset="0.7604" stop-color="#00DFFF"/>
<stop offset="1" stop-color="#00E3FF"/>
</linearGradient>
<linearGradient id="paint1_linear_1506_160" x1="30.3642" y1="17.4988" x2="8.64903" y2="17.4988" gradientUnits="userSpaceOnUse">
<stop stop-color="#FFE000"/>
<stop offset="0.4087" stop-color="#FFBD00"/>
<stop offset="0.7754" stop-color="#FFA500"/>
<stop offset="1" stop-color="#FF9C00"/>
</linearGradient>
<linearGradient id="paint2_linear_1506_160" x1="22.2806" y1="15.4909" x2="2.37351" y2="-4.92665" gradientUnits="userSpaceOnUse">
<stop stop-color="#FF3A44"/>
<stop offset="1" stop-color="#C31162"/>
</linearGradient>
<linearGradient id="paint3_linear_1506_160" x1="6.54886" y1="34.8458" x2="15.4383" y2="25.7286" gradientUnits="userSpaceOnUse">
<stop stop-color="#32A071"/>
<stop offset="0.0685" stop-color="#2DA771"/>
<stop offset="0.4762" stop-color="#15CF74"/>
<stop offset="0.8009" stop-color="#06E775"/>
<stop offset="1" stop-color="#00F076"/>
</linearGradient>
</defs>
</svg>
